M48
METRIC,LZ,000.000
;FILE_FORMAT=3:3
;TYPE=PLATED
;Layer: PTH_Through
;EasyEDA v6.5.54, 2026-02-13 05:53:55
;70323f53a5ba4409a2e903c6c44e9b96,20cc673dbd184c8ca6733993ffc9aab1,10
;Gerber Generator version 0.2
;Holesize 1 = 0.800 mm
T01C0.800
;Holesize 2 = 1.000 mm
T02C1.000
;Holesize 3 = 1.200 mm
T03C1.200
;Holesize 4 = 1.501 mm
T04C1.501
%
G05
G90
T01
X038862Y056515
X073279Y053594
X055372Y038608
X011811Y040767
X055372Y042164
X045339Y042164
X019431Y068707
T02
X022061Y058166
X019521Y058166
X024601Y058166
X027141Y058166
X079654Y048387G85X079604Y048387
X077114Y048387G85X077064Y048387
X074574Y048387G85X074524Y048387
X072034Y048387G85X071984Y048387
X069494Y048387G85X069444Y048387
X066954Y048387G85X066904Y048387
X064414Y048387G85X064364Y048387
X061874Y048387G85X061824Y048387
X059334Y048387G85X059284Y048387
X056794Y048387G85X056744Y048387
X054254Y048387G85X054204Y048387
X051714Y048387G85X051664Y048387
X049174Y048387G85X049124Y048387
X046634Y048387G85X046584Y048387
X044094Y048387G85X044044Y048387
X044094Y033147G85X044044Y033147
X046634Y033147G85X046584Y033147
X049174Y033147G85X049124Y033147
X051714Y033147G85X051664Y033147
X054254Y033147G85X054204Y033147
X056794Y033147G85X056744Y033147
X059334Y033147G85X059284Y033147
X061874Y033147G85X061824Y033147
X064414Y033147G85X064364Y033147
X066954Y033147G85X066904Y033147
X069494Y033147G85X069444Y033147
X072034Y033147G85X071984Y033147
X074574Y033147G85X074524Y033147
X077114Y033147G85X077064Y033147
X079654Y033147G85X079604Y033147
X046482Y068834G85X046482Y068834
X049022Y061214G85X049022Y061214
X049022Y063754G85X049022Y063754
X049022Y066294G85X049022Y066294
X049022Y068834G85X049022Y068834
X046482Y066294G85X046482Y066294
X046482Y063754G85X046482Y063754
X046482Y061214G85X046482Y061214
T03
X048662Y026772G85X048722Y026772
X055164Y026772G85X055224Y026772
X055164Y022250G85X055224Y022250
T04
X048654Y022250G85X048729Y022250
X032779Y026645G85X032854Y026645
X039282Y026645G85X039357Y026645
X032779Y022123G85X032854Y022123
X039282Y022123G85X039357Y022123
X019317Y026772G85X019392Y026772
X025820Y026772G85X025895Y026772
X019317Y022250G85X019392Y022250
X025820Y022250G85X025895Y022250
M30
