G04 Layer: TopSilkscreenLayer*
G04 EasyEDA v6.5.54, 2026-02-13 05:53:55*
G04 70323f53a5ba4409a2e903c6c44e9b96,20cc673dbd184c8ca6733993ffc9aab1,10*
G04 Gerber Generator version 0.2*
G04 Scale: 100 percent, Rotated: No, Reflected: No *
G04 Dimensions in millimeters *
G04 leading zeros omitted , absolute positions ,4 integer and 5 decimal *
%FSLAX45Y45*%
%MOMM*%

%ADD10C,0.2032*%
%ADD11C,0.3048*%
%ADD12C,0.1524*%
%ADD13C,0.0650*%
%ADD14C,0.0813*%
%ADD15C,0.0488*%
%ADD16C,0.0099*%
%ADD17C,0.1422*%
%ADD18C,0.2540*%
%ADD19C,0.0125*%
%ADD20C,0.1270*%
%ADD21C,0.0157*%

%LPD*%
G36*
X6736537Y2985211D02*
G01*
X6733082Y2985160D01*
X6728917Y2983839D01*
X6726224Y2982163D01*
X6724040Y2979674D01*
X6722059Y2975610D01*
X6722059Y2969361D01*
X6724142Y2965043D01*
X6728459Y2961335D01*
X6728206Y2939389D01*
X6704228Y2938221D01*
X6680708Y2935782D01*
X6669481Y2934258D01*
X6658203Y2932430D01*
X6643522Y2929483D01*
X6619036Y2923387D01*
X6607556Y2919984D01*
X6589674Y2914192D01*
X6564274Y2904083D01*
X6555435Y2900222D01*
X6533896Y2889910D01*
X6521196Y2882950D01*
X6506972Y2874772D01*
X6493814Y2866136D01*
X6477152Y2854147D01*
X6462928Y2843072D01*
X6445656Y2827426D01*
X6442862Y2829966D01*
X6433007Y2837992D01*
X6433464Y2842818D01*
X6432194Y2847340D01*
X6429857Y2850845D01*
X6426200Y2853334D01*
X6420866Y2854858D01*
X6416192Y2854350D01*
X6411163Y2851658D01*
X6408420Y2848000D01*
X6406896Y2842869D01*
X6406896Y2839974D01*
X6408978Y2834386D01*
X6413042Y2830271D01*
X6416446Y2828798D01*
X6425234Y2829255D01*
X6436207Y2819552D01*
X6436258Y2818790D01*
X6427368Y2810408D01*
X6414516Y2796997D01*
X6400800Y2781046D01*
X6388252Y2764536D01*
X6380327Y2752902D01*
X6373114Y2741117D01*
X6372606Y2741117D01*
X6364579Y2747111D01*
X6361633Y2748737D01*
X6360871Y2755646D01*
X6358839Y2759862D01*
X6354775Y2763062D01*
X6351676Y2764637D01*
X6343497Y2764637D01*
X6338620Y2761640D01*
X6336436Y2759100D01*
X6334506Y2755036D01*
X6334506Y2748229D01*
X6337604Y2742438D01*
X6342837Y2739085D01*
X6347917Y2738272D01*
X6351371Y2738831D01*
X6355130Y2740202D01*
X6357721Y2738577D01*
X6359702Y2736748D01*
X6365087Y2732735D01*
X6367526Y2731160D01*
X6365798Y2729331D01*
X6365798Y2728772D01*
X6357823Y2715971D01*
X6347866Y2696768D01*
X6339535Y2678531D01*
X6335471Y2668473D01*
X6328613Y2648000D01*
X6324854Y2634945D01*
X6323787Y2630627D01*
X6322517Y2623616D01*
X6315710Y2623870D01*
X6313830Y2627223D01*
X6310833Y2630322D01*
X6306413Y2632405D01*
X6299504Y2631998D01*
X6295644Y2630170D01*
X6292596Y2627172D01*
X6290716Y2623413D01*
X6290310Y2617419D01*
X6292494Y2612136D01*
X6296304Y2608783D01*
X6299962Y2607208D01*
X6307328Y2607106D01*
X6311798Y2609189D01*
X6315405Y2613101D01*
X6376619Y2613101D01*
X6380022Y2610815D01*
X6391605Y2600655D01*
X6462471Y2600248D01*
X6468110Y2599588D01*
X6469430Y2600655D01*
X6470650Y2610205D01*
X6464604Y2611221D01*
X6461556Y2609748D01*
X6396380Y2609748D01*
X6393281Y2611882D01*
X6383172Y2620568D01*
X6379362Y2623413D01*
X6337401Y2623058D01*
X6337401Y2624937D01*
X6341465Y2638755D01*
X6348628Y2659989D01*
X6357112Y2681427D01*
X6366713Y2701086D01*
X6372656Y2711805D01*
X6377381Y2719324D01*
X6378752Y2722422D01*
X6379921Y2722422D01*
X6380480Y2721508D01*
X6386931Y2717139D01*
X6393434Y2713990D01*
X6401409Y2711856D01*
X6404711Y2711907D01*
X6409131Y2713228D01*
X6414516Y2715818D01*
X6416700Y2717800D01*
X6416700Y2719120D01*
X6419088Y2723794D01*
X6421831Y2725877D01*
X6425133Y2727248D01*
X6429298Y2727248D01*
X6432600Y2725877D01*
X6435344Y2723794D01*
X6437274Y2720086D01*
X6437274Y2716174D01*
X6435191Y2711907D01*
X6431635Y2707995D01*
X6427724Y2706725D01*
X6427470Y2705404D01*
X6436512Y2696210D01*
X6447282Y2686354D01*
X6492544Y2686964D01*
X6498386Y2685034D01*
X6499656Y2685542D01*
X6502450Y2691434D01*
X6503314Y2694279D01*
X6502298Y2695498D01*
X6497116Y2696159D01*
X6492544Y2694127D01*
X6450025Y2694787D01*
X6441694Y2703017D01*
X6446570Y2710180D01*
X6448145Y2714904D01*
X6448145Y2722168D01*
X6446215Y2727096D01*
X6442913Y2731770D01*
X6440932Y2733497D01*
X6436004Y2736646D01*
X6431178Y2737967D01*
X6423253Y2737866D01*
X6418529Y2736291D01*
X6416446Y2735275D01*
X6412179Y2731871D01*
X6406337Y2724607D01*
X6403746Y2722930D01*
X6400292Y2723540D01*
X6394450Y2726385D01*
X6385356Y2732278D01*
X6385407Y2733243D01*
X6390538Y2741828D01*
X6399072Y2754325D01*
X6411315Y2770784D01*
X6420358Y2781757D01*
X6432600Y2795066D01*
X6446926Y2809392D01*
X6451396Y2805633D01*
X6522212Y2743098D01*
X6531965Y2735376D01*
X6533134Y2735376D01*
X6536029Y2739440D01*
X6538569Y2741777D01*
X6538569Y2743403D01*
X6534912Y2747264D01*
X6456832Y2818028D01*
X6456832Y2818942D01*
X6467856Y2828747D01*
X6484975Y2842107D01*
X6493205Y2848203D01*
X6507226Y2857754D01*
X6513576Y2861818D01*
X6527393Y2870098D01*
X6527800Y2870098D01*
X6531457Y2872384D01*
X6540754Y2877210D01*
X6559346Y2886354D01*
X6567170Y2889859D01*
X6583832Y2896870D01*
X6593636Y2900629D01*
X6618071Y2908401D01*
X6640118Y2914345D01*
X6642811Y2915310D01*
X6643319Y2914853D01*
X6640779Y2909214D01*
X6635140Y2899054D01*
X6634327Y2897886D01*
X6635851Y2894838D01*
X6657086Y2868930D01*
X6658000Y2867253D01*
X6659473Y2867253D01*
X6663334Y2870301D01*
X6663334Y2871774D01*
X6645249Y2896514D01*
X6645249Y2897784D01*
X6650126Y2905658D01*
X6654546Y2913837D01*
X6654546Y2915564D01*
X6656273Y2917545D01*
X6667042Y2919577D01*
X6679742Y2921457D01*
X6695897Y2923336D01*
X6709968Y2924352D01*
X6710578Y2924708D01*
X6728206Y2925013D01*
X6728663Y2892399D01*
X6740550Y2892145D01*
X6741312Y2893872D01*
X6741718Y2924962D01*
X6761480Y2924759D01*
X6763410Y2924302D01*
X6775653Y2923387D01*
X6793788Y2921000D01*
X6812838Y2917850D01*
X6813499Y2913532D01*
X6815683Y2907284D01*
X6817614Y2903423D01*
X6820865Y2898190D01*
X6821424Y2896158D01*
X6803339Y2872282D01*
X6803339Y2871063D01*
X6804253Y2871063D01*
X6807606Y2868218D01*
X6808927Y2868218D01*
X6822440Y2885440D01*
X6823659Y2886659D01*
X6831228Y2896514D01*
X6831228Y2898241D01*
X6827774Y2905048D01*
X6824827Y2913837D01*
X6824827Y2915208D01*
X6826097Y2915208D01*
X6842709Y2910941D01*
X6854901Y2907436D01*
X6876084Y2900375D01*
X6893610Y2893517D01*
X6899960Y2890621D01*
X6904786Y2888792D01*
X6911746Y2885744D01*
X6927850Y2877667D01*
X6938416Y2871927D01*
X6946188Y2867253D01*
X6946646Y2867253D01*
X6957923Y2860598D01*
X6967981Y2853842D01*
X6982663Y2843479D01*
X6992975Y2835351D01*
X7011568Y2819908D01*
X7012736Y2818536D01*
X7008114Y2814878D01*
X6942074Y2754426D01*
X6930542Y2743403D01*
X6930542Y2741777D01*
X6933031Y2739491D01*
X6936028Y2734919D01*
X6936536Y2734919D01*
X6939635Y2737053D01*
X6949897Y2745638D01*
X6987286Y2779420D01*
X7007656Y2797454D01*
X7021474Y2809240D01*
X7022388Y2809240D01*
X7033107Y2798419D01*
X7045858Y2785008D01*
X7054748Y2774950D01*
X7068007Y2757424D01*
X7080148Y2739948D01*
X7084212Y2733344D01*
X7084212Y2732125D01*
X7076135Y2726791D01*
X7068820Y2723489D01*
X7065213Y2722880D01*
X7063130Y2724099D01*
X7057186Y2732024D01*
X7052157Y2735732D01*
X7046772Y2737713D01*
X7041388Y2738272D01*
X7035190Y2737358D01*
X7029653Y2734716D01*
X7024166Y2729331D01*
X7021931Y2724607D01*
X7020610Y2719781D01*
X7020610Y2715971D01*
X7021626Y2712110D01*
X7022795Y2709722D01*
X7025538Y2705658D01*
X7027925Y2703118D01*
X7018883Y2694736D01*
X6987082Y2694025D01*
X6974789Y2694533D01*
X6971080Y2696718D01*
X6966559Y2695549D01*
X6965899Y2694482D01*
X6967169Y2690977D01*
X6969658Y2686151D01*
X6970979Y2685084D01*
X6974840Y2686354D01*
X7022134Y2686862D01*
X7029196Y2693416D01*
X7041845Y2705760D01*
X7040016Y2707081D01*
X7039152Y2707081D01*
X7034834Y2709976D01*
X7032396Y2714091D01*
X7031736Y2719476D01*
X7033920Y2723896D01*
X7037019Y2726232D01*
X7041642Y2727401D01*
X7046772Y2726131D01*
X7050074Y2723743D01*
X7053275Y2716885D01*
X7058253Y2714244D01*
X7064908Y2711856D01*
X7067854Y2711907D01*
X7073239Y2713228D01*
X7078624Y2715310D01*
X7083501Y2717749D01*
X7088886Y2721711D01*
X7089190Y2722422D01*
X7090511Y2722422D01*
X7096302Y2712618D01*
X7101078Y2703982D01*
X7113016Y2679496D01*
X7119823Y2662732D01*
X7127240Y2641650D01*
X7131100Y2629154D01*
X7132320Y2624074D01*
X7131761Y2623566D01*
X7090765Y2623718D01*
X7087971Y2622651D01*
X7080097Y2616149D01*
X7072934Y2609748D01*
X7005218Y2610205D01*
X7000087Y2610459D01*
X6998919Y2609291D01*
X7000087Y2603754D01*
X7001306Y2599893D01*
X7005675Y2600198D01*
X7076998Y2600706D01*
X7091781Y2613101D01*
X7154570Y2613101D01*
X7157110Y2609900D01*
X7162698Y2607106D01*
X7171181Y2607106D01*
X7176008Y2610002D01*
X7179106Y2614523D01*
X7179767Y2619908D01*
X7179208Y2624226D01*
X7177074Y2627223D01*
X7174534Y2629966D01*
X7169912Y2632303D01*
X7163765Y2632252D01*
X7159345Y2630322D01*
X7156094Y2627223D01*
X7154824Y2624226D01*
X7147763Y2623566D01*
X7147052Y2624378D01*
X7144461Y2635859D01*
X7141921Y2645003D01*
X7137603Y2657957D01*
X7133031Y2670860D01*
X7126731Y2685745D01*
X7116165Y2707335D01*
X7108596Y2720746D01*
X7105446Y2725572D01*
X7102348Y2731008D01*
X7104837Y2732735D01*
X7113524Y2739694D01*
X7115860Y2739694D01*
X7117029Y2738526D01*
X7125563Y2738577D01*
X7130643Y2741117D01*
X7133640Y2744673D01*
X7135114Y2748991D01*
X7135114Y2754579D01*
X7133183Y2758643D01*
X7130135Y2762250D01*
X7125360Y2764637D01*
X7117994Y2764637D01*
X7113219Y2762250D01*
X7109815Y2758389D01*
X7107732Y2752140D01*
X7107732Y2748330D01*
X7104888Y2746908D01*
X7098182Y2741879D01*
X7096759Y2740507D01*
X7086346Y2756712D01*
X7078167Y2768244D01*
X7072274Y2775915D01*
X7062520Y2787904D01*
X7056628Y2794609D01*
X7046671Y2805125D01*
X7032853Y2818536D01*
X7032853Y2819704D01*
X7034784Y2821076D01*
X7044080Y2829864D01*
X7046010Y2828899D01*
X7052106Y2828899D01*
X7056272Y2830880D01*
X7059777Y2834386D01*
X7061708Y2839466D01*
X7061708Y2842920D01*
X7060539Y2846882D01*
X7057745Y2850946D01*
X7053783Y2853537D01*
X7048296Y2854604D01*
X7043420Y2853740D01*
X7040676Y2852369D01*
X7037324Y2849422D01*
X7035292Y2844190D01*
X7035292Y2837637D01*
X7027722Y2831846D01*
X7022896Y2827375D01*
X7014514Y2835452D01*
X7002272Y2845968D01*
X6986828Y2858008D01*
X6968998Y2870403D01*
X6956755Y2878175D01*
X6939127Y2888030D01*
X6918807Y2897936D01*
X6895592Y2908096D01*
X6883349Y2912872D01*
X6859371Y2920847D01*
X6842252Y2925673D01*
X6826097Y2929483D01*
X6811873Y2932379D01*
X6794753Y2935274D01*
X6779107Y2937205D01*
X6768338Y2938170D01*
X6752691Y2939186D01*
X6741922Y2939491D01*
X6741617Y2960878D01*
X6745224Y2964332D01*
X6747764Y2969615D01*
X6747611Y2975356D01*
X6746494Y2978251D01*
X6743953Y2981858D01*
X6740448Y2983992D01*
G37*
G36*
X6792366Y2974644D02*
G01*
X6789369Y2974543D01*
X6787438Y2974086D01*
X6783476Y2972308D01*
X6780022Y2968650D01*
X6778599Y2965856D01*
X6778599Y2958033D01*
X6781546Y2953359D01*
X6785305Y2950870D01*
X6789674Y2949600D01*
X6795414Y2950108D01*
X6800138Y2952648D01*
X6803237Y2957169D01*
X6804406Y2961436D01*
X6803796Y2965653D01*
X6801103Y2970530D01*
X6797294Y2973222D01*
G37*
G36*
X6676339Y2974594D02*
G01*
X6671767Y2973171D01*
X6667347Y2969361D01*
X6665315Y2964078D01*
X6665315Y2960166D01*
X6666382Y2956661D01*
X6669024Y2952851D01*
X6675323Y2949651D01*
X6682689Y2949956D01*
X6687566Y2952343D01*
X6690715Y2956915D01*
X6691782Y2962148D01*
X6690156Y2967939D01*
X6686245Y2972257D01*
X6681774Y2974289D01*
G37*
G36*
X6919569Y2941574D02*
G01*
X6914845Y2939999D01*
X6911035Y2936341D01*
X6908800Y2932226D01*
X6908800Y2924048D01*
X6912102Y2919171D01*
X6916115Y2916631D01*
X6920026Y2915564D01*
X6926427Y2916072D01*
X6929831Y2917494D01*
X6932371Y2920238D01*
X6934504Y2923946D01*
X6935114Y2929991D01*
X6933387Y2935071D01*
X6930491Y2938729D01*
X6926224Y2941116D01*
G37*
G36*
X6545173Y2941523D02*
G01*
X6542227Y2940761D01*
X6539280Y2939237D01*
X6536181Y2936036D01*
X6533946Y2932226D01*
X6533946Y2924556D01*
X6536181Y2920695D01*
X6538620Y2918206D01*
X6542735Y2916275D01*
X6547002Y2915107D01*
X6552031Y2916275D01*
X6554724Y2917647D01*
X6557772Y2920695D01*
X6560210Y2925876D01*
X6560667Y2929839D01*
X6558483Y2935478D01*
X6555028Y2939237D01*
X6551066Y2941218D01*
G37*
G36*
X6680250Y2905099D02*
G01*
X6677761Y2904286D01*
X6674866Y2902813D01*
X6672275Y2900070D01*
X6670040Y2896260D01*
X6670056Y2891790D01*
X6680962Y2891790D01*
X6680962Y2893923D01*
X6681622Y2894584D01*
X6683298Y2894584D01*
X6684619Y2893009D01*
X6682384Y2891282D01*
X6680962Y2891790D01*
X6670056Y2891790D01*
X6670090Y2889554D01*
X6671513Y2886405D01*
X6675069Y2882696D01*
X6678777Y2880969D01*
X6684314Y2880563D01*
X6689394Y2882239D01*
X6692798Y2885135D01*
X6694678Y2888742D01*
X6695287Y2894025D01*
X6693611Y2899156D01*
X6691223Y2902204D01*
X6687058Y2904642D01*
G37*
G36*
X6777126Y2905099D02*
G01*
X6773164Y2903677D01*
X6769658Y2900832D01*
X6767118Y2895854D01*
X6767118Y2893212D01*
X6778294Y2893212D01*
X6779514Y2894634D01*
X6781546Y2894330D01*
X6781546Y2891434D01*
X6779412Y2891180D01*
X6778294Y2893212D01*
X6767118Y2893212D01*
X6767118Y2889758D01*
X6769150Y2885490D01*
X6772960Y2882138D01*
X6776669Y2880512D01*
X6783527Y2880461D01*
X6787438Y2882239D01*
X6790232Y2884728D01*
X6792518Y2889554D01*
X6792569Y2895904D01*
X6791147Y2899257D01*
X6788556Y2902254D01*
X6784136Y2904794D01*
G37*
G36*
X6616141Y2895092D02*
G01*
X6609994Y2892907D01*
X6606540Y2889656D01*
X6604762Y2886202D01*
X6603634Y2881223D01*
X6615379Y2881223D01*
X6616496Y2883306D01*
X6617614Y2884017D01*
X6619240Y2884017D01*
X6620764Y2882544D01*
X6620764Y2880664D01*
X6618833Y2878734D01*
X6617766Y2878734D01*
X6615988Y2879699D01*
X6615379Y2881223D01*
X6603634Y2881223D01*
X6603542Y2880817D01*
X6605066Y2875635D01*
X6608013Y2871114D01*
X6611772Y2868676D01*
X6617411Y2867253D01*
X6620154Y2867253D01*
X6624929Y2861259D01*
X6630517Y2855417D01*
X6635953Y2848762D01*
X6635953Y2848051D01*
X6637172Y2848051D01*
X6641338Y2851962D01*
X6641338Y2852775D01*
X6632295Y2863189D01*
X6627774Y2868930D01*
X6627063Y2870200D01*
X6628485Y2871774D01*
X6631228Y2876600D01*
X6631279Y2885236D01*
X6629146Y2889605D01*
X6625488Y2892806D01*
X6621170Y2894634D01*
G37*
G36*
X6471767Y2894584D02*
G01*
X6468262Y2893314D01*
X6466179Y2891891D01*
X6464300Y2889554D01*
X6462522Y2886202D01*
X6462471Y2880410D01*
X6463842Y2877058D01*
X6466281Y2874213D01*
X6469329Y2872181D01*
X6474358Y2870911D01*
X6479082Y2872181D01*
X6483197Y2874924D01*
X6485788Y2880156D01*
X6486296Y2883814D01*
X6485229Y2887726D01*
X6482334Y2891637D01*
X6477965Y2894126D01*
G37*
G36*
X6994652Y2894076D02*
G01*
X6991959Y2894025D01*
X6988048Y2892298D01*
X6985609Y2889859D01*
X6983425Y2885846D01*
X6983425Y2879394D01*
X6986168Y2875127D01*
X6989318Y2872536D01*
X6992975Y2871571D01*
X6996887Y2871571D01*
X7000798Y2872638D01*
X7005320Y2877058D01*
X7006539Y2881376D01*
X7006031Y2886659D01*
X7004507Y2889554D01*
X7001052Y2892806D01*
X6997344Y2894076D01*
G37*
G36*
X6845147Y2889300D02*
G01*
X6840270Y2887370D01*
X6836714Y2884220D01*
X6834428Y2879953D01*
X6834428Y2877362D01*
X6845350Y2877362D01*
X6846519Y2878734D01*
X6849364Y2877616D01*
X6849922Y2875381D01*
X6848652Y2873908D01*
X6845655Y2874213D01*
X6845350Y2877362D01*
X6834428Y2877362D01*
X6834378Y2871774D01*
X6837172Y2866288D01*
X6838086Y2865729D01*
X6838086Y2864459D01*
X6831584Y2856585D01*
X6827774Y2853080D01*
X6827774Y2852267D01*
X6832396Y2848051D01*
X6844690Y2861868D01*
X6851548Y2862376D01*
X6855358Y2863951D01*
X6858457Y2867101D01*
X6860794Y2871774D01*
X6861200Y2877362D01*
X6859981Y2881477D01*
X6856425Y2886100D01*
X6850634Y2888945D01*
G37*
G36*
X6582867Y2885846D02*
G01*
X6580581Y2885389D01*
X6577380Y2882239D01*
X6576822Y2879445D01*
X6577584Y2875432D01*
X6578955Y2873806D01*
X6582867Y2872079D01*
X6585305Y2872028D01*
X6619087Y2835960D01*
X6619849Y2834640D01*
X6621018Y2834690D01*
X6623456Y2836824D01*
X6624828Y2838450D01*
X6617614Y2846882D01*
X6607911Y2857398D01*
X6605727Y2859328D01*
X6596125Y2869895D01*
X6595465Y2870352D01*
X6589877Y2876854D01*
X6590487Y2878632D01*
X6589522Y2882747D01*
X6586778Y2885440D01*
G37*
G36*
X6881215Y2885490D02*
G01*
X6878269Y2882747D01*
X6877710Y2880410D01*
X6877456Y2876499D01*
X6864858Y2863189D01*
X6856374Y2854553D01*
X6843471Y2840024D01*
X6843471Y2838551D01*
X6845401Y2837942D01*
X6846417Y2836062D01*
X6848246Y2836062D01*
X6849872Y2838500D01*
X6881723Y2872028D01*
X6884924Y2872028D01*
X6888378Y2873451D01*
X6890410Y2875991D01*
X6890410Y2882188D01*
X6887108Y2885490D01*
G37*
G36*
X6562140Y2875889D02*
G01*
X6559854Y2875838D01*
X6555943Y2873705D01*
X6553758Y2869895D01*
X6553708Y2865272D01*
X6555079Y2862681D01*
X6557416Y2860700D01*
X6560616Y2859430D01*
X6565798Y2860040D01*
X6577584Y2848305D01*
X6581648Y2843682D01*
X6581698Y2836316D01*
X6582359Y2834690D01*
X6587947Y2828544D01*
X6602323Y2813812D01*
X6603898Y2816148D01*
X6606590Y2818790D01*
X6606590Y2819450D01*
X6588709Y2837078D01*
X6588048Y2838704D01*
X6587388Y2848305D01*
X6583375Y2851658D01*
X6569456Y2865475D01*
X6570472Y2867406D01*
X6569202Y2871266D01*
X6564426Y2875889D01*
G37*
G36*
X6903872Y2875889D02*
G01*
X6900976Y2874111D01*
X6899300Y2872232D01*
X6897776Y2868726D01*
X6897776Y2865424D01*
X6880910Y2848457D01*
X6880148Y2847238D01*
X6879539Y2838856D01*
X6861098Y2820517D01*
X6861098Y2819044D01*
X6863994Y2816250D01*
X6863994Y2815437D01*
X6865772Y2815437D01*
X6877913Y2828137D01*
X6882841Y2832963D01*
X6885533Y2834894D01*
X6886143Y2843530D01*
X6887260Y2845612D01*
X6901840Y2860598D01*
X6903415Y2859938D01*
X6906971Y2859481D01*
X6910273Y2860548D01*
X6912813Y2862681D01*
X6914388Y2865780D01*
X6914337Y2868930D01*
X6913168Y2871825D01*
X6911746Y2873806D01*
X6908292Y2875889D01*
G37*
G36*
X6734098Y2870454D02*
G01*
X6723786Y2868676D01*
X6708495Y2864866D01*
X6701281Y2862376D01*
X6691477Y2858668D01*
X6684619Y2855671D01*
X6670446Y2848406D01*
X6662623Y2843276D01*
X6650126Y2833624D01*
X6643065Y2827324D01*
X6635953Y2820568D01*
X6635953Y2819806D01*
X6637629Y2820416D01*
X6643065Y2823921D01*
X6652361Y2828340D01*
X6659168Y2831185D01*
X6663334Y2832608D01*
X6663334Y2831947D01*
X6659168Y2829661D01*
X6647434Y2822498D01*
X6640118Y2817164D01*
X6630314Y2809544D01*
X6621170Y2800807D01*
X6618224Y2796692D01*
X6618884Y2796082D01*
X6619544Y2796997D01*
X6623456Y2799943D01*
X6633972Y2806801D01*
X6634429Y2806801D01*
X6639610Y2809849D01*
X6645706Y2813100D01*
X6645249Y2811830D01*
X6643268Y2810662D01*
X6634478Y2803448D01*
X6776059Y2803448D01*
X6775450Y2802839D01*
X6774789Y2803448D01*
X6634478Y2803448D01*
X6611366Y2783586D01*
X6602882Y2773984D01*
X6591401Y2758643D01*
X6591401Y2757932D01*
X6592163Y2757932D01*
X6603492Y2768244D01*
X6610146Y2773984D01*
X6625793Y2786227D01*
X6627622Y2787192D01*
X6627622Y2786837D01*
X6615074Y2772562D01*
X6600901Y2755290D01*
X6592773Y2744825D01*
X6581292Y2727960D01*
X6577025Y2720746D01*
X6575806Y2719324D01*
X6572300Y2713177D01*
X6572859Y2712669D01*
X6606844Y2746248D01*
X6620865Y2759303D01*
X6639610Y2774035D01*
X6646468Y2778912D01*
X6661810Y2788513D01*
X6670802Y2793390D01*
X6684314Y2799638D01*
X6693458Y2802991D01*
X6691477Y2801467D01*
X6682181Y2796133D01*
X6665772Y2785465D01*
X6646976Y2772359D01*
X6630720Y2759100D01*
X6622999Y2752394D01*
X6601917Y2731770D01*
X6593078Y2721711D01*
X6581292Y2706827D01*
X6570522Y2691028D01*
X6562242Y2676347D01*
X6560108Y2672080D01*
X6556095Y2662275D01*
X6552793Y2652166D01*
X6551269Y2646426D01*
X6548374Y2631795D01*
X6546900Y2622448D01*
X6544919Y2599436D01*
X6543903Y2561082D01*
X6544970Y2545232D01*
X6545884Y2539390D01*
X6545884Y2535986D01*
X6547967Y2525572D01*
X6550914Y2513584D01*
X6555587Y2499715D01*
X6560159Y2489200D01*
X6564122Y2481478D01*
X6570522Y2470454D01*
X6582054Y2453436D01*
X6589217Y2444089D01*
X6598970Y2432100D01*
X6609689Y2420112D01*
X6619341Y2410053D01*
X6638137Y2391765D01*
X6666534Y2366975D01*
X6672376Y2362809D01*
X6673646Y2362809D01*
X6673646Y2364130D01*
X6669531Y2369261D01*
X6630263Y2408834D01*
X6618020Y2422194D01*
X6604965Y2437841D01*
X6588506Y2461158D01*
X6585153Y2466594D01*
X6579108Y2477160D01*
X6572758Y2490012D01*
X6567068Y2504033D01*
X6563766Y2515057D01*
X6560515Y2529433D01*
X6559550Y2534716D01*
X6558584Y2541676D01*
X6556705Y2565400D01*
X6556705Y2595118D01*
X6558127Y2618638D01*
X6559042Y2626309D01*
X6560566Y2634691D01*
X6563004Y2645003D01*
X6566509Y2655011D01*
X6570014Y2661767D01*
X6574434Y2669438D01*
X6584950Y2684932D01*
X6593331Y2696006D01*
X6606946Y2711145D01*
X6623456Y2727045D01*
X6633768Y2735630D01*
X6646976Y2745282D01*
X6654292Y2750108D01*
X6668516Y2758338D01*
X6680250Y2764078D01*
X6694931Y2769768D01*
X6706158Y2773273D01*
X6712762Y2774899D01*
X6719620Y2776321D01*
X6731711Y2778201D01*
X6744360Y2777591D01*
X6750202Y2776677D01*
X6762699Y2773832D01*
X6770776Y2771444D01*
X6778091Y2768955D01*
X6784492Y2766466D01*
X6802120Y2758084D01*
X6814058Y2751277D01*
X6831482Y2739491D01*
X6848602Y2725623D01*
X6864756Y2709722D01*
X6879996Y2691993D01*
X6888937Y2679750D01*
X6894474Y2671470D01*
X6899046Y2663698D01*
X6904939Y2651201D01*
X6907987Y2641650D01*
X6910933Y2627223D01*
X6911949Y2619095D01*
X6913168Y2605684D01*
X6913168Y2553868D01*
X6911898Y2542387D01*
X6909460Y2527249D01*
X6905853Y2512618D01*
X6902551Y2502103D01*
X6899656Y2494889D01*
X6897268Y2489860D01*
X6897268Y2489301D01*
X6891121Y2477160D01*
X6883400Y2463749D01*
X6873697Y2449372D01*
X6864299Y2437028D01*
X6853224Y2423718D01*
X6843674Y2412898D01*
X6831025Y2399487D01*
X6795465Y2364130D01*
X6795820Y2363012D01*
X6797548Y2362708D01*
X6799834Y2363266D01*
X6814058Y2375255D01*
X6831939Y2391460D01*
X6848652Y2407615D01*
X6863283Y2423007D01*
X6879437Y2441651D01*
X6891528Y2457399D01*
X6901027Y2471420D01*
X6905650Y2479548D01*
X6910425Y2488742D01*
X6914743Y2498750D01*
X6918756Y2510231D01*
X6920687Y2516936D01*
X6922668Y2525572D01*
X6924649Y2538526D01*
X6925665Y2551023D01*
X6926478Y2566822D01*
X6925665Y2569718D01*
X6925614Y2590800D01*
X6924243Y2615285D01*
X6922668Y2628188D01*
X6920331Y2640685D01*
X6917842Y2650286D01*
X6914286Y2661310D01*
X6910578Y2670454D01*
X6905650Y2680766D01*
X6896658Y2695346D01*
X6891731Y2702509D01*
X6875525Y2723692D01*
X6869633Y2730296D01*
X6857746Y2742793D01*
X6844690Y2754884D01*
X6838797Y2759913D01*
X6827570Y2768803D01*
X6815328Y2777845D01*
X6801103Y2787548D01*
X6779259Y2801061D01*
X6778599Y2801112D01*
X6776161Y2802991D01*
X6777736Y2802991D01*
X6791807Y2797048D01*
X6806488Y2789732D01*
X6816648Y2783738D01*
X6828028Y2775966D01*
X6834378Y2771190D01*
X6849770Y2758846D01*
X6870141Y2739593D01*
X6897268Y2712669D01*
X6897217Y2714040D01*
X6887311Y2729839D01*
X6879539Y2741371D01*
X6857390Y2769057D01*
X6849313Y2778556D01*
X6841794Y2786684D01*
X6842810Y2786684D01*
X6866229Y2768447D01*
X6878218Y2757881D01*
X6878218Y2758846D01*
X6866534Y2774035D01*
X6859473Y2782112D01*
X6855917Y2785567D01*
X6832904Y2805125D01*
X6826199Y2810408D01*
X6822643Y2813558D01*
X6838797Y2804769D01*
X6849872Y2797149D01*
X6850430Y2797708D01*
X6846620Y2802280D01*
X6840423Y2808325D01*
X6832142Y2814828D01*
X6824624Y2820365D01*
X6817004Y2825597D01*
X6806234Y2831947D01*
X6806234Y2832811D01*
X6816801Y2828696D01*
X6824878Y2824581D01*
X6829501Y2821940D01*
X6831380Y2820263D01*
X6832701Y2820263D01*
X6832701Y2820771D01*
X6823608Y2829458D01*
X6815328Y2836824D01*
X6803085Y2846019D01*
X6794246Y2851302D01*
X6783019Y2857093D01*
X6768338Y2862834D01*
X6758533Y2865932D01*
X6751218Y2867710D01*
X6739432Y2870047D01*
G37*
G36*
X6561683Y2845206D02*
G01*
X6558381Y2845155D01*
X6553301Y2843225D01*
X6550253Y2840177D01*
X6548932Y2837281D01*
X6547866Y2832709D01*
X6548983Y2828137D01*
X6551422Y2824378D01*
X6553504Y2822651D01*
X6556908Y2821127D01*
X6564579Y2821482D01*
X6583476Y2801772D01*
X6585305Y2799588D01*
X6590080Y2804363D01*
X6580479Y2814726D01*
X6570370Y2824988D01*
X6570370Y2825546D01*
X6572351Y2829306D01*
X6572351Y2836418D01*
X6570065Y2840634D01*
X6565392Y2844088D01*
G37*
G36*
X6902856Y2844241D02*
G01*
X6898436Y2841498D01*
X6895490Y2837992D01*
X6894322Y2831795D01*
X6895439Y2827426D01*
X6896303Y2826918D01*
X6896252Y2824784D01*
X6885940Y2814269D01*
X6877710Y2805531D01*
X6877710Y2804160D01*
X6881622Y2800400D01*
X6894017Y2813304D01*
X6902348Y2821279D01*
X6908901Y2820162D01*
X6912711Y2821381D01*
X6915962Y2823768D01*
X6918807Y2828645D01*
X6918807Y2835452D01*
X6917334Y2838907D01*
X6914184Y2842412D01*
X6909917Y2844241D01*
G37*
G36*
X6520230Y2842310D02*
G01*
X6517233Y2840532D01*
X6515557Y2838043D01*
X6515557Y2832862D01*
X6517741Y2829661D01*
X6520688Y2827985D01*
X6525717Y2827934D01*
X6527190Y2825750D01*
X6571335Y2779725D01*
X6571335Y2779014D01*
X6572707Y2779014D01*
X6576263Y2782468D01*
X6576263Y2783433D01*
X6572097Y2788361D01*
X6561328Y2799892D01*
X6533896Y2828188D01*
X6530238Y2832201D01*
X6530238Y2837281D01*
X6528307Y2840380D01*
X6525107Y2842310D01*
G37*
G36*
X6944004Y2842310D02*
G01*
X6939838Y2840278D01*
X6938416Y2837586D01*
X6938365Y2832455D01*
X6930898Y2824327D01*
X6920992Y2814269D01*
X6900468Y2792679D01*
X6891426Y2783535D01*
X6891426Y2782468D01*
X6894931Y2779014D01*
X6896252Y2779014D01*
X6897522Y2780792D01*
X6942836Y2827934D01*
X6948627Y2827934D01*
X6952081Y2831287D01*
X6953199Y2835046D01*
X6952538Y2838399D01*
X6950456Y2840990D01*
X6947255Y2842310D01*
G37*
G36*
X6974382Y2835148D02*
G01*
X6947865Y2808986D01*
X6906564Y2767482D01*
X6906564Y2766720D01*
X6909714Y2762707D01*
X6910781Y2762707D01*
X6978294Y2829915D01*
X6979107Y2831388D01*
X6975398Y2835097D01*
G37*
G36*
X6493306Y2835097D02*
G01*
X6489090Y2830880D01*
X6493662Y2825750D01*
X6555130Y2765348D01*
X6558229Y2762504D01*
X6562090Y2766669D01*
X6561785Y2767431D01*
X6549135Y2780233D01*
X6495237Y2833776D01*
X6494475Y2835097D01*
G37*
G36*
X7013651Y2788615D02*
G01*
X7013041Y2788462D01*
X6973773Y2750007D01*
X6967778Y2744520D01*
X6967778Y2741117D01*
X6969302Y2738780D01*
X6968286Y2736951D01*
X6954570Y2724048D01*
X6949186Y2720289D01*
X6949135Y2719171D01*
X6952335Y2713736D01*
X6954012Y2714040D01*
X6973366Y2732836D01*
X6978853Y2735376D01*
X6980529Y2737154D01*
X6981088Y2740507D01*
X6979005Y2745130D01*
X6980631Y2747619D01*
X7011568Y2778201D01*
X7017207Y2783535D01*
X7017207Y2784754D01*
G37*
G36*
X6454038Y2788056D02*
G01*
X6450939Y2784957D01*
X6450939Y2782925D01*
X6487617Y2747111D01*
X6488684Y2744622D01*
X6487160Y2741015D01*
X6487160Y2737459D01*
X6489852Y2735072D01*
X6495237Y2732633D01*
X6513982Y2714955D01*
X6516522Y2713634D01*
X6517894Y2714802D01*
X6518554Y2717241D01*
X6520484Y2719832D01*
X6519875Y2721457D01*
X6518656Y2721457D01*
X6513982Y2724505D01*
X6502196Y2735122D01*
X6499453Y2738831D01*
X6500368Y2741218D01*
X6500368Y2743962D01*
X6464503Y2778760D01*
X6456578Y2786786D01*
G37*
G36*
X7029196Y2781350D02*
G01*
X7026249Y2780639D01*
X7022541Y2778912D01*
X7019950Y2775915D01*
X7017512Y2770632D01*
X7017512Y2766466D01*
X7028789Y2766466D01*
X7028789Y2768955D01*
X7030008Y2770378D01*
X7032548Y2770378D01*
X7034326Y2768803D01*
X7034326Y2766618D01*
X7032701Y2764993D01*
X7029703Y2765602D01*
X7028789Y2766466D01*
X7017512Y2766466D01*
X7017512Y2762961D01*
X7020255Y2757170D01*
X6981698Y2719984D01*
X6973214Y2713278D01*
X6972655Y2711805D01*
X6972655Y2710027D01*
X6975957Y2706624D01*
X6978345Y2706624D01*
X6979818Y2707792D01*
X6983628Y2712618D01*
X7026148Y2754020D01*
X7028484Y2753106D01*
X7033158Y2753106D01*
X7038492Y2754630D01*
X7042912Y2759100D01*
X7044791Y2762961D01*
X7045198Y2770682D01*
X7043115Y2774950D01*
X7040270Y2778302D01*
X7035342Y2780944D01*
G37*
G36*
X6433108Y2780944D02*
G01*
X6428181Y2778658D01*
X6424676Y2774950D01*
X6422593Y2769768D01*
X6422593Y2766720D01*
X6433820Y2766720D01*
X6433820Y2768244D01*
X6435344Y2770378D01*
X6438036Y2770378D01*
X6439204Y2769209D01*
X6439204Y2766263D01*
X6438036Y2765094D01*
X6435598Y2765094D01*
X6433820Y2766720D01*
X6422593Y2766720D01*
X6422593Y2764688D01*
X6424676Y2759202D01*
X6428486Y2755138D01*
X6433566Y2753004D01*
X6441998Y2753461D01*
X6463436Y2733243D01*
X6491173Y2706166D01*
X6493357Y2706979D01*
X6496050Y2710078D01*
X6495745Y2713990D01*
X6490360Y2717139D01*
X6484467Y2722067D01*
X6448501Y2756712D01*
X6447942Y2758440D01*
X6448806Y2759608D01*
X6450228Y2763926D01*
X6450228Y2770124D01*
X6448856Y2773476D01*
X6445351Y2778099D01*
X6439306Y2780944D01*
G37*
G36*
X6901180Y2745079D02*
G01*
X6901180Y2744216D01*
X6902094Y2743301D01*
X6909460Y2728925D01*
X6918452Y2707335D01*
X6921753Y2697327D01*
X6921753Y2696108D01*
X6923786Y2692552D01*
X6927494Y2687167D01*
X6934809Y2675178D01*
X6942226Y2661767D01*
X6949744Y2645460D01*
X6955739Y2630373D01*
X6958990Y2621026D01*
X6963054Y2606141D01*
X6965289Y2597048D01*
X6967270Y2586990D01*
X6969963Y2567787D01*
X6969912Y2539034D01*
X6967677Y2521762D01*
X6966356Y2513584D01*
X6964375Y2503525D01*
X6961835Y2494432D01*
X6957822Y2481935D01*
X6953503Y2470912D01*
X6950049Y2463241D01*
X6945122Y2453182D01*
X6940194Y2444546D01*
X6929831Y2429205D01*
X6921093Y2417724D01*
X6912813Y2408123D01*
X6895287Y2391105D01*
X6880402Y2378964D01*
X6872935Y2373426D01*
X6854444Y2362301D01*
X6846620Y2358339D01*
X6845909Y2357272D01*
X6845909Y2341270D01*
X6846773Y2340762D01*
X6863283Y2348484D01*
X6875525Y2355748D01*
X6889089Y2364841D01*
X6905345Y2377846D01*
X6911238Y2383180D01*
X6920077Y2391816D01*
X6929323Y2402382D01*
X6940194Y2415794D01*
X6952945Y2434488D01*
X6959701Y2446477D01*
X6964273Y2455570D01*
X6971284Y2471420D01*
X6976516Y2486761D01*
X6980478Y2502103D01*
X6983323Y2515514D01*
X6985355Y2529433D01*
X6986371Y2539492D01*
X6986371Y2567330D01*
X6984847Y2581198D01*
X6982206Y2596540D01*
X6976973Y2618587D01*
X6970064Y2639720D01*
X6964375Y2653842D01*
X6958025Y2667050D01*
X6953046Y2676448D01*
X6946036Y2688132D01*
X6936079Y2703017D01*
X6920992Y2722676D01*
X6904532Y2741828D01*
G37*
G36*
X6567627Y2744470D02*
G01*
X6558381Y2734106D01*
X6549085Y2723286D01*
X6536283Y2706370D01*
X6528206Y2694838D01*
X6519621Y2680970D01*
X6510731Y2664155D01*
X6503822Y2648966D01*
X6503822Y2648254D01*
X6501231Y2642108D01*
X6497370Y2631541D01*
X6493459Y2618638D01*
X6490563Y2607614D01*
X6488582Y2598470D01*
X6486652Y2587447D01*
X6484213Y2565857D01*
X6484213Y2541117D01*
X6486753Y2519832D01*
X6488684Y2508351D01*
X6492138Y2492959D01*
X6494170Y2486253D01*
X6498691Y2473248D01*
X6502806Y2463495D01*
X6502806Y2463038D01*
X6511137Y2445969D01*
X6519468Y2431796D01*
X6526682Y2421077D01*
X6536994Y2407615D01*
X6546596Y2396591D01*
X6560820Y2382621D01*
X6569608Y2374849D01*
X6578092Y2368296D01*
X6592620Y2357882D01*
X6611721Y2346909D01*
X6625590Y2340254D01*
X6627164Y2340254D01*
X6627215Y2346756D01*
X6627622Y2349144D01*
X6627063Y2357018D01*
X6619544Y2361031D01*
X6605828Y2368854D01*
X6599885Y2372664D01*
X6589217Y2380284D01*
X6575501Y2391156D01*
X6559499Y2406650D01*
X6552031Y2414828D01*
X6543700Y2425242D01*
X6536181Y2435910D01*
X6527901Y2448864D01*
X6523583Y2456535D01*
X6518046Y2468524D01*
X6512255Y2482900D01*
X6507784Y2497785D01*
X6505295Y2507843D01*
X6502907Y2520797D01*
X6500723Y2543810D01*
X6501333Y2572105D01*
X6503263Y2587447D01*
X6505143Y2598013D01*
X6506819Y2605684D01*
X6513677Y2628188D01*
X6523532Y2653030D01*
X6530594Y2667050D01*
X6537147Y2678480D01*
X6539026Y2681122D01*
X6539026Y2681732D01*
X6547002Y2693314D01*
X6548729Y2697734D01*
X6550914Y2704947D01*
X6553708Y2713177D01*
X6556654Y2720187D01*
X6556654Y2721051D01*
X6564833Y2737561D01*
X6568389Y2743555D01*
X6568389Y2744470D01*
G37*
G36*
X6739788Y2720492D02*
G01*
X6739331Y2719324D01*
X6739940Y2715564D01*
X6755130Y2714294D01*
X6768338Y2712364D01*
X6779463Y2709976D01*
X6794500Y2705557D01*
X6794500Y2708757D01*
X6783984Y2712770D01*
X6774180Y2715615D01*
X6767830Y2717139D01*
X6760514Y2718562D01*
X6753148Y2719527D01*
X6742379Y2720492D01*
G37*
G36*
X6726732Y2720390D02*
G01*
X6719366Y2719578D01*
X6705193Y2717495D01*
X6694931Y2715158D01*
X6679234Y2709926D01*
X6676085Y2708503D01*
X6676085Y2705049D01*
X6678269Y2705557D01*
X6684975Y2707995D01*
X6691020Y2709570D01*
X6703720Y2712415D01*
X6716471Y2714244D01*
X6730288Y2715209D01*
X6731914Y2715818D01*
X6731609Y2720289D01*
G37*
G36*
X6731253Y2709011D02*
G01*
X6724751Y2708859D01*
X6706412Y2706573D01*
X6690512Y2703220D01*
X6685127Y2701442D01*
X6680708Y2700274D01*
X6676339Y2698648D01*
X6676034Y2688691D01*
X6676898Y2687878D01*
X6681216Y2689656D01*
X6690004Y2691688D01*
X6695389Y2692247D01*
X6679234Y2685897D01*
X6676339Y2684221D01*
X6676085Y2657398D01*
X6682079Y2654858D01*
X6682943Y2655366D01*
X6682943Y2660345D01*
X6681927Y2668778D01*
X6682943Y2670657D01*
X6686702Y2670657D01*
X6687820Y2669387D01*
X6686600Y2666288D01*
X6687820Y2664409D01*
X6687820Y2653334D01*
X6688836Y2651506D01*
X6694931Y2648153D01*
X6700316Y2644241D01*
X6705549Y2639263D01*
X6709460Y2633624D01*
X6712813Y2626461D01*
X6714032Y2626868D01*
X6714337Y2632506D01*
X6713169Y2639263D01*
X6712305Y2640888D01*
X6712305Y2642362D01*
X6713829Y2644648D01*
X6716318Y2645257D01*
X6718096Y2644698D01*
X6718757Y2643073D01*
X6719163Y2627782D01*
X6720331Y2626461D01*
X6725259Y2626664D01*
X6728968Y2626512D01*
X6728663Y2620060D01*
X6720535Y2619806D01*
X6720840Y2609291D01*
X6719722Y2608173D01*
X6717233Y2608783D01*
X6716217Y2612390D01*
X6716217Y2618638D01*
X6715252Y2620060D01*
X6713524Y2618994D01*
X6711848Y2610967D01*
X6712356Y2609342D01*
X6713677Y2608834D01*
X6721094Y2603347D01*
X6721094Y2601061D01*
X6719620Y2598216D01*
X6715759Y2598216D01*
X6713270Y2599182D01*
X6708902Y2603144D01*
X6706565Y2602585D01*
X6705447Y2600096D01*
X6705447Y2598267D01*
X6708800Y2596896D01*
X6710527Y2594305D01*
X6709206Y2590800D01*
X6706260Y2586482D01*
X6703923Y2584246D01*
X6704279Y2583129D01*
X6706920Y2581859D01*
X6708444Y2579573D01*
X6707886Y2577846D01*
X6704990Y2574747D01*
X6701993Y2574747D01*
X6700418Y2578557D01*
X6699910Y2578557D01*
X6695795Y2575001D01*
X6693611Y2573426D01*
X6694525Y2565857D01*
X6693712Y2564282D01*
X6692493Y2563825D01*
X6690309Y2564638D01*
X6689750Y2568244D01*
X6688632Y2571851D01*
X6687261Y2571851D01*
X6684162Y2569006D01*
X6683654Y2562504D01*
X6684518Y2556306D01*
X6684619Y2551988D01*
X6682130Y2550617D01*
X6679336Y2551988D01*
X6679133Y2566822D01*
X6677964Y2569972D01*
X6677050Y2569972D01*
X6677050Y2568143D01*
X6675526Y2566873D01*
X6672478Y2568041D01*
X6671767Y2566924D01*
X6671056Y2556916D01*
X6672173Y2551582D01*
X6672173Y2548331D01*
X6668719Y2546908D01*
X6666738Y2548128D01*
X6666179Y2550363D01*
X6667398Y2554122D01*
X6666788Y2563469D01*
X6666179Y2567076D01*
X6662470Y2567076D01*
X6661912Y2565552D01*
X6661912Y2559354D01*
X6657238Y2559659D01*
X6656425Y2570683D01*
X6655612Y2571496D01*
X6656933Y2575458D01*
X6657390Y2579014D01*
X6656273Y2579878D01*
X6652056Y2580487D01*
X6649720Y2579928D01*
X6648805Y2577388D01*
X6647942Y2573528D01*
X6645757Y2572613D01*
X6644640Y2569972D01*
X6645097Y2560574D01*
X6645808Y2559050D01*
X6644131Y2557424D01*
X6639610Y2557729D01*
X6639915Y2571648D01*
X6639102Y2572715D01*
X6634124Y2574594D01*
X6629806Y2577541D01*
X6624929Y2580132D01*
X6622389Y2582468D01*
X6621373Y2581198D01*
X6621221Y2554376D01*
X6620357Y2553512D01*
X6617868Y2554122D01*
X6616598Y2556306D01*
X6616547Y2587650D01*
X6615277Y2589123D01*
X6613601Y2589123D01*
X6609842Y2583738D01*
X6608572Y2577846D01*
X6608572Y2565400D01*
X6609537Y2556764D01*
X6610603Y2551023D01*
X6614363Y2538069D01*
X6616192Y2533751D01*
X6617462Y2529179D01*
X6618427Y2528570D01*
X6618071Y2550312D01*
X6618833Y2550312D01*
X6619900Y2547670D01*
X6621780Y2540000D01*
X6623303Y2528468D01*
X6624624Y2523490D01*
X6625742Y2521458D01*
X6628282Y2520543D01*
X6629603Y2521000D01*
X6629501Y2535072D01*
X6630416Y2535986D01*
X6634225Y2535682D01*
X6634232Y2534716D01*
X6703263Y2534716D01*
X6703364Y2544267D01*
X6706514Y2552192D01*
X6707378Y2552750D01*
X6707378Y2549296D01*
X6708800Y2546604D01*
X6711289Y2545029D01*
X6712153Y2545029D01*
X6713372Y2551988D01*
X6714388Y2553868D01*
X6715150Y2551988D01*
X6716217Y2548026D01*
X6720941Y2540914D01*
X6724294Y2538425D01*
X6727342Y2536901D01*
X6731609Y2535428D01*
X6738569Y2535428D01*
X6744766Y2537409D01*
X6748983Y2540254D01*
X6753250Y2546197D01*
X6754926Y2549855D01*
X6755485Y2553157D01*
X6756196Y2553157D01*
X6758330Y2545486D01*
X6760972Y2546146D01*
X6762140Y2547670D01*
X6762800Y2552700D01*
X6763512Y2553157D01*
X6767322Y2543352D01*
X6767271Y2534716D01*
X6764731Y2529890D01*
X6760514Y2525928D01*
X6755434Y2523032D01*
X6743192Y2513888D01*
X6738975Y2511755D01*
X6735572Y2511044D01*
X6730796Y2511907D01*
X6725259Y2515311D01*
X6714794Y2523744D01*
X6710172Y2526080D01*
X6705498Y2530144D01*
X6703263Y2534716D01*
X6634232Y2534716D01*
X6634276Y2521254D01*
X6635496Y2519121D01*
X6640880Y2519121D01*
X6640728Y2531465D01*
X6641388Y2532532D01*
X6644030Y2532532D01*
X6645452Y2531668D01*
X6645706Y2519832D01*
X6646214Y2518511D01*
X6649262Y2519121D01*
X6651599Y2518511D01*
X6651599Y2514396D01*
X6650990Y2512872D01*
X6646773Y2512872D01*
X6646113Y2511806D01*
X6646265Y2502560D01*
X6647180Y2495448D01*
X6648348Y2494737D01*
X6656019Y2494076D01*
X6656628Y2491740D01*
X6655714Y2488692D01*
X6648653Y2488387D01*
X6648703Y2479090D01*
X6649974Y2473350D01*
X6656425Y2464206D01*
X6666433Y2452725D01*
X6685127Y2434437D01*
X6696405Y2425293D01*
X6704685Y2419705D01*
X6713016Y2415895D01*
X6719366Y2414016D01*
X6723329Y2413152D01*
X6730034Y2412187D01*
X6731304Y2413203D01*
X6731863Y2421077D01*
X6731152Y2426817D01*
X6720382Y2427274D01*
X6720382Y2433523D01*
X6731152Y2434031D01*
X6731762Y2439263D01*
X6731762Y2448407D01*
X6731152Y2454148D01*
X6720840Y2455875D01*
X6715506Y2457805D01*
X6709105Y2461971D01*
X6705853Y2465882D01*
X6703415Y2469388D01*
X6704228Y2470099D01*
X6719874Y2468270D01*
X6730847Y2468270D01*
X6731508Y2470759D01*
X6731050Y2483154D01*
X6730542Y2483662D01*
X6717944Y2484729D01*
X6702755Y2481580D01*
X6692950Y2481529D01*
X6686092Y2483662D01*
X6681978Y2485542D01*
X6681978Y2486863D01*
X6691020Y2487422D01*
X6697370Y2489454D01*
X6703974Y2492705D01*
X6716928Y2501036D01*
X6723024Y2503779D01*
X6725412Y2503779D01*
X6733590Y2500884D01*
X6736994Y2500884D01*
X6744360Y2503728D01*
X6748322Y2503779D01*
X6754114Y2500985D01*
X6770420Y2490520D01*
X6779920Y2487472D01*
X6783120Y2487472D01*
X6789115Y2486863D01*
X6789115Y2485999D01*
X6783984Y2483764D01*
X6777634Y2482088D01*
X6772757Y2481326D01*
X6767830Y2481783D01*
X6758533Y2483561D01*
X6751675Y2484526D01*
X6739686Y2483612D01*
X6739940Y2468524D01*
X6746290Y2468168D01*
X6761988Y2469388D01*
X6766356Y2470150D01*
X6767118Y2469692D01*
X6763258Y2464104D01*
X6758178Y2459634D01*
X6752031Y2456789D01*
X6744360Y2454859D01*
X6741922Y2454859D01*
X6739686Y2454249D01*
X6739686Y2433777D01*
X6750507Y2433777D01*
X6750964Y2432558D01*
X6750202Y2427274D01*
X6739686Y2427020D01*
X6739940Y2412441D01*
X6744817Y2412746D01*
X6751218Y2414066D01*
X6757771Y2415946D01*
X6768795Y2421229D01*
X6779310Y2429002D01*
X6789369Y2437739D01*
X6803085Y2451252D01*
X6813651Y2463088D01*
X6819442Y2470708D01*
X6820865Y2472131D01*
X6821678Y2476703D01*
X6821678Y2488184D01*
X6815429Y2488184D01*
X6814515Y2490571D01*
X6814820Y2493924D01*
X6818731Y2494178D01*
X6822846Y2495245D01*
X6823811Y2497785D01*
X6824218Y2511348D01*
X6823608Y2512314D01*
X6819696Y2512618D01*
X6819392Y2518308D01*
X6820712Y2519121D01*
X6824827Y2519121D01*
X6824827Y2531567D01*
X6826859Y2532583D01*
X6828840Y2531973D01*
X6829755Y2529586D01*
X6829755Y2519121D01*
X6833006Y2519121D01*
X6836003Y2520137D01*
X6836460Y2522474D01*
X6835648Y2534666D01*
X6836714Y2535885D01*
X6839966Y2535885D01*
X6840778Y2534716D01*
X6840778Y2520797D01*
X6845147Y2521102D01*
X6845960Y2521864D01*
X6847281Y2527503D01*
X6848398Y2536139D01*
X6850380Y2545740D01*
X6851446Y2549347D01*
X6852513Y2549347D01*
X6851853Y2534716D01*
X6851142Y2528722D01*
X6852056Y2528722D01*
X6854393Y2535174D01*
X6855815Y2538018D01*
X6859574Y2550871D01*
X6861251Y2559151D01*
X6861251Y2580233D01*
X6858558Y2585516D01*
X6856018Y2588158D01*
X6854393Y2588158D01*
X6852158Y2585669D01*
X6852818Y2582672D01*
X6853783Y2563469D01*
X6853174Y2555494D01*
X6851091Y2553665D01*
X6849262Y2553055D01*
X6848602Y2553716D01*
X6848094Y2580233D01*
X6845858Y2580589D01*
X6844182Y2578760D01*
X6839762Y2575915D01*
X6834682Y2573528D01*
X6833819Y2571140D01*
X6835241Y2558846D01*
X6834835Y2558491D01*
X6830314Y2557322D01*
X6828739Y2558592D01*
X6829399Y2565552D01*
X6828688Y2571902D01*
X6825081Y2571648D01*
X6824827Y2569210D01*
X6823862Y2565704D01*
X6821779Y2565044D01*
X6819239Y2566924D01*
X6818731Y2576576D01*
X6816699Y2579319D01*
X6814007Y2579624D01*
X6811619Y2578100D01*
X6811670Y2574493D01*
X6813702Y2571242D01*
X6811975Y2567533D01*
X6812584Y2559862D01*
X6808927Y2559405D01*
X6806946Y2559862D01*
X6806996Y2566822D01*
X6803186Y2567127D01*
X6802424Y2566365D01*
X6801713Y2553665D01*
X6803339Y2551277D01*
X6803339Y2548991D01*
X6801510Y2547416D01*
X6798005Y2547416D01*
X6797344Y2548432D01*
X6796989Y2564892D01*
X6796481Y2568397D01*
X6789470Y2568295D01*
X6789978Y2552141D01*
X6787946Y2550769D01*
X6785762Y2550769D01*
X6783781Y2553208D01*
X6784746Y2555646D01*
X6784746Y2570378D01*
X6783984Y2570784D01*
X6780834Y2571445D01*
X6780834Y2568194D01*
X6779717Y2564892D01*
X6778904Y2564079D01*
X6776415Y2564688D01*
X6775450Y2568295D01*
X6776313Y2573528D01*
X6770776Y2578557D01*
X6769303Y2578557D01*
X6767575Y2574747D01*
X6764832Y2574747D01*
X6761734Y2577896D01*
X6761734Y2580487D01*
X6765645Y2582926D01*
X6765036Y2585516D01*
X6761378Y2589377D01*
X6759752Y2592882D01*
X6759752Y2595676D01*
X6761480Y2597150D01*
X6765137Y2597810D01*
X6763664Y2601569D01*
X6761683Y2602636D01*
X6755587Y2597759D01*
X6751624Y2597759D01*
X6749491Y2599994D01*
X6749491Y2603042D01*
X6751218Y2603703D01*
X6753656Y2605938D01*
X6758279Y2608884D01*
X6758279Y2611729D01*
X6757162Y2618638D01*
X6756501Y2619349D01*
X6753910Y2618384D01*
X6753910Y2609342D01*
X6752285Y2607767D01*
X6749745Y2608072D01*
X6749237Y2619552D01*
X6741769Y2619857D01*
X6741312Y2625801D01*
X6741718Y2626512D01*
X6750354Y2626512D01*
X6751421Y2629560D01*
X6751421Y2643124D01*
X6753453Y2645206D01*
X6755282Y2645206D01*
X6756857Y2644648D01*
X6758381Y2641803D01*
X6756755Y2637891D01*
X6756196Y2626461D01*
X6758482Y2626766D01*
X6760311Y2631541D01*
X6762953Y2636824D01*
X6770268Y2644089D01*
X6776669Y2648458D01*
X6781800Y2651099D01*
X6782511Y2652166D01*
X6782663Y2664155D01*
X6782866Y2666085D01*
X6782612Y2669235D01*
X6783578Y2670200D01*
X6786321Y2670708D01*
X6788048Y2669184D01*
X6787642Y2654858D01*
X6788403Y2654452D01*
X6795262Y2657957D01*
X6795262Y2684221D01*
X6792315Y2685796D01*
X6775653Y2692247D01*
X6781546Y2691587D01*
X6794042Y2688539D01*
X6794703Y2689504D01*
X6795109Y2696972D01*
X6794500Y2699410D01*
X6792874Y2699410D01*
X6787438Y2701239D01*
X6774688Y2704795D01*
X6770776Y2705658D01*
X6756603Y2707995D01*
X6746798Y2709011D01*
X6739686Y2709011D01*
X6739686Y2696057D01*
X6747916Y2696057D01*
X6748881Y2694838D01*
X6748272Y2689098D01*
X6739686Y2688844D01*
X6739686Y2657449D01*
X6738874Y2656230D01*
X6732117Y2656484D01*
X6731863Y2688844D01*
X6722313Y2689098D01*
X6722313Y2695346D01*
X6730492Y2696006D01*
X6731863Y2697124D01*
X6731863Y2706827D01*
G37*
G36*
X6668312Y2705658D02*
G01*
X6667042Y2705608D01*
X6654749Y2699004D01*
X6639509Y2689098D01*
X6633768Y2685084D01*
X6630314Y2682138D01*
X6631025Y2682138D01*
X6634734Y2684272D01*
X6643522Y2690012D01*
X6648450Y2692552D01*
X6656730Y2697276D01*
X6668008Y2702153D01*
G37*
G36*
X6802983Y2705150D02*
G01*
X6802323Y2704541D01*
X6802323Y2702407D01*
X6815175Y2696514D01*
X6815683Y2696514D01*
X6814464Y2697937D01*
X6805015Y2704033D01*
G37*
G36*
X6668109Y2696057D02*
G01*
X6667042Y2696006D01*
X6647434Y2686253D01*
X6644335Y2684068D01*
X6643725Y2684068D01*
X6641642Y2682138D01*
X6642760Y2682138D01*
X6645960Y2683865D01*
X6659981Y2688336D01*
X6659676Y2686710D01*
X6644741Y2678734D01*
X6631787Y2671368D01*
X6620611Y2663444D01*
X6621170Y2662885D01*
X6627875Y2664764D01*
X6634073Y2665882D01*
X6651853Y2665730D01*
X6651853Y2675178D01*
X6655866Y2675483D01*
X6658102Y2673705D01*
X6656882Y2666847D01*
X6657492Y2664155D01*
X6667804Y2660548D01*
X6668719Y2661107D01*
X6668719Y2692450D01*
G37*
G36*
X6802831Y2695600D02*
G01*
X6802323Y2693416D01*
X6802577Y2661310D01*
X6804558Y2661462D01*
X6812838Y2663698D01*
X6813753Y2667304D01*
X6812483Y2673604D01*
X6813499Y2674569D01*
X6817461Y2675331D01*
X6818985Y2673705D01*
X6818985Y2665831D01*
X6837070Y2665831D01*
X6845655Y2663850D01*
X6847992Y2662936D01*
X6848500Y2663444D01*
X6847281Y2664866D01*
X6832701Y2674467D01*
X6832092Y2674467D01*
X6829501Y2676245D01*
X6816801Y2682951D01*
X6807504Y2688742D01*
X6808012Y2689301D01*
X6813854Y2687523D01*
X6818223Y2685897D01*
X6822389Y2684068D01*
X6822897Y2684068D01*
X6827316Y2682036D01*
X6827824Y2682494D01*
X6820814Y2687015D01*
X6813854Y2691079D01*
X6804202Y2695600D01*
G37*
G36*
X7063841Y2694635D02*
G01*
X7059422Y2691739D01*
X7046772Y2679954D01*
X7030872Y2665831D01*
X6988556Y2666187D01*
X6985304Y2666949D01*
X6981444Y2665679D01*
X6981444Y2663444D01*
X6984898Y2656281D01*
X6986778Y2656281D01*
X6989521Y2657297D01*
X7035139Y2657703D01*
X7061453Y2680462D01*
X7066381Y2685034D01*
X7080097Y2685034D01*
X7080097Y2677566D01*
X7082790Y2673045D01*
X7087006Y2670657D01*
X7092645Y2670657D01*
X7096252Y2672638D01*
X7098588Y2675940D01*
X7099046Y2680563D01*
X7096963Y2684475D01*
X7093661Y2686964D01*
X7091832Y2686964D01*
X7090765Y2687675D01*
X7089851Y2693873D01*
X7087412Y2694533D01*
G37*
G36*
X6380734Y2694584D02*
G01*
X6378752Y2693822D01*
X6377787Y2687167D01*
X6374536Y2686862D01*
X6370777Y2683154D01*
X6369558Y2679293D01*
X6370828Y2675178D01*
X6372758Y2672537D01*
X6376517Y2670657D01*
X6382258Y2670657D01*
X6386271Y2673197D01*
X6388557Y2677109D01*
X6388557Y2685034D01*
X6403238Y2684983D01*
X6422796Y2667406D01*
X6431635Y2659989D01*
X6434175Y2657398D01*
X6475222Y2657754D01*
X6484975Y2656840D01*
X6486194Y2657805D01*
X6486194Y2659227D01*
X6488734Y2665425D01*
X6488277Y2665882D01*
X6438595Y2665882D01*
X6435547Y2668371D01*
X6414973Y2687167D01*
X6406692Y2694381D01*
G37*
G36*
X6393434Y2662529D02*
G01*
X6390538Y2661005D01*
X6388811Y2659075D01*
X6388252Y2656027D01*
X6390233Y2651506D01*
X6392773Y2649880D01*
X6398666Y2650439D01*
X6408115Y2641701D01*
X6419799Y2630119D01*
X6473240Y2629509D01*
X6475882Y2628798D01*
X6478524Y2637485D01*
X6477863Y2639060D01*
X6456070Y2637637D01*
X6422796Y2638145D01*
X6420459Y2639618D01*
X6414008Y2645359D01*
X6401308Y2657602D01*
X6399682Y2660497D01*
X6397142Y2662123D01*
G37*
G36*
X7071766Y2662021D02*
G01*
X7069124Y2659837D01*
X7067143Y2655874D01*
X7064654Y2653944D01*
X7051192Y2641498D01*
X7046366Y2637434D01*
X7040930Y2637993D01*
X6991959Y2638247D01*
X6992061Y2635859D01*
X6994093Y2628849D01*
X6994702Y2628239D01*
X6997852Y2629611D01*
X7049719Y2630119D01*
X7054443Y2635097D01*
X7070293Y2650032D01*
X7075678Y2649524D01*
X7079081Y2651201D01*
X7080859Y2654604D01*
X7080300Y2658821D01*
X7078624Y2660650D01*
X7075982Y2662021D01*
G37*
G36*
X6939280Y2645206D02*
G01*
X6939737Y2642108D01*
X6941870Y2634437D01*
X6945782Y2612847D01*
X6947763Y2598013D01*
X6948678Y2589377D01*
X6949490Y2563012D01*
X6948728Y2544267D01*
X6947712Y2534208D01*
X6945274Y2520543D01*
X6941413Y2505354D01*
X6937756Y2494432D01*
X6933133Y2482900D01*
X6928002Y2471420D01*
X6923836Y2463241D01*
X6918807Y2455265D01*
X6918807Y2454808D01*
X6910882Y2443124D01*
X6905853Y2436418D01*
X6896150Y2424430D01*
X6875018Y2403754D01*
X6859828Y2392680D01*
X6849059Y2385923D01*
X6837832Y2379218D01*
X6834631Y2377643D01*
X6834631Y2376220D01*
X6835495Y2376220D01*
X6845147Y2370023D01*
X6846824Y2369972D01*
X6857898Y2375865D01*
X6865721Y2380742D01*
X6876491Y2388362D01*
X6887718Y2397506D01*
X6907377Y2416759D01*
X6914642Y2425395D01*
X6917588Y2429205D01*
X6927596Y2443124D01*
X6935622Y2456535D01*
X6942328Y2469692D01*
X6942328Y2470200D01*
X6945375Y2476703D01*
X6949744Y2488184D01*
X6952234Y2495854D01*
X6954926Y2505913D01*
X6957923Y2521254D01*
X6959904Y2534310D01*
X6959904Y2540000D01*
X6961073Y2552801D01*
X6959853Y2575001D01*
X6957872Y2588412D01*
X6953605Y2608529D01*
X6949389Y2621991D01*
X6943902Y2636367D01*
X6940143Y2645206D01*
G37*
G36*
X6529273Y2643784D02*
G01*
X6529273Y2642514D01*
X6527850Y2639720D01*
X6522821Y2627223D01*
X6518046Y2613355D01*
X6514642Y2600350D01*
X6512153Y2588361D01*
X6511086Y2579776D01*
X6509715Y2564892D01*
X6509664Y2546248D01*
X6510680Y2535174D01*
X6512712Y2520340D01*
X6516014Y2504490D01*
X6518198Y2496464D01*
X6522821Y2482443D01*
X6527444Y2471064D01*
X6535216Y2455570D01*
X6546088Y2438298D01*
X6554927Y2426309D01*
X6559854Y2420569D01*
X6569303Y2410510D01*
X6585813Y2395169D01*
X6596532Y2386990D01*
X6605066Y2381097D01*
X6619544Y2372614D01*
X6626301Y2369464D01*
X6627622Y2369972D01*
X6627622Y2375001D01*
X6628638Y2378557D01*
X6631533Y2379522D01*
X6631533Y2380030D01*
X6605828Y2396540D01*
X6596329Y2403957D01*
X6584797Y2413965D01*
X6574332Y2424684D01*
X6567119Y2433066D01*
X6561226Y2440736D01*
X6554673Y2450084D01*
X6548018Y2460853D01*
X6541566Y2473350D01*
X6534556Y2489606D01*
X6531305Y2499207D01*
X6528714Y2507843D01*
X6525869Y2518410D01*
X6524345Y2526080D01*
X6522923Y2535428D01*
X6521450Y2548788D01*
X6521399Y2586024D01*
X6523431Y2606141D01*
X6526326Y2624124D01*
X6529882Y2640177D01*
X6530340Y2643784D01*
G37*
G36*
X6655765Y2628442D02*
G01*
X6646468Y2627071D01*
X6641084Y2625445D01*
X6637172Y2623515D01*
X6633006Y2620721D01*
X6633006Y2619248D01*
X6637324Y2613761D01*
X6641185Y2610358D01*
X6647332Y2606294D01*
X6653123Y2603957D01*
X6660642Y2602534D01*
X6668516Y2602534D01*
X6674866Y2603906D01*
X6679742Y2605532D01*
X6689547Y2610307D01*
X6690969Y2611678D01*
X6684619Y2617978D01*
X6678777Y2622092D01*
X6674205Y2624531D01*
X6669481Y2626156D01*
X6664299Y2627477D01*
G37*
G36*
X6808927Y2627884D02*
G01*
X6806031Y2627426D01*
X6800138Y2625953D01*
X6792925Y2622651D01*
X6785965Y2618028D01*
X6779107Y2611780D01*
X6780428Y2610205D01*
X6781292Y2610205D01*
X6788861Y2606598D01*
X6794246Y2604566D01*
X6803390Y2602534D01*
X6810908Y2602534D01*
X6818122Y2604008D01*
X6823811Y2606294D01*
X6829145Y2609748D01*
X6833717Y2613710D01*
X6837578Y2619298D01*
X6837578Y2620568D01*
X6830974Y2624429D01*
X6826554Y2626156D01*
X6821678Y2627528D01*
G37*
G36*
X6609283Y2618892D02*
G01*
X6604152Y2614472D01*
X6602679Y2611526D01*
X6602679Y2610612D01*
X6606540Y2614523D01*
X6609283Y2615082D01*
X6611518Y2615996D01*
X6611213Y2618638D01*
G37*
G36*
X6859219Y2618841D02*
G01*
X6858609Y2616708D01*
X6858609Y2616047D01*
X6862267Y2614930D01*
X6865010Y2613812D01*
X6866940Y2609900D01*
X6866940Y2608427D01*
X6865569Y2605836D01*
X6863537Y2604414D01*
X6863537Y2603449D01*
X6867804Y2598470D01*
X6870852Y2593746D01*
X6870852Y2592019D01*
X6871919Y2592019D01*
X6871512Y2606649D01*
X6869836Y2611729D01*
X6865518Y2615996D01*
X6863689Y2615996D01*
X6861048Y2618841D01*
G37*
G36*
X6856425Y2611729D02*
G01*
X6854799Y2610459D01*
X6854190Y2608478D01*
X6860590Y2605379D01*
X6861454Y2605887D01*
X6861962Y2607919D01*
X6858863Y2611170D01*
G37*
G36*
X6611213Y2611170D02*
G01*
X6608622Y2609037D01*
X6608013Y2607005D01*
X6608673Y2605430D01*
X6609842Y2605430D01*
X6614972Y2607970D01*
X6615480Y2609189D01*
X6614363Y2611170D01*
G37*
G36*
X6602272Y2608834D02*
G01*
X6600799Y2606649D01*
X6599123Y2601823D01*
X6598615Y2591511D01*
X6599174Y2591511D01*
X6602018Y2597505D01*
X6606082Y2602128D01*
X6606082Y2604262D01*
X6604304Y2607513D01*
G37*
G36*
X6617665Y2603500D02*
G01*
X6616141Y2603449D01*
X6612432Y2601112D01*
X6612432Y2599131D01*
X6613448Y2597302D01*
X6615175Y2597302D01*
X6618782Y2599690D01*
X6620306Y2599690D01*
X6620306Y2601061D01*
X6619138Y2603500D01*
G37*
G36*
X6851446Y2603500D02*
G01*
X6849313Y2601315D01*
X6849313Y2599893D01*
X6855053Y2596337D01*
X6856018Y2596337D01*
X6857085Y2598470D01*
X6857644Y2600401D01*
X6856933Y2601366D01*
X6852869Y2603500D01*
G37*
G36*
X6607759Y2597302D02*
G01*
X6603339Y2591765D01*
X6601764Y2588869D01*
X6600698Y2585618D01*
X6600748Y2581706D01*
X6602171Y2574036D01*
X6602831Y2569006D01*
X6603593Y2569006D01*
X6604253Y2572258D01*
X6603593Y2575001D01*
X6604660Y2584094D01*
X6605727Y2587447D01*
X6610654Y2594457D01*
X6609740Y2597048D01*
G37*
G36*
X6861048Y2596794D02*
G01*
X6861048Y2595524D01*
X6859117Y2593797D01*
X6859117Y2592730D01*
X6863638Y2587447D01*
X6865975Y2582367D01*
X6865975Y2565095D01*
X6866788Y2565603D01*
X6869480Y2583129D01*
X6868871Y2588310D01*
X6866483Y2592984D01*
X6863283Y2596794D01*
G37*
G36*
X6623812Y2596337D02*
G01*
X6618325Y2593695D01*
X6617766Y2592019D01*
X6618376Y2590139D01*
X6620357Y2589530D01*
X6624015Y2592019D01*
X6625081Y2592019D01*
X6625691Y2593543D01*
X6625691Y2594813D01*
X6624116Y2596337D01*
G37*
G36*
X6845604Y2595829D02*
G01*
X6843471Y2593594D01*
X6843471Y2592070D01*
X6847078Y2589123D01*
X6848602Y2589123D01*
X6851853Y2591054D01*
X6851446Y2592222D01*
X6846620Y2595829D01*
G37*
G36*
X6314186Y2593898D02*
G01*
X6310274Y2592171D01*
X6309106Y2590749D01*
X6308191Y2586990D01*
X6309258Y2583434D01*
X6311950Y2580487D01*
X6317386Y2580487D01*
X6320332Y2582011D01*
X6352489Y2581910D01*
X6365544Y2571648D01*
X6455105Y2571546D01*
X6460286Y2570835D01*
X6463588Y2571394D01*
X6464147Y2572816D01*
X6464808Y2581351D01*
X6462776Y2582418D01*
X6456324Y2582570D01*
X6453428Y2580487D01*
X6369253Y2580487D01*
X6355283Y2592019D01*
X6320383Y2592019D01*
X6316116Y2593898D01*
G37*
G36*
X7153706Y2593898D02*
G01*
X7152030Y2593848D01*
X7149084Y2592019D01*
X7112965Y2592019D01*
X7098487Y2580487D01*
X7016191Y2580487D01*
X7014006Y2582672D01*
X7006996Y2582621D01*
X7005320Y2581249D01*
X7005929Y2572105D01*
X7007606Y2570886D01*
X7014667Y2570886D01*
X7015276Y2571851D01*
X7102398Y2571851D01*
X7104430Y2572918D01*
X7115454Y2581757D01*
X7148525Y2582367D01*
X7152233Y2580487D01*
X7156958Y2580487D01*
X7160158Y2583129D01*
X7161123Y2587294D01*
X7160514Y2589377D01*
X7159396Y2591612D01*
X7155332Y2593898D01*
G37*
G36*
X6701688Y2593441D02*
G01*
X6697573Y2590546D01*
X6697014Y2589072D01*
X6699758Y2586228D01*
X6701281Y2586278D01*
X6703415Y2589377D01*
X6704685Y2592120D01*
X6702806Y2593441D01*
G37*
G36*
X6766763Y2593441D02*
G01*
X6766102Y2592781D01*
X6766102Y2590139D01*
X6768642Y2587193D01*
X6770268Y2587244D01*
X6771995Y2588514D01*
X6771995Y2589682D01*
X6769862Y2592730D01*
X6768795Y2593441D01*
G37*
G36*
X6628130Y2590088D02*
G01*
X6628130Y2588971D01*
X6626301Y2586990D01*
X6625031Y2583738D01*
X6626301Y2582976D01*
X6627520Y2583434D01*
X6631584Y2588158D01*
X6630974Y2590088D01*
G37*
G36*
X6837578Y2589123D02*
G01*
X6837578Y2586786D01*
X6842252Y2581859D01*
X6844436Y2583434D01*
X6844436Y2584704D01*
X6839762Y2589123D01*
G37*
G36*
X6777126Y2586228D02*
G01*
X6773976Y2584348D01*
X6773976Y2581605D01*
X6776008Y2579065D01*
X6777431Y2579065D01*
X6778244Y2581249D01*
X6779818Y2582519D01*
X6779818Y2584297D01*
X6777685Y2586228D01*
G37*
G36*
X6635851Y2585770D02*
G01*
X6633108Y2582926D01*
X6632448Y2579370D01*
X6634327Y2576880D01*
X6635699Y2576626D01*
X6637070Y2579776D01*
X6639814Y2582875D01*
X6639255Y2584551D01*
X6637731Y2585770D01*
G37*
G36*
X6689902Y2585313D02*
G01*
X6688683Y2583840D01*
X6691934Y2578557D01*
X6693509Y2578557D01*
X6695643Y2580792D01*
X6695643Y2583383D01*
X6692493Y2585262D01*
G37*
G36*
X6830974Y2584704D02*
G01*
X6829755Y2584246D01*
X6829755Y2582976D01*
X6833920Y2576576D01*
X6836613Y2577795D01*
X6836613Y2580386D01*
X6833412Y2584196D01*
G37*
G36*
X6645757Y2582418D02*
G01*
X6644843Y2580741D01*
X6644487Y2577490D01*
X6645554Y2577134D01*
X6646722Y2579573D01*
X6646722Y2582418D01*
G37*
G36*
X6785762Y2582418D02*
G01*
X6783730Y2579573D01*
X6782257Y2576118D01*
X6782816Y2575204D01*
X6785508Y2575204D01*
X6787591Y2576677D01*
X6788302Y2581148D01*
X6786473Y2582418D01*
G37*
G36*
X6680962Y2581452D02*
G01*
X6680962Y2578811D01*
X6683400Y2573782D01*
X6685127Y2573832D01*
X6686956Y2575153D01*
X6686346Y2577541D01*
X6685127Y2578811D01*
X6683400Y2581452D01*
G37*
G36*
X6821779Y2581452D02*
G01*
X6822389Y2578506D01*
X6823964Y2575204D01*
X6825284Y2575204D01*
X6826808Y2575814D01*
X6826808Y2577236D01*
X6825030Y2579776D01*
X6824370Y2581452D01*
G37*
G36*
X6794195Y2579573D02*
G01*
X6792772Y2577388D01*
X6791553Y2574696D01*
X6791553Y2571902D01*
X6793585Y2570835D01*
X6796125Y2571140D01*
X6797497Y2575763D01*
X6797192Y2579319D01*
G37*
G36*
X6672681Y2579065D02*
G01*
X6671564Y2576982D01*
X6672224Y2572105D01*
X6673392Y2571394D01*
X6677050Y2571394D01*
X6677050Y2574594D01*
X6675932Y2577846D01*
X6674408Y2579065D01*
G37*
G36*
X6662470Y2578557D02*
G01*
X6661912Y2577084D01*
X6661912Y2572461D01*
X6663334Y2571292D01*
X6666179Y2571902D01*
X6666687Y2574493D01*
X6666179Y2577388D01*
X6665214Y2578557D01*
G37*
G36*
X6803491Y2578557D02*
G01*
X6802424Y2576423D01*
X6801866Y2573223D01*
X6802424Y2570886D01*
X6806234Y2570886D01*
X6806387Y2574036D01*
X6806184Y2577388D01*
X6805168Y2578557D01*
G37*
G36*
X7148423Y2562250D02*
G01*
X7147102Y2562199D01*
X7142530Y2560929D01*
X7139279Y2558999D01*
X7136739Y2556306D01*
X7134301Y2551480D01*
X7016191Y2551226D01*
X7012635Y2552700D01*
X7008063Y2552700D01*
X7005929Y2550718D01*
X7005929Y2548890D01*
X7145832Y2548890D01*
X7147407Y2551226D01*
X7150303Y2551226D01*
X7151878Y2548890D01*
X7151217Y2546858D01*
X7148779Y2545994D01*
X7146899Y2546959D01*
X7145832Y2548890D01*
X7005929Y2548890D01*
X7005929Y2542794D01*
X7007199Y2541066D01*
X7014718Y2540965D01*
X7017461Y2543556D01*
X7132015Y2543860D01*
X7135469Y2543505D01*
X7137653Y2539187D01*
X7141311Y2536850D01*
X7147102Y2534818D01*
X7153148Y2535428D01*
X7156399Y2536799D01*
X7160209Y2540457D01*
X7162546Y2545537D01*
X7162546Y2551836D01*
X7161428Y2555494D01*
X7157618Y2559405D01*
X7155332Y2560828D01*
X7149744Y2562250D01*
G37*
G36*
X6318097Y2561742D02*
G01*
X6314643Y2560980D01*
X6310630Y2558948D01*
X6307937Y2555798D01*
X6306108Y2551633D01*
X6306108Y2547620D01*
X6317843Y2547620D01*
X6317843Y2550109D01*
X6319012Y2551226D01*
X6321094Y2551226D01*
X6322263Y2550109D01*
X6322263Y2547620D01*
X6321094Y2546451D01*
X6319012Y2546451D01*
X6317843Y2547620D01*
X6306108Y2547620D01*
X6306108Y2545080D01*
X6308598Y2540457D01*
X6311239Y2537714D01*
X6315862Y2535428D01*
X6323685Y2535428D01*
X6328918Y2537663D01*
X6332524Y2541828D01*
X6332524Y2542997D01*
X6334252Y2543657D01*
X6453174Y2543606D01*
X6455308Y2541168D01*
X6462522Y2541168D01*
X6463690Y2542336D01*
X6463690Y2551633D01*
X6460591Y2552700D01*
X6455816Y2552700D01*
X6453581Y2551226D01*
X6333794Y2551480D01*
X6332270Y2555392D01*
X6329578Y2558897D01*
X6325362Y2561336D01*
G37*
G36*
X6285534Y2533497D02*
G01*
X6280404Y2533446D01*
X6277457Y2532380D01*
X6273546Y2529789D01*
X6271920Y2528011D01*
X6269736Y2524150D01*
X6269736Y2517444D01*
X6271920Y2512923D01*
X6274968Y2510028D01*
X6279438Y2507894D01*
X6285941Y2507488D01*
X6291173Y2509926D01*
X6294170Y2512618D01*
X6294831Y2514346D01*
X6390843Y2514346D01*
X6392976Y2513228D01*
X6395923Y2510840D01*
X6411010Y2497378D01*
X6426149Y2498039D01*
X6437274Y2508808D01*
X6440220Y2510028D01*
X6466382Y2510129D01*
X6467449Y2510993D01*
X6466636Y2515057D01*
X6466636Y2519426D01*
X6465468Y2520543D01*
X6461353Y2520543D01*
X6453174Y2519172D01*
X6434632Y2519070D01*
X6431127Y2516530D01*
X6421831Y2507691D01*
X6415989Y2507488D01*
X6413855Y2507589D01*
X6402273Y2518257D01*
X6394348Y2524861D01*
X6300470Y2524963D01*
X6295085Y2525572D01*
X6293967Y2527808D01*
X6290665Y2531211D01*
G37*
G36*
X7184288Y2533497D02*
G01*
X7178954Y2531364D01*
X7174433Y2525115D01*
X7074103Y2524607D01*
X7064400Y2516022D01*
X7055510Y2507742D01*
X7049262Y2507284D01*
X7047026Y2508097D01*
X7035190Y2519121D01*
X7014768Y2519121D01*
X7007301Y2521102D01*
X7003948Y2520492D01*
X7003084Y2518308D01*
X7002729Y2509774D01*
X7030313Y2510129D01*
X7038492Y2502509D01*
X7042861Y2498750D01*
X7043572Y2497785D01*
X7059472Y2498140D01*
X7070344Y2508351D01*
X7077049Y2514092D01*
X7174382Y2514346D01*
X7179564Y2509164D01*
X7184237Y2507589D01*
X7189419Y2507589D01*
X7194600Y2509774D01*
X7196378Y2511196D01*
X7198512Y2514549D01*
X7199731Y2517902D01*
X7199731Y2523744D01*
X7197191Y2528468D01*
X7195058Y2530703D01*
X7192162Y2532278D01*
X7188250Y2533497D01*
G37*
G36*
X6625183Y2514803D02*
G01*
X6625183Y2512110D01*
X6625945Y2511196D01*
X6628282Y2505456D01*
X6633108Y2496362D01*
X6640830Y2483408D01*
X6641236Y2482443D01*
X6642353Y2483866D01*
X6641744Y2488590D01*
X6639966Y2491079D01*
X6631635Y2505913D01*
X6628942Y2513126D01*
X6627012Y2514803D01*
G37*
G36*
X6841693Y2514346D02*
G01*
X6840524Y2513177D01*
X6840524Y2511653D01*
X6838137Y2504338D01*
X6833463Y2496362D01*
X6829958Y2491079D01*
X6827774Y2486507D01*
X6827774Y2482189D01*
X6828536Y2482189D01*
X6832447Y2487676D01*
X6834733Y2491536D01*
X6842353Y2506421D01*
X6843674Y2510231D01*
X6844436Y2511145D01*
X6844436Y2514346D01*
G37*
G36*
X6634327Y2513431D02*
G01*
X6634988Y2510332D01*
X6639864Y2500274D01*
X6639864Y2499004D01*
X6640830Y2499004D01*
X6640728Y2510739D01*
X6640068Y2513126D01*
G37*
G36*
X6830720Y2513380D02*
G01*
X6829755Y2510891D01*
X6829755Y2499004D01*
X6830568Y2499004D01*
X6834276Y2507386D01*
X6835546Y2512161D01*
X6834530Y2513380D01*
G37*
G36*
X6318707Y2499461D02*
G01*
X6305092Y2498953D01*
X6305092Y2494026D01*
X6307124Y2477160D01*
X6310020Y2459431D01*
X6314186Y2438806D01*
X6319113Y2418638D01*
X6322974Y2405227D01*
X6329629Y2384602D01*
X6336995Y2365908D01*
X6338366Y2363165D01*
X6338925Y2360168D01*
X6335572Y2358237D01*
X6326581Y2352192D01*
X6324600Y2350262D01*
X6317894Y2352344D01*
X6310985Y2350770D01*
X6306261Y2347061D01*
X6303975Y2342438D01*
X6303924Y2334768D01*
X6305753Y2331364D01*
X6308750Y2327656D01*
X6313678Y2325420D01*
X6320790Y2325370D01*
X6325158Y2327402D01*
X6328613Y2330907D01*
X6330543Y2335987D01*
X6330543Y2341626D01*
X6343446Y2350770D01*
X6344259Y2350262D01*
X6353251Y2332329D01*
X6360871Y2318816D01*
X6367780Y2308047D01*
X6367780Y2307539D01*
X6371183Y2302865D01*
X6371132Y2302154D01*
X6366103Y2298395D01*
X6361887Y2299512D01*
X6358991Y2299512D01*
X6353556Y2297531D01*
X6350508Y2294483D01*
X6348679Y2290622D01*
X6348679Y2284272D01*
X6351422Y2279142D01*
X6356045Y2275687D01*
X6362192Y2274519D01*
X6367018Y2275687D01*
X6369608Y2276957D01*
X6373164Y2281021D01*
X6374688Y2286101D01*
X6374028Y2288997D01*
X6377736Y2292299D01*
X6378448Y2292299D01*
X6380683Y2288489D01*
X6381292Y2288489D01*
X6390284Y2297582D01*
X6390284Y2298344D01*
X6388760Y2300478D01*
X6389319Y2302154D01*
X6393281Y2304999D01*
X6410604Y2322271D01*
X6419291Y2333294D01*
X6423558Y2339746D01*
X6429400Y2350668D01*
X6429400Y2352243D01*
X6428841Y2352243D01*
X6413500Y2339594D01*
X6395415Y2324201D01*
X6384137Y2314194D01*
X6382054Y2311704D01*
X6378397Y2317496D01*
X6375095Y2323236D01*
X6358686Y2355392D01*
X6354419Y2364486D01*
X6350304Y2374087D01*
X6345326Y2386990D01*
X6340398Y2400909D01*
X6333083Y2426309D01*
X6326327Y2455113D01*
X6323228Y2471623D01*
X6319672Y2498242D01*
G37*
G36*
X7150862Y2499004D02*
G01*
X7149287Y2485085D01*
X7145121Y2458720D01*
X7142988Y2448153D01*
X7139736Y2434234D01*
X7134148Y2413863D01*
X7130186Y2401417D01*
X7126224Y2389886D01*
X7117892Y2369007D01*
X7112406Y2357272D01*
X7100366Y2333955D01*
X7095134Y2324658D01*
X7089140Y2314752D01*
X7089140Y2313990D01*
X7087666Y2312822D01*
X7064502Y2333244D01*
X7058507Y2338120D01*
X7039457Y2354376D01*
X7021068Y2369566D01*
X7016648Y2372918D01*
X7012787Y2371191D01*
X7013041Y2369667D01*
X7033158Y2351532D01*
X7044334Y2339492D01*
X7062927Y2318918D01*
X7074712Y2307386D01*
X7081316Y2301798D01*
X7081316Y2300579D01*
X7079843Y2299411D01*
X7079843Y2297836D01*
X7088479Y2288946D01*
X7089546Y2288946D01*
X7091273Y2291842D01*
X7092848Y2291842D01*
X7095591Y2289048D01*
X7095794Y2282494D01*
X7098284Y2278634D01*
X7100163Y2277059D01*
X7104278Y2274976D01*
X7110018Y2274468D01*
X7115251Y2276144D01*
X7119924Y2280716D01*
X7121550Y2286254D01*
X7121042Y2291232D01*
X7119061Y2294940D01*
X7116775Y2297074D01*
X7111949Y2299157D01*
X7103109Y2298547D01*
X7098893Y2302560D01*
X7098893Y2303678D01*
X7102602Y2308860D01*
X7114286Y2328011D01*
X7125919Y2350566D01*
X7127544Y2350516D01*
X7140041Y2341626D01*
X7139330Y2338578D01*
X7140143Y2334361D01*
X7141514Y2331212D01*
X7144613Y2327757D01*
X7149287Y2325370D01*
X7156703Y2325370D01*
X7161377Y2327757D01*
X7164374Y2331059D01*
X7166457Y2336444D01*
X7166457Y2339543D01*
X7165086Y2344572D01*
X7162190Y2348382D01*
X7159853Y2350211D01*
X7155180Y2351786D01*
X7150557Y2351786D01*
X7145985Y2350160D01*
X7134555Y2358745D01*
X7131608Y2360523D01*
X7132218Y2363622D01*
X7135723Y2372156D01*
X7142683Y2390851D01*
X7149388Y2411476D01*
X7156094Y2437384D01*
X7158634Y2448864D01*
X7161987Y2468524D01*
X7163562Y2479090D01*
X7165492Y2499004D01*
G37*
G36*
X6325362Y2495600D02*
G01*
X6324701Y2494991D01*
X6324701Y2491841D01*
X6325666Y2489403D01*
X6383274Y2489403D01*
X6387592Y2486355D01*
X6397345Y2477973D01*
X6401054Y2474214D01*
X6399580Y2471420D01*
X6399580Y2465425D01*
X6400271Y2463444D01*
X6412788Y2463444D01*
X6412788Y2467254D01*
X6414820Y2470708D01*
X6418884Y2473096D01*
X6423660Y2473096D01*
X6427216Y2471115D01*
X6429603Y2467559D01*
X6429654Y2462631D01*
X6427266Y2459278D01*
X6423355Y2456789D01*
X6419342Y2456789D01*
X6414770Y2459634D01*
X6412788Y2463444D01*
X6400271Y2463444D01*
X6401104Y2461006D01*
X6400596Y2460498D01*
X6368186Y2461209D01*
X6365189Y2465527D01*
X6361734Y2468727D01*
X6357315Y2470200D01*
X6351778Y2470200D01*
X6347256Y2468676D01*
X6342786Y2464816D01*
X6340652Y2460396D01*
X6340425Y2456992D01*
X6352082Y2456992D01*
X6352082Y2457907D01*
X6353708Y2459634D01*
X6354978Y2459634D01*
X6356604Y2459024D01*
X6357467Y2456789D01*
X6356604Y2454503D01*
X6354978Y2453894D01*
X6352844Y2455011D01*
X6352133Y2456078D01*
X6352082Y2456992D01*
X6340425Y2456992D01*
X6340246Y2454351D01*
X6341973Y2449880D01*
X6345986Y2445613D01*
X6351168Y2443378D01*
X6358229Y2443378D01*
X6363106Y2445613D01*
X6366357Y2448864D01*
X6368135Y2452776D01*
X6374282Y2453436D01*
X6406388Y2453436D01*
X6410706Y2449728D01*
X6414160Y2447645D01*
X6421018Y2446375D01*
X6426708Y2447239D01*
X6433007Y2450185D01*
X6437122Y2453894D01*
X6440170Y2459888D01*
X6441186Y2466238D01*
X6440576Y2469134D01*
X6449161Y2477414D01*
X6462928Y2477465D01*
X6468516Y2476347D01*
X6472986Y2476957D01*
X6474561Y2479294D01*
X6473342Y2486253D01*
X6472174Y2487523D01*
X6466840Y2488082D01*
X6463080Y2486507D01*
X6444742Y2486507D01*
X6435445Y2478379D01*
X6434632Y2478379D01*
X6432092Y2480665D01*
X6425742Y2483866D01*
X6416954Y2483866D01*
X6413500Y2482545D01*
X6407912Y2478836D01*
X6406845Y2478836D01*
X6396786Y2487218D01*
X6386271Y2495600D01*
G37*
G36*
X7082028Y2495600D02*
G01*
X7062724Y2478379D01*
X7061809Y2478379D01*
X7060488Y2479598D01*
X7056120Y2482494D01*
X7052665Y2483866D01*
X7045350Y2483866D01*
X7040930Y2482494D01*
X7035546Y2479598D01*
X7034225Y2478328D01*
X7024827Y2486253D01*
X7004710Y2486964D01*
X6996684Y2487523D01*
X6995566Y2485440D01*
X6995414Y2477160D01*
X7001713Y2476398D01*
X7006488Y2477414D01*
X7019696Y2477414D01*
X7025741Y2471826D01*
X7028891Y2469692D01*
X7028332Y2464206D01*
X7028746Y2462174D01*
X7039965Y2462174D01*
X7039965Y2467762D01*
X7041997Y2470454D01*
X7045807Y2473045D01*
X7051294Y2473096D01*
X7054596Y2470912D01*
X7056831Y2467102D01*
X7056831Y2463139D01*
X7053935Y2459228D01*
X7049465Y2456688D01*
X7045452Y2457297D01*
X7042708Y2458720D01*
X7039965Y2462174D01*
X7028746Y2462174D01*
X7029500Y2458720D01*
X7031044Y2455976D01*
X7113117Y2455976D01*
X7113117Y2457907D01*
X7114743Y2459634D01*
X7116775Y2459634D01*
X7117842Y2458923D01*
X7119061Y2456738D01*
X7117486Y2454402D01*
X7114895Y2454402D01*
X7113117Y2455976D01*
X7031044Y2455976D01*
X7031990Y2454351D01*
X7036562Y2449728D01*
X7039965Y2448204D01*
X7045147Y2446578D01*
X7052665Y2447137D01*
X7056120Y2448407D01*
X7059015Y2449982D01*
X7062419Y2453436D01*
X7101890Y2453436D01*
X7103821Y2449068D01*
X7108545Y2444546D01*
X7112812Y2443276D01*
X7117334Y2442768D01*
X7122668Y2444292D01*
X7126833Y2447747D01*
X7129221Y2451760D01*
X7130237Y2458059D01*
X7128459Y2463342D01*
X7124700Y2467864D01*
X7120229Y2469896D01*
X7114031Y2470302D01*
X7109459Y2469134D01*
X7106005Y2467152D01*
X7102856Y2463749D01*
X7102856Y2462682D01*
X7100925Y2461006D01*
X7068921Y2460650D01*
X7068108Y2461158D01*
X7069581Y2463952D01*
X7070191Y2470962D01*
X7068667Y2473807D01*
X7069886Y2476093D01*
X7081520Y2486660D01*
X7085888Y2489403D01*
X7144816Y2489403D01*
X7145172Y2494686D01*
X7144816Y2495600D01*
G37*
G36*
X6986016Y2456789D02*
G01*
X6984339Y2454960D01*
X6982459Y2450033D01*
X6982459Y2447239D01*
X6990892Y2444699D01*
X6992467Y2444648D01*
X6996988Y2445359D01*
X6997649Y2444292D01*
X7024776Y2444292D01*
X7051192Y2420874D01*
X7053935Y2418791D01*
X7099147Y2418791D01*
X7108444Y2418181D01*
X7108799Y2415794D01*
X7112762Y2411780D01*
X7112203Y2407716D01*
X7110882Y2406904D01*
X7098436Y2407259D01*
X7094524Y2409799D01*
X7089241Y2409799D01*
X7086650Y2407767D01*
X7085228Y2405024D01*
X7085228Y2402230D01*
X7087311Y2398369D01*
X7089597Y2397150D01*
X7093864Y2397150D01*
X7098284Y2400249D01*
X7114844Y2399842D01*
X7119569Y2400350D01*
X7118146Y2412441D01*
X7120534Y2416149D01*
X7121042Y2421636D01*
X7117689Y2425293D01*
X7056983Y2425090D01*
X7026554Y2451049D01*
X7004202Y2451100D01*
X6998614Y2451811D01*
X6996328Y2453894D01*
X6993381Y2453894D01*
X6988759Y2456789D01*
G37*
G36*
X6484162Y2456281D02*
G01*
X6479590Y2455722D01*
X6477000Y2453894D01*
X6474866Y2453894D01*
X6472174Y2452522D01*
X6470904Y2451049D01*
X6443116Y2451049D01*
X6425742Y2436469D01*
X6425285Y2435860D01*
X6412534Y2425141D01*
X6351676Y2425395D01*
X6349136Y2423007D01*
X6348018Y2419299D01*
X6349288Y2415794D01*
X6351371Y2412796D01*
X6350812Y2400909D01*
X6351168Y2400198D01*
X6372402Y2400198D01*
X6377787Y2396794D01*
X6382156Y2397404D01*
X6384848Y2399284D01*
X6386372Y2402281D01*
X6386372Y2404567D01*
X6384950Y2407158D01*
X6382004Y2409901D01*
X6376720Y2410002D01*
X6373571Y2407412D01*
X6357569Y2407412D01*
X6357010Y2408885D01*
X6357010Y2412136D01*
X6358991Y2412746D01*
X6360566Y2415082D01*
X6361176Y2418181D01*
X6366052Y2418740D01*
X6414871Y2418892D01*
X6416954Y2420264D01*
X6444589Y2444292D01*
X6472377Y2444292D01*
X6473545Y2445715D01*
X6476796Y2444191D01*
X6486753Y2447340D01*
X6487261Y2448610D01*
X6485534Y2454960D01*
G37*
G36*
X6496710Y2429916D02*
G01*
X6495034Y2428951D01*
X6492036Y2424684D01*
X6473698Y2415743D01*
X6461963Y2410663D01*
X6436512Y2400604D01*
X6429654Y2397709D01*
X6419900Y2392883D01*
X6414414Y2388717D01*
X6390487Y2388717D01*
X6371691Y2370378D01*
X6371691Y2368804D01*
X6373418Y2365908D01*
X6375450Y2359202D01*
X6376568Y2353411D01*
X6376568Y2351481D01*
X6377838Y2349754D01*
X6390538Y2349042D01*
X6395212Y2347214D01*
X6396888Y2348280D01*
X6397193Y2350871D01*
X6401917Y2354173D01*
X6402984Y2356815D01*
X6403543Y2359304D01*
X6402476Y2363317D01*
X6398361Y2366264D01*
X6393383Y2365857D01*
X6390386Y2363774D01*
X6388811Y2360472D01*
X6388811Y2356408D01*
X6383274Y2357069D01*
X6382562Y2357526D01*
X6381902Y2363470D01*
X6379921Y2369108D01*
X6381699Y2371191D01*
X6392418Y2381402D01*
X6394907Y2381910D01*
X6417208Y2382012D01*
X6421577Y2385263D01*
X6441897Y2395321D01*
X6444335Y2395982D01*
X6442151Y2394407D01*
X6442151Y2392781D01*
X6447282Y2390394D01*
X6460998Y2382621D01*
X6506057Y2358186D01*
X6532168Y2345537D01*
X6532626Y2345537D01*
X6559194Y2333548D01*
X6559651Y2333548D01*
X6564274Y2331516D01*
X6572402Y2328722D01*
X6580886Y2325522D01*
X6594602Y2321001D01*
X6597294Y2320493D01*
X6597294Y2321509D01*
X6590792Y2324658D01*
X6589775Y2326233D01*
X6592976Y2330094D01*
X6592620Y2332837D01*
X6590944Y2333142D01*
X6586220Y2328113D01*
X6577482Y2332228D01*
X6576263Y2333142D01*
X6580631Y2338425D01*
X6580631Y2340051D01*
X6578142Y2342642D01*
X6576263Y2342642D01*
X6576212Y2341930D01*
X6570624Y2335834D01*
X6565138Y2338222D01*
X6553504Y2344826D01*
X6551777Y2346147D01*
X6560566Y2355138D01*
X6560566Y2355900D01*
X6555282Y2361031D01*
X6552488Y2359304D01*
X6543497Y2350719D01*
X6531457Y2357678D01*
X6522364Y2363419D01*
X6522669Y2363978D01*
X6530949Y2371801D01*
X6535216Y2373884D01*
X6534708Y2377897D01*
X6533845Y2381808D01*
X6533134Y2382926D01*
X6530238Y2382926D01*
X6515201Y2369007D01*
X6507480Y2373477D01*
X6497726Y2379827D01*
X6495999Y2380488D01*
X6495999Y2381859D01*
X6507988Y2392781D01*
X6515607Y2399233D01*
X6516420Y2399233D01*
X6516979Y2400655D01*
X6513931Y2406446D01*
X6512509Y2406446D01*
X6505041Y2399487D01*
X6488176Y2385263D01*
X6483502Y2387904D01*
X6465671Y2399182D01*
X6462674Y2400706D01*
X6462674Y2401671D01*
X6464401Y2402281D01*
X6469786Y2405329D01*
X6488176Y2414574D01*
X6494780Y2418588D01*
X6499656Y2421280D01*
X6501841Y2421280D01*
X6501790Y2423464D01*
X6498691Y2429713D01*
G37*
G36*
X6971639Y2429916D02*
G01*
X6968845Y2425598D01*
X6967626Y2422753D01*
X6968236Y2421280D01*
X6970268Y2421280D01*
X6974128Y2419350D01*
X6980732Y2415184D01*
X7003237Y2403094D01*
X7004964Y2402636D01*
X7004964Y2401163D01*
X7001764Y2399588D01*
X6984949Y2389073D01*
X6979564Y2386177D01*
X6977227Y2387955D01*
X6957669Y2405938D01*
X6956247Y2405888D01*
X6952996Y2401519D01*
X6952488Y2400249D01*
X6957212Y2396337D01*
X6972706Y2382215D01*
X6955790Y2371598D01*
X6953554Y2370429D01*
X6939635Y2383434D01*
X6936435Y2383434D01*
X6934453Y2381504D01*
X6934453Y2374239D01*
X6935419Y2372512D01*
X6939838Y2371852D01*
X6939838Y2370531D01*
X6944512Y2365552D01*
X6944512Y2364587D01*
X6933234Y2357831D01*
X6924243Y2352751D01*
X6923430Y2352751D01*
X6917131Y2359558D01*
X6916318Y2360879D01*
X6914642Y2360879D01*
X6909053Y2356002D01*
X6909053Y2354427D01*
X6914896Y2348636D01*
X6914896Y2347620D01*
X6898386Y2338832D01*
X6895541Y2338832D01*
X6892188Y2342184D01*
X6890664Y2342184D01*
X6885787Y2338070D01*
X6880656Y2334310D01*
X6880656Y2332126D01*
X6882333Y2332075D01*
X6906818Y2339695D01*
X6918096Y2343505D01*
X6926630Y2346655D01*
X6947458Y2355088D01*
X6965543Y2362911D01*
X6990537Y2375154D01*
X7006640Y2383434D01*
X7015988Y2388514D01*
X7025284Y2393137D01*
X7026808Y2394458D01*
X7028434Y2394458D01*
X7035546Y2390800D01*
X7049109Y2384704D01*
X7052208Y2381554D01*
X7077151Y2382113D01*
X7088936Y2370734D01*
X7090156Y2369159D01*
X7088225Y2365908D01*
X7087514Y2358745D01*
X7086701Y2356561D01*
X7082281Y2356561D01*
X7082281Y2359456D01*
X7080910Y2362657D01*
X7078116Y2365197D01*
X7074865Y2366264D01*
X7070445Y2365603D01*
X7067346Y2362911D01*
X7067346Y2356815D01*
X7069734Y2353360D01*
X7072782Y2351430D01*
X7073696Y2347671D01*
X7076389Y2347366D01*
X7079234Y2349347D01*
X7089952Y2349347D01*
X7092899Y2350363D01*
X7093915Y2353919D01*
X7095134Y2360625D01*
X7097064Y2366416D01*
X7098487Y2369159D01*
X7097979Y2371191D01*
X7079996Y2388717D01*
X7054799Y2388717D01*
X7050735Y2391968D01*
X7044334Y2395321D01*
X7029196Y2402027D01*
X7022795Y2404160D01*
X6995922Y2415641D01*
X6980732Y2423363D01*
X6977075Y2425598D01*
X6975652Y2428341D01*
X6973163Y2429916D01*
G37*
G36*
X7040422Y2383383D02*
G01*
X7034784Y2380843D01*
X7035038Y2378913D01*
X7041388Y2373833D01*
X7059879Y2362809D01*
X7061708Y2362809D01*
X7061708Y2363876D01*
X7058507Y2366873D01*
X7045350Y2377643D01*
X7042200Y2380488D01*
X7041896Y2383180D01*
G37*
G36*
X6428689Y2382926D02*
G01*
X6427368Y2380284D01*
X6410807Y2365552D01*
X6410807Y2363673D01*
X6413042Y2364384D01*
X6422339Y2370277D01*
X6428028Y2373579D01*
X6435547Y2379675D01*
X6435801Y2380792D01*
X6431330Y2382926D01*
G37*
G36*
X6642557Y2368651D02*
G01*
X6641795Y2367889D01*
X6641795Y2333142D01*
X6642709Y2332583D01*
X6648500Y2331974D01*
X6649161Y2335123D01*
X6649161Y2345588D01*
X6650481Y2346045D01*
X6657746Y2344572D01*
X6660235Y2344572D01*
X6661403Y2343404D01*
X6661403Y2329180D01*
X6667753Y2327960D01*
X6668617Y2328976D01*
X6669074Y2363774D01*
X6668008Y2364587D01*
X6662318Y2366670D01*
X6661403Y2366111D01*
X6661403Y2351176D01*
X6652818Y2352751D01*
X6649872Y2353513D01*
X6649415Y2367330D01*
G37*
G36*
X6717436Y2358948D02*
G01*
X6714388Y2357170D01*
X6712305Y2354529D01*
X6712305Y2328519D01*
X6714591Y2324201D01*
X6718909Y2321661D01*
X6734708Y2320442D01*
X6738264Y2322626D01*
X6739686Y2325370D01*
X6739686Y2331567D01*
X6738924Y2332024D01*
X6731863Y2332736D01*
X6731863Y2329332D01*
X6731253Y2327808D01*
X6726123Y2327808D01*
X6720890Y2328773D01*
X6720128Y2329942D01*
X6720382Y2351532D01*
X6730644Y2351227D01*
X6731863Y2349652D01*
X6731863Y2345994D01*
X6739432Y2345791D01*
X6739788Y2350109D01*
X6738670Y2353665D01*
X6736181Y2356612D01*
X6733590Y2357882D01*
X6725361Y2358948D01*
G37*
G36*
X6748678Y2357069D02*
G01*
X6748018Y2356408D01*
X6748018Y2323744D01*
X6748627Y2318664D01*
X6755180Y2318664D01*
X6756196Y2331212D01*
X6757416Y2332329D01*
X6760006Y2329281D01*
X6765290Y2318918D01*
X6766712Y2318105D01*
X6773214Y2318004D01*
X6773519Y2319477D01*
X6762191Y2340254D01*
X6762191Y2341829D01*
X6772097Y2354630D01*
X6771436Y2355596D01*
X6763613Y2355596D01*
X6761480Y2353360D01*
X6756755Y2346502D01*
X6756095Y2346502D01*
X6755841Y2356154D01*
X6755282Y2357069D01*
G37*
G36*
X6828993Y2356866D02*
G01*
X6824167Y2356510D01*
X6822795Y2355392D01*
X6823456Y2338679D01*
X6818223Y2342692D01*
X6809740Y2350871D01*
X6808673Y2350262D01*
X6808876Y2324201D01*
X6809282Y2318664D01*
X6816039Y2318664D01*
X6816598Y2332837D01*
X6816902Y2333142D01*
X6819544Y2330450D01*
X6827367Y2320696D01*
X6830314Y2320290D01*
X6830720Y2321306D01*
X6830466Y2356815D01*
G37*
G36*
X6692798Y2355596D02*
G01*
X6686702Y2344826D01*
X6683044Y2339543D01*
X6680326Y2334615D01*
X6690715Y2334615D01*
X6691375Y2338120D01*
X6692392Y2339949D01*
X6694678Y2335225D01*
X6694271Y2334209D01*
X6690715Y2334615D01*
X6680326Y2334615D01*
X6676593Y2327757D01*
X6676593Y2326487D01*
X6681216Y2325928D01*
X6683857Y2325268D01*
X6685991Y2328773D01*
X6695389Y2328164D01*
X6698437Y2326944D01*
X6699148Y2323490D01*
X6702755Y2323439D01*
X6706412Y2322880D01*
X6706971Y2324354D01*
X6698996Y2342896D01*
X6695744Y2349703D01*
X6693458Y2355596D01*
G37*
G36*
X6779818Y2353716D02*
G01*
X6779310Y2352497D01*
X6779564Y2318461D01*
X6799173Y2318156D01*
X6801358Y2318715D01*
X6801358Y2324912D01*
X6788708Y2324912D01*
X6787184Y2325471D01*
X6787184Y2331974D01*
X6796227Y2332634D01*
X6798411Y2333193D01*
X6798411Y2338832D01*
X6787642Y2338832D01*
X6787032Y2340305D01*
X6787896Y2347163D01*
X6799630Y2347061D01*
X6801408Y2347976D01*
X6801103Y2353462D01*
G37*
G36*
X6449669Y2349398D02*
G01*
X6449110Y2349347D01*
X6448450Y2345283D01*
X6447536Y2332837D01*
X6445605Y2313635D01*
X6443573Y2297328D01*
X6437037Y2237079D01*
X6454851Y2237079D01*
X6454851Y2241143D01*
X6455765Y2246985D01*
X6458305Y2268931D01*
X6459880Y2280564D01*
X6460337Y2281986D01*
X6461201Y2279802D01*
X6466332Y2244598D01*
X6466382Y2239365D01*
X6454851Y2237079D01*
X6437037Y2237079D01*
X6432854Y2202891D01*
X6432245Y2194153D01*
X6433261Y2193493D01*
X6437020Y2194915D01*
X6446774Y2197862D01*
X6448958Y2198928D01*
X6449923Y2203856D01*
X6450990Y2212492D01*
X6451447Y2214524D01*
X6455613Y2215184D01*
X6470446Y2218537D01*
X6471513Y2213610D01*
X6471564Y2210562D01*
X6472783Y2205990D01*
X6473698Y2205126D01*
X6484010Y2206955D01*
X6490106Y2208377D01*
X6490106Y2210562D01*
X6481826Y2264257D01*
X6480759Y2269998D01*
X6472529Y2326589D01*
X6471462Y2336190D01*
X6470548Y2339543D01*
X6450228Y2349398D01*
G37*
G36*
X7009130Y2342032D02*
G01*
X7003745Y2341321D01*
X6988048Y2336850D01*
X6981952Y2334412D01*
X6978091Y2331669D01*
X6973265Y2325979D01*
X6969709Y2318461D01*
X6968032Y2312670D01*
X6967677Y2276246D01*
X6968794Y2269845D01*
X6971893Y2264816D01*
X6975348Y2262124D01*
X6981190Y2260600D01*
X7001256Y2257856D01*
X7007402Y2255875D01*
X7008368Y2253386D01*
X7008368Y2229866D01*
X7006844Y2226665D01*
X7002729Y2224786D01*
X6994906Y2226056D01*
X6991502Y2227224D01*
X6989368Y2229104D01*
X6988302Y2233269D01*
X6988302Y2240026D01*
X6987133Y2240026D01*
X6969455Y2234184D01*
X6967778Y2232710D01*
X6967778Y2226868D01*
X6969048Y2221077D01*
X6970877Y2217267D01*
X6974484Y2211984D01*
X6977786Y2208784D01*
X6981698Y2206802D01*
X6989064Y2205024D01*
X7004456Y2202637D01*
X7012736Y2202637D01*
X7017918Y2204516D01*
X7021626Y2207564D01*
X7025284Y2212492D01*
X7027367Y2216810D01*
X7028434Y2220061D01*
X7028434Y2266899D01*
X7026554Y2271826D01*
X7023912Y2275535D01*
X7018883Y2277922D01*
X7011060Y2279243D01*
X7001256Y2280412D01*
X6993432Y2281732D01*
X6989825Y2282748D01*
X6988302Y2284222D01*
X6988302Y2310180D01*
X6990384Y2313736D01*
X6993178Y2315362D01*
X6997852Y2316683D01*
X7003237Y2317292D01*
X7006640Y2315514D01*
X7008317Y2312212D01*
X7008774Y2299868D01*
X7009638Y2299004D01*
X7024268Y2302764D01*
X7028180Y2304084D01*
X7028484Y2320340D01*
X7027316Y2325624D01*
X7023201Y2334310D01*
X7017816Y2339695D01*
X7013498Y2341626D01*
G37*
G36*
X6948931Y2334869D02*
G01*
X6928459Y2329230D01*
X6927646Y2328722D01*
X6927646Y2306574D01*
X6933184Y2307285D01*
X6935571Y2308148D01*
X6935978Y2307742D01*
X6935317Y2305202D01*
X6927138Y2293061D01*
X6927138Y2291384D01*
X6928053Y2290876D01*
X6933996Y2292248D01*
X6940346Y2295144D01*
X6949033Y2303576D01*
X6951725Y2308148D01*
X6951827Y2334768D01*
G37*
G36*
X6504787Y2325827D02*
G01*
X6504787Y2210308D01*
X6516776Y2210308D01*
X6533896Y2208834D01*
X6554470Y2206040D01*
X6562801Y2204669D01*
X6563512Y2205329D01*
X6563563Y2223414D01*
X6562801Y2224125D01*
X6540042Y2227580D01*
X6524142Y2229662D01*
X6523380Y2230678D01*
X6523380Y2319528D01*
X6507988Y2325268D01*
G37*
G36*
X6856628Y2325370D02*
G01*
X6857238Y2324455D01*
X6858152Y2324455D01*
X6858152Y2325370D01*
G37*
G36*
X6612432Y2323490D02*
G01*
X6612432Y2322169D01*
X6609435Y2318105D01*
X6610807Y2316734D01*
X6617512Y2314346D01*
X6618630Y2314346D01*
X6621729Y2318715D01*
X6621729Y2319528D01*
X6618579Y2321001D01*
X6614871Y2323490D01*
G37*
G36*
X6903161Y2318664D02*
G01*
X6883603Y2313889D01*
X6883501Y2253691D01*
X6880250Y2262581D01*
X6865315Y2308555D01*
X6864603Y2309723D01*
X6843014Y2305354D01*
X6841998Y2304745D01*
X6841998Y2193137D01*
X6843217Y2192731D01*
X6852005Y2194001D01*
X6860336Y2195576D01*
X6862064Y2196439D01*
X6862064Y2257806D01*
X6862825Y2257806D01*
X6881063Y2203348D01*
X6882739Y2199182D01*
X6886752Y2199792D01*
X6900468Y2202738D01*
X6903059Y2203653D01*
X6903720Y2218232D01*
G37*
G36*
X6580631Y2303322D02*
G01*
X6580682Y2202383D01*
X6581444Y2201214D01*
X6612940Y2195880D01*
X6640575Y2191562D01*
X6647891Y2190699D01*
X6648703Y2191461D01*
X6648450Y2209088D01*
X6599986Y2217318D01*
X6599986Y2237892D01*
X6609283Y2236673D01*
X6622491Y2234590D01*
X6626402Y2234539D01*
X6626656Y2252218D01*
X6625742Y2253132D01*
X6602933Y2256840D01*
X6599986Y2257602D01*
X6599986Y2280056D01*
X6611213Y2278837D01*
X6632295Y2275992D01*
X6647434Y2274824D01*
X6648196Y2284882D01*
X6647942Y2293467D01*
X6644487Y2294178D01*
X6626910Y2296109D01*
X6609994Y2298496D01*
X6595109Y2300884D01*
X6583070Y2303322D01*
G37*
G36*
X6420764Y2302357D02*
G01*
X6408369Y2288895D01*
X6407150Y2286812D01*
X6406642Y2267762D01*
X6403238Y2272639D01*
X6398818Y2278329D01*
X6397498Y2278888D01*
X6394450Y2276246D01*
X6387744Y2269236D01*
X6391249Y2263546D01*
X6406896Y2239924D01*
X6407150Y2138629D01*
X6408978Y2138273D01*
X6418884Y2141321D01*
X6423660Y2143201D01*
X6425336Y2143201D01*
X6425996Y2143810D01*
X6465112Y2156764D01*
X6475679Y2147214D01*
X6485432Y2139645D01*
X6490665Y2134819D01*
X6492544Y2130856D01*
X6496100Y2129180D01*
X6500926Y2129637D01*
X6503416Y2131923D01*
X6504787Y2134514D01*
X6504787Y2138883D01*
X6503111Y2141423D01*
X6494780Y2147671D01*
X6479336Y2160524D01*
X6479336Y2161336D01*
X6514338Y2172004D01*
X6519468Y2173986D01*
X6519468Y2187295D01*
X6517741Y2187295D01*
X6495745Y2181555D01*
X6460032Y2170887D01*
X6433108Y2161946D01*
X6423406Y2158492D01*
X6422085Y2158949D01*
X6422085Y2292096D01*
X6421424Y2302357D01*
G37*
G36*
X7047179Y2302357D02*
G01*
X7046569Y2301748D01*
X7046569Y2158898D01*
X7044334Y2159406D01*
X7012025Y2170023D01*
X7004710Y2172055D01*
X6986574Y2177643D01*
X6953808Y2186889D01*
X6949897Y2187041D01*
X6949897Y2173732D01*
X6951370Y2172970D01*
X6977532Y2165146D01*
X6989775Y2161286D01*
X6989775Y2160524D01*
X6965340Y2140712D01*
X6964222Y2137054D01*
X6964883Y2132787D01*
X6968286Y2129536D01*
X6974078Y2129536D01*
X6976821Y2131517D01*
X6978903Y2135733D01*
X6989521Y2144877D01*
X6999325Y2152904D01*
X7003440Y2156764D01*
X7044334Y2143709D01*
X7060438Y2138375D01*
X7061453Y2139391D01*
X7061758Y2239060D01*
X7066788Y2246985D01*
X7073341Y2256688D01*
X7080250Y2268118D01*
X7080961Y2269845D01*
X7071004Y2279345D01*
X7070191Y2279345D01*
X7062622Y2268575D01*
X7061708Y2268270D01*
X7061708Y2287473D01*
X7047636Y2302357D01*
G37*
G36*
X6819646Y2301443D02*
G01*
X6819239Y2301036D01*
X6804050Y2298649D01*
X6783984Y2296160D01*
X6762191Y2293772D01*
X6755079Y2293772D01*
X6753910Y2292604D01*
X6753910Y2185060D01*
X6755130Y2183638D01*
X6784949Y2185822D01*
X6804558Y2187752D01*
X6821119Y2189734D01*
X6821931Y2190242D01*
X6821931Y2208530D01*
X6813346Y2207971D01*
X6806031Y2206904D01*
X6783476Y2204821D01*
X6773722Y2204821D01*
X6773722Y2229256D01*
X6801256Y2232507D01*
X6801815Y2235962D01*
X6801866Y2251354D01*
X6800850Y2252370D01*
X6777126Y2249525D01*
X6773722Y2249881D01*
X6773722Y2275281D01*
X6792823Y2277516D01*
X6806031Y2279446D01*
X6819036Y2281834D01*
X6820814Y2282342D01*
X6821424Y2289556D01*
X6821424Y2295550D01*
X6820814Y2301443D01*
G37*
G36*
X6668363Y2292451D02*
G01*
X6667855Y2291588D01*
X6667398Y2188718D01*
X6668516Y2187397D01*
X6677304Y2186838D01*
X6688074Y2185771D01*
X6716471Y2183688D01*
X6734098Y2183688D01*
X6734352Y2201316D01*
X6733235Y2202637D01*
X6720840Y2202637D01*
X6703263Y2203602D01*
X6687413Y2204720D01*
X6686753Y2216302D01*
X6687108Y2227326D01*
X6715099Y2227122D01*
X6715709Y2233574D01*
X6715709Y2245207D01*
X6714337Y2246325D01*
X6688277Y2247087D01*
X6687413Y2247950D01*
X6687312Y2271928D01*
X6722567Y2271623D01*
X6732371Y2272538D01*
X6733031Y2273147D01*
X6733438Y2288895D01*
X6732879Y2291181D01*
X6676339Y2291842D01*
G37*
G36*
X6604203Y2178050D02*
G01*
X6603136Y2177034D01*
X6603136Y2173376D01*
X6602069Y2173376D01*
X6596176Y2174900D01*
X6594856Y2174392D01*
X6594856Y2166416D01*
X6595567Y2165400D01*
X6598920Y2164283D01*
X6601206Y2164283D01*
X6603136Y2162352D01*
X6603136Y2154224D01*
X6601206Y2154224D01*
X6595262Y2155850D01*
X6594348Y2154428D01*
X6594348Y2147671D01*
X6595567Y2146198D01*
X6601256Y2144928D01*
X6602933Y2143760D01*
X6603898Y2137206D01*
X6608775Y2136140D01*
X6609994Y2136597D01*
X6609994Y2141728D01*
X6616953Y2139746D01*
X6618325Y2140254D01*
X6618325Y2148941D01*
X6616141Y2149856D01*
X6610502Y2151380D01*
X6610248Y2160676D01*
X6611162Y2161336D01*
X6613194Y2160574D01*
X6618325Y2159914D01*
X6618274Y2168855D01*
X6616649Y2170023D01*
X6613702Y2170023D01*
X6610553Y2171903D01*
X6610248Y2176475D01*
G37*
G36*
X6547967Y2175814D02*
G01*
X6547408Y2174443D01*
X6549085Y2173071D01*
X6554470Y2170582D01*
X6560312Y2168550D01*
X6567678Y2166569D01*
X6574028Y2165248D01*
X6576720Y2165248D01*
X6576720Y2166213D01*
X6570370Y2168296D01*
X6550050Y2175764D01*
G37*
G36*
X6864959Y2175814D02*
G01*
X6860844Y2175713D01*
X6857898Y2174697D01*
X6857187Y2173630D01*
X6857136Y2170125D01*
X6855764Y2168702D01*
X6850938Y2168093D01*
X6849211Y2166874D01*
X6848754Y2158746D01*
X6849618Y2157577D01*
X6856323Y2159457D01*
X6857136Y2158949D01*
X6857136Y2149551D01*
X6855917Y2148636D01*
X6850532Y2147468D01*
X6849313Y2146706D01*
X6849059Y2137968D01*
X6849668Y2137410D01*
X6856120Y2138984D01*
X6857695Y2138375D01*
X6857390Y2133854D01*
X6862775Y2134666D01*
X6863994Y2135632D01*
X6864045Y2139594D01*
X6864959Y2141016D01*
X6872579Y2143404D01*
X6872833Y2151837D01*
X6871462Y2152345D01*
X6866229Y2151278D01*
X6864248Y2151075D01*
X6864451Y2160117D01*
X6865264Y2160930D01*
X6871106Y2162048D01*
X6872325Y2162962D01*
X6872325Y2171395D01*
X6871309Y2172055D01*
X6868668Y2171039D01*
X6864959Y2170480D01*
G37*
G36*
X6918096Y2175306D02*
G01*
X6915658Y2173833D01*
X6892391Y2166112D01*
X6892391Y2165146D01*
X6898487Y2165604D01*
X6908800Y2168144D01*
X6914642Y2170176D01*
X6920839Y2173071D01*
X6920534Y2175052D01*
G37*
G36*
X6649415Y2171954D02*
G01*
X6645402Y2170023D01*
X6642912Y2167382D01*
X6641795Y2164130D01*
X6641795Y2137918D01*
X6643776Y2132888D01*
X6646824Y2129231D01*
X6651345Y2126996D01*
X6658457Y2125776D01*
X6663639Y2126894D01*
X6667144Y2129739D01*
X6669125Y2133854D01*
X6669836Y2139238D01*
X6668008Y2140153D01*
X6662623Y2141372D01*
X6660184Y2141016D01*
X6659372Y2135936D01*
X6657035Y2134870D01*
X6652564Y2136546D01*
X6651142Y2138578D01*
X6651142Y2160422D01*
X6653072Y2162352D01*
X6655562Y2162352D01*
X6658813Y2161032D01*
X6660438Y2157069D01*
X6660438Y2154783D01*
X6669582Y2153615D01*
X6670192Y2154631D01*
X6668109Y2164029D01*
X6665112Y2167890D01*
X6662674Y2169820D01*
X6657238Y2171903D01*
G37*
G36*
X6811619Y2170988D02*
G01*
X6807962Y2170938D01*
X6803288Y2169160D01*
X6799935Y2166620D01*
X6797395Y2162454D01*
X6795871Y2155088D01*
X6796735Y2154326D01*
X6805015Y2155139D01*
X6806234Y2155596D01*
X6806234Y2158593D01*
X6807758Y2161387D01*
X6812178Y2161387D01*
X6814108Y2160422D01*
X6814108Y2155647D01*
X6812889Y2153716D01*
X6807250Y2152599D01*
X6807250Y2146249D01*
X6808419Y2145080D01*
X6812534Y2145080D01*
X6814108Y2143607D01*
X6814108Y2136444D01*
X6812127Y2134565D01*
X6807453Y2134565D01*
X6806234Y2135682D01*
X6806234Y2139442D01*
X6796735Y2138273D01*
X6796024Y2137257D01*
X6796582Y2134311D01*
X6798056Y2129637D01*
X6801205Y2126488D01*
X6806895Y2124862D01*
X6811975Y2125421D01*
X6817004Y2127046D01*
X6820865Y2130247D01*
X6823557Y2135632D01*
X6823557Y2142947D01*
X6822846Y2147468D01*
X6820458Y2149652D01*
X6820458Y2150567D01*
X6822998Y2153158D01*
X6823049Y2164537D01*
X6821525Y2167382D01*
X6818985Y2169718D01*
X6815328Y2170988D01*
G37*
G36*
X6708698Y2165248D02*
G01*
X6701790Y2165146D01*
X6698843Y2164029D01*
X6696100Y2162251D01*
X6693458Y2157831D01*
X6693171Y2131161D01*
X6702501Y2131161D01*
X6702501Y2152802D01*
X6704634Y2155647D01*
X6708292Y2155647D01*
X6711340Y2152853D01*
X6711340Y2131161D01*
X6708902Y2128774D01*
X6704888Y2128774D01*
X6702501Y2131161D01*
X6693171Y2131161D01*
X6693153Y2129536D01*
X6694678Y2125675D01*
X6697878Y2122170D01*
X6700469Y2120595D01*
X6705701Y2119223D01*
X6711137Y2119223D01*
X6715861Y2120798D01*
X6719468Y2124354D01*
X6721094Y2128977D01*
X6721094Y2151176D01*
X6720027Y2156866D01*
X6717995Y2160473D01*
X6713575Y2163826D01*
G37*
G36*
X6761276Y2165248D02*
G01*
X6755587Y2165146D01*
X6752691Y2164181D01*
X6749542Y2162810D01*
X6746646Y2160473D01*
X6744360Y2155901D01*
X6744360Y2130348D01*
X6753859Y2130348D01*
X6754114Y2153361D01*
X6757060Y2155647D01*
X6759346Y2155647D01*
X6762191Y2154174D01*
X6762191Y2130399D01*
X6760311Y2128723D01*
X6756603Y2128215D01*
X6753859Y2130348D01*
X6744360Y2130348D01*
X6744360Y2127605D01*
X6746646Y2123033D01*
X6749592Y2120595D01*
X6753148Y2119122D01*
X6761988Y2119071D01*
X6766356Y2121001D01*
X6769404Y2123846D01*
X6771741Y2128570D01*
X6772046Y2155240D01*
X6770471Y2159914D01*
X6765645Y2164181D01*
G37*
G36*
X6530187Y2156104D02*
G01*
X6529019Y2156053D01*
X6523939Y2154224D01*
X6515811Y2152192D01*
X6514490Y2150973D01*
X6529273Y2141728D01*
X6541262Y2134717D01*
X6552996Y2128621D01*
X6564274Y2123236D01*
X6583324Y2114854D01*
X6604152Y2107031D01*
X6612483Y2104186D01*
X6631431Y2098548D01*
X6655257Y2092756D01*
X6670446Y2089912D01*
X6684162Y2088032D01*
X6702755Y2086152D01*
X6728206Y2084425D01*
X6728459Y2056028D01*
X6729679Y2055215D01*
X6740601Y2055469D01*
X6741363Y2057095D01*
X6741718Y2084527D01*
X6756095Y2085136D01*
X6768795Y2086102D01*
X6786930Y2087981D01*
X6801103Y2089861D01*
X6812381Y2091842D01*
X6823608Y2094280D01*
X6833412Y2096719D01*
X6854952Y2103018D01*
X6872579Y2109063D01*
X6884060Y2113330D01*
X6898487Y2119579D01*
X6914134Y2126945D01*
X6928358Y2134260D01*
X6937044Y2139340D01*
X6937400Y2139340D01*
X6946493Y2145030D01*
X6954012Y2150414D01*
X6953554Y2151583D01*
X6943547Y2153818D01*
X6939635Y2155037D01*
X6937095Y2155596D01*
X6928866Y2150821D01*
X6919569Y2145944D01*
X6918553Y2145182D01*
X6896557Y2134311D01*
X6879437Y2127046D01*
X6858355Y2119223D01*
X6840270Y2113483D01*
X6826554Y2109724D01*
X6808470Y2105863D01*
X6797700Y2103932D01*
X6779107Y2101443D01*
X6744360Y2098903D01*
X6716928Y2099564D01*
X6689039Y2101900D01*
X6675323Y2103831D01*
X6663842Y2105710D01*
X6656527Y2107184D01*
X6636207Y2111959D01*
X6629806Y2113838D01*
X6609994Y2120290D01*
X6593027Y2126284D01*
X6578193Y2132634D01*
X6552996Y2144572D01*
X6531356Y2156104D01*
G37*
D10*
X977900Y6577584D02*
G01*
X977900Y6434328D01*
X977900Y6577584D02*
G01*
X1039368Y6577584D01*
X1059687Y6570726D01*
X1066545Y6563868D01*
X1073404Y6550405D01*
X1073404Y6529831D01*
X1066545Y6516115D01*
X1059687Y6509257D01*
X1039368Y6502654D01*
X977900Y6502654D01*
X1220723Y6543547D02*
G01*
X1213865Y6557010D01*
X1200150Y6570726D01*
X1186434Y6577584D01*
X1159255Y6577584D01*
X1145539Y6570726D01*
X1132078Y6557010D01*
X1125220Y6543547D01*
X1118362Y6522973D01*
X1118362Y6488937D01*
X1125220Y6468363D01*
X1132078Y6454902D01*
X1145539Y6441186D01*
X1159255Y6434328D01*
X1186434Y6434328D01*
X1200150Y6441186D01*
X1213865Y6454902D01*
X1220723Y6468363D01*
X1265681Y6577584D02*
G01*
X1265681Y6434328D01*
X1265681Y6577584D02*
G01*
X1326895Y6577584D01*
X1347470Y6570726D01*
X1354328Y6563868D01*
X1361186Y6550405D01*
X1361186Y6536689D01*
X1354328Y6522973D01*
X1347470Y6516115D01*
X1326895Y6509257D01*
X1265681Y6509257D02*
G01*
X1326895Y6509257D01*
X1347470Y6502654D01*
X1354328Y6495795D01*
X1361186Y6482079D01*
X1361186Y6461760D01*
X1354328Y6448044D01*
X1347470Y6441186D01*
X1326895Y6434328D01*
X1265681Y6434328D01*
X1565655Y6577584D02*
G01*
X1511045Y6434328D01*
X1565655Y6577584D02*
G01*
X1620265Y6434328D01*
X1531620Y6482079D02*
G01*
X1599692Y6482079D01*
X1665223Y6577584D02*
G01*
X1665223Y6434328D01*
X1665223Y6577584D02*
G01*
X1726437Y6577584D01*
X1747012Y6570726D01*
X1753870Y6563868D01*
X1760728Y6550405D01*
X1760728Y6536689D01*
X1753870Y6522973D01*
X1747012Y6516115D01*
X1726437Y6509257D01*
X1665223Y6509257D01*
X1712976Y6509257D02*
G01*
X1760728Y6434328D01*
X1805686Y6577584D02*
G01*
X1805686Y6434328D01*
X1805686Y6577584D02*
G01*
X1853437Y6577584D01*
X1873757Y6570726D01*
X1887473Y6557010D01*
X1894331Y6543547D01*
X1901189Y6522973D01*
X1901189Y6488937D01*
X1894331Y6468363D01*
X1887473Y6454902D01*
X1873757Y6441186D01*
X1853437Y6434328D01*
X1805686Y6434328D01*
X1946147Y6577584D02*
G01*
X1946147Y6475221D01*
X1953006Y6454902D01*
X1966468Y6441186D01*
X1987041Y6434328D01*
X2000504Y6434328D01*
X2021077Y6441186D01*
X2034793Y6454902D01*
X2041652Y6475221D01*
X2041652Y6577584D01*
X2086609Y6577584D02*
G01*
X2086609Y6434328D01*
X2131568Y6577584D02*
G01*
X2131568Y6434328D01*
X2131568Y6577584D02*
G01*
X2227072Y6434328D01*
X2227072Y6577584D02*
G01*
X2227072Y6434328D01*
X2312924Y6577584D02*
G01*
X2299208Y6570726D01*
X2285745Y6557010D01*
X2278888Y6543547D01*
X2272029Y6522973D01*
X2272029Y6488937D01*
X2278888Y6468363D01*
X2285745Y6454902D01*
X2299208Y6441186D01*
X2312924Y6434328D01*
X2340102Y6434328D01*
X2353818Y6441186D01*
X2367534Y6454902D01*
X2374138Y6468363D01*
X2380995Y6488937D01*
X2380995Y6522973D01*
X2374138Y6543547D01*
X2367534Y6557010D01*
X2353818Y6570726D01*
X2340102Y6577584D01*
X2312924Y6577584D01*
X2578861Y6577584D02*
G01*
X2578861Y6434328D01*
X2531109Y6577584D02*
G01*
X2626613Y6577584D01*
X2712465Y6577584D02*
G01*
X2698750Y6570726D01*
X2685288Y6557010D01*
X2678429Y6543547D01*
X2671572Y6522973D01*
X2671572Y6488937D01*
X2678429Y6468363D01*
X2685288Y6454902D01*
X2698750Y6441186D01*
X2712465Y6434328D01*
X2739643Y6434328D01*
X2753359Y6441186D01*
X2767075Y6454902D01*
X2773679Y6468363D01*
X2780538Y6488937D01*
X2780538Y6522973D01*
X2773679Y6543547D01*
X2767075Y6557010D01*
X2753359Y6570726D01*
X2739643Y6577584D01*
X2712465Y6577584D01*
X2930652Y6577584D02*
G01*
X2930652Y6434328D01*
X2930652Y6577584D02*
G01*
X3026156Y6434328D01*
X3026156Y6577584D02*
G01*
X3026156Y6434328D01*
X3071113Y6577584D02*
G01*
X3071113Y6434328D01*
X3071113Y6577584D02*
G01*
X3132327Y6577584D01*
X3152902Y6570726D01*
X3159759Y6563868D01*
X3166618Y6550405D01*
X3166618Y6536689D01*
X3159759Y6522973D01*
X3152902Y6516115D01*
X3132327Y6509257D01*
X3071113Y6509257D01*
X3118865Y6509257D02*
G01*
X3166618Y6434328D01*
X3211575Y6577584D02*
G01*
X3211575Y6434328D01*
X3211575Y6577584D02*
G01*
X3300222Y6577584D01*
X3211575Y6509257D02*
G01*
X3266186Y6509257D01*
X3352038Y6543547D02*
G01*
X3352038Y6550405D01*
X3358895Y6563868D01*
X3365500Y6570726D01*
X3379215Y6577584D01*
X3406647Y6577584D01*
X3420109Y6570726D01*
X3426968Y6563868D01*
X3433825Y6550405D01*
X3433825Y6536689D01*
X3426968Y6522973D01*
X3413252Y6502654D01*
X3345179Y6434328D01*
X3440684Y6434328D01*
X3553713Y6577584D02*
G01*
X3485641Y6482079D01*
X3588004Y6482079D01*
X3553713Y6577584D02*
G01*
X3553713Y6434328D01*
X4165345Y6908800D02*
G01*
X4159504Y6920737D01*
X4147565Y6932421D01*
X4135881Y6938263D01*
X4112259Y6938263D01*
X4100322Y6932421D01*
X4088638Y6920737D01*
X4082541Y6908800D01*
X4076700Y6891020D01*
X4076700Y6861555D01*
X4082541Y6843776D01*
X4088638Y6832092D01*
X4100322Y6820154D01*
X4112259Y6814312D01*
X4135881Y6814312D01*
X4147565Y6820154D01*
X4159504Y6832092D01*
X4165345Y6843776D01*
X4165345Y6861555D01*
X4135881Y6861555D02*
G01*
X4165345Y6861555D01*
X4204461Y6938263D02*
G01*
X4204461Y6814312D01*
X4204461Y6938263D02*
G01*
X4287011Y6814312D01*
X4287011Y6938263D02*
G01*
X4287011Y6814312D01*
X4326127Y6938263D02*
G01*
X4326127Y6814312D01*
X4326127Y6938263D02*
G01*
X4367529Y6938263D01*
X4385056Y6932421D01*
X4396993Y6920737D01*
X4402836Y6908800D01*
X4408677Y6891020D01*
X4408677Y6861555D01*
X4402836Y6843776D01*
X4396993Y6832092D01*
X4385056Y6820154D01*
X4367529Y6814312D01*
X4326127Y6814312D01*
X2234945Y6134100D02*
G01*
X2229104Y6146037D01*
X2217165Y6157721D01*
X2205481Y6163563D01*
X2181859Y6163563D01*
X2169922Y6157721D01*
X2158238Y6146037D01*
X2152141Y6134100D01*
X2146300Y6116320D01*
X2146300Y6086855D01*
X2152141Y6069076D01*
X2158238Y6057392D01*
X2169922Y6045454D01*
X2181859Y6039612D01*
X2205481Y6039612D01*
X2217165Y6045454D01*
X2229104Y6057392D01*
X2234945Y6069076D01*
X2234945Y6086855D01*
X2205481Y6086855D02*
G01*
X2234945Y6086855D01*
X1828037Y6150863D02*
G01*
X1892807Y6150863D01*
X1857502Y6103620D01*
X1875281Y6103620D01*
X1886965Y6097778D01*
X1892807Y6091936D01*
X1898904Y6074155D01*
X1898904Y6062471D01*
X1892807Y6044692D01*
X1881123Y6032754D01*
X1863344Y6026912D01*
X1845563Y6026912D01*
X1828037Y6032754D01*
X1821942Y6038595D01*
X1816100Y6050534D01*
X1937765Y6150863D02*
G01*
X1985009Y6026912D01*
X2032254Y6150863D02*
G01*
X1985009Y6026912D01*
X2409443Y6150863D02*
G01*
X2362200Y6026912D01*
X2409443Y6150863D02*
G01*
X2456688Y6026912D01*
X2379979Y6068313D02*
G01*
X2438908Y6068313D01*
X2566670Y6150863D02*
G01*
X2507488Y6150863D01*
X2501645Y6097778D01*
X2507488Y6103620D01*
X2525268Y6109715D01*
X2543047Y6109715D01*
X2560827Y6103620D01*
X2572511Y6091936D01*
X2578354Y6074155D01*
X2578354Y6062471D01*
X2572511Y6044692D01*
X2560827Y6032754D01*
X2543047Y6026912D01*
X2525268Y6026912D01*
X2507488Y6032754D01*
X2501645Y6038595D01*
X2495804Y6050534D01*
X2701543Y6150863D02*
G01*
X2654300Y6026912D01*
X2701543Y6150863D02*
G01*
X2748788Y6026912D01*
X2672079Y6068313D02*
G01*
X2731008Y6068313D01*
X2846831Y6150863D02*
G01*
X2787904Y6068313D01*
X2876550Y6068313D01*
X2846831Y6150863D02*
G01*
X2846831Y6026912D01*
X4597145Y4673600D02*
G01*
X4591304Y4685537D01*
X4579365Y4697221D01*
X4567681Y4703063D01*
X4544059Y4703063D01*
X4532122Y4697221D01*
X4520438Y4685537D01*
X4514341Y4673600D01*
X4508500Y4655820D01*
X4508500Y4626355D01*
X4514341Y4608576D01*
X4520438Y4596892D01*
X4532122Y4584954D01*
X4544059Y4579112D01*
X4567681Y4579112D01*
X4579365Y4584954D01*
X4591304Y4596892D01*
X4597145Y4608576D01*
X4597145Y4626355D01*
X4567681Y4626355D02*
G01*
X4597145Y4626355D01*
X4636261Y4703063D02*
G01*
X4636261Y4579112D01*
X4636261Y4703063D02*
G01*
X4718811Y4579112D01*
X4718811Y4703063D02*
G01*
X4718811Y4579112D01*
X4757927Y4703063D02*
G01*
X4757927Y4579112D01*
X4757927Y4703063D02*
G01*
X4799329Y4703063D01*
X4816856Y4697221D01*
X4828793Y4685537D01*
X4834636Y4673600D01*
X4840477Y4655820D01*
X4840477Y4626355D01*
X4834636Y4608576D01*
X4828793Y4596892D01*
X4816856Y4584954D01*
X4799329Y4579112D01*
X4757927Y4579112D01*
X5079745Y3098800D02*
G01*
X5073904Y3110737D01*
X5061965Y3122421D01*
X5050281Y3128263D01*
X5026659Y3128263D01*
X5014722Y3122421D01*
X5003038Y3110737D01*
X4996941Y3098800D01*
X4991100Y3081020D01*
X4991100Y3051555D01*
X4996941Y3033776D01*
X5003038Y3022092D01*
X5014722Y3010154D01*
X5026659Y3004312D01*
X5050281Y3004312D01*
X5061965Y3010154D01*
X5073904Y3022092D01*
X5079745Y3033776D01*
X5079745Y3051555D01*
X5050281Y3051555D02*
G01*
X5079745Y3051555D01*
X5118861Y3128263D02*
G01*
X5118861Y3004312D01*
X5118861Y3128263D02*
G01*
X5201411Y3004312D01*
X5201411Y3128263D02*
G01*
X5201411Y3004312D01*
X5240527Y3128263D02*
G01*
X5240527Y3004312D01*
X5240527Y3128263D02*
G01*
X5281929Y3128263D01*
X5299456Y3122421D01*
X5311393Y3110737D01*
X5317236Y3098800D01*
X5323077Y3081020D01*
X5323077Y3051555D01*
X5317236Y3033776D01*
X5311393Y3022092D01*
X5299456Y3010154D01*
X5281929Y3004312D01*
X5240527Y3004312D01*
X965200Y3021584D02*
G01*
X965200Y2878328D01*
X965200Y3021584D02*
G01*
X1026668Y3021584D01*
X1046987Y3014726D01*
X1053845Y3007868D01*
X1060704Y2994405D01*
X1060704Y2980689D01*
X1053845Y2966973D01*
X1046987Y2960115D01*
X1026668Y2953257D01*
X965200Y2953257D01*
X1012952Y2953257D02*
G01*
X1060704Y2878328D01*
X1105662Y3021584D02*
G01*
X1105662Y2878328D01*
X1105662Y3021584D02*
G01*
X1194307Y3021584D01*
X1105662Y2953257D02*
G01*
X1160271Y2953257D01*
X1105662Y2878328D02*
G01*
X1194307Y2878328D01*
X1239265Y3021584D02*
G01*
X1293876Y2878328D01*
X1348486Y3021584D02*
G01*
X1293876Y2878328D01*
X1393444Y2994405D02*
G01*
X1406905Y3001010D01*
X1427479Y3021584D01*
X1427479Y2878328D01*
X7530338Y5160263D02*
G01*
X7595108Y5160263D01*
X7559802Y5113020D01*
X7577581Y5113020D01*
X7589265Y5107178D01*
X7595108Y5101336D01*
X7601204Y5083555D01*
X7601204Y5071871D01*
X7595108Y5054092D01*
X7583424Y5042154D01*
X7565643Y5036312D01*
X7547863Y5036312D01*
X7530338Y5042154D01*
X7524241Y5047995D01*
X7518400Y5059934D01*
X7646161Y5065776D02*
G01*
X7640065Y5059934D01*
X7646161Y5054092D01*
X7652004Y5059934D01*
X7646161Y5065776D01*
X7702804Y5160263D02*
G01*
X7767827Y5160263D01*
X7732268Y5113020D01*
X7750047Y5113020D01*
X7761731Y5107178D01*
X7767827Y5101336D01*
X7773670Y5083555D01*
X7773670Y5071871D01*
X7767827Y5054092D01*
X7755890Y5042154D01*
X7738109Y5036312D01*
X7720584Y5036312D01*
X7702804Y5042154D01*
X7696961Y5047995D01*
X7690865Y5059934D01*
X7812786Y5160263D02*
G01*
X7860029Y5036312D01*
X7907274Y5160263D02*
G01*
X7860029Y5036312D01*
D11*
X2082800Y4532884D02*
G01*
X2082800Y4430521D01*
X2089658Y4410202D01*
X2103374Y4396486D01*
X2123693Y4389628D01*
X2137409Y4389628D01*
X2157729Y4396486D01*
X2171445Y4410202D01*
X2178304Y4430521D01*
X2178304Y4532884D01*
X2223261Y4505705D02*
G01*
X2236977Y4512310D01*
X2257297Y4532884D01*
X2257297Y4389628D01*
D12*
X5266943Y2906521D02*
G01*
X5256529Y2916936D01*
X5241036Y2922015D01*
X5220208Y2922015D01*
X5204713Y2916936D01*
X5194300Y2906521D01*
X5194300Y2896107D01*
X5199379Y2885694D01*
X5204713Y2880360D01*
X5215127Y2875279D01*
X5246370Y2864865D01*
X5256529Y2859786D01*
X5261863Y2854452D01*
X5266943Y2844037D01*
X5266943Y2828544D01*
X5256529Y2818129D01*
X5241036Y2813050D01*
X5220208Y2813050D01*
X5204713Y2818129D01*
X5194300Y2828544D01*
X5301234Y2901187D02*
G01*
X5311647Y2906521D01*
X5327395Y2922015D01*
X5327395Y2813050D01*
X3679443Y2893821D02*
G01*
X3669029Y2904236D01*
X3653536Y2909315D01*
X3632708Y2909315D01*
X3617213Y2904236D01*
X3606800Y2893821D01*
X3606800Y2883407D01*
X3611879Y2872994D01*
X3617213Y2867660D01*
X3627627Y2862579D01*
X3658870Y2852165D01*
X3669029Y2847086D01*
X3674363Y2841752D01*
X3679443Y2831337D01*
X3679443Y2815844D01*
X3669029Y2805429D01*
X3653536Y2800350D01*
X3632708Y2800350D01*
X3617213Y2805429D01*
X3606800Y2815844D01*
X3719068Y2883407D02*
G01*
X3719068Y2888487D01*
X3724147Y2898902D01*
X3729481Y2904236D01*
X3739895Y2909315D01*
X3760470Y2909315D01*
X3770884Y2904236D01*
X3776218Y2898902D01*
X3781297Y2888487D01*
X3781297Y2878073D01*
X3776218Y2867660D01*
X3765804Y2852165D01*
X3713734Y2800350D01*
X3786631Y2800350D01*
X2333243Y2906521D02*
G01*
X2322829Y2916936D01*
X2307336Y2922015D01*
X2286508Y2922015D01*
X2271013Y2916936D01*
X2260600Y2906521D01*
X2260600Y2896107D01*
X2265679Y2885694D01*
X2271013Y2880360D01*
X2281427Y2875279D01*
X2312670Y2864865D01*
X2322829Y2859786D01*
X2328163Y2854452D01*
X2333243Y2844037D01*
X2333243Y2828544D01*
X2322829Y2818129D01*
X2307336Y2813050D01*
X2286508Y2813050D01*
X2271013Y2818129D01*
X2260600Y2828544D01*
X2377947Y2922015D02*
G01*
X2435097Y2922015D01*
X2404109Y2880360D01*
X2419604Y2880360D01*
X2430018Y2875279D01*
X2435097Y2870200D01*
X2440431Y2854452D01*
X2440431Y2844037D01*
X2435097Y2828544D01*
X2424684Y2818129D01*
X2409190Y2813050D01*
X2393695Y2813050D01*
X2377947Y2818129D01*
X2372868Y2823210D01*
X2367534Y2833623D01*
X5629643Y3696715D02*
G01*
X5587987Y3587750D01*
X5629643Y3696715D02*
G01*
X5671045Y3587750D01*
X5603481Y3624071D02*
G01*
X5655551Y3624071D01*
X5705335Y3696715D02*
G01*
X5705335Y3587750D01*
X5705335Y3696715D02*
G01*
X5752071Y3696715D01*
X5767819Y3691636D01*
X5772899Y3686302D01*
X5778233Y3675887D01*
X5778233Y3665473D01*
X5772899Y3655060D01*
X5767819Y3649979D01*
X5752071Y3644900D01*
X5705335Y3644900D01*
X5741657Y3644900D02*
G01*
X5778233Y3587750D01*
X5812523Y3696715D02*
G01*
X5812523Y3587750D01*
X5812523Y3696715D02*
G01*
X5848845Y3696715D01*
X5864339Y3691636D01*
X5874753Y3681221D01*
X5880087Y3670807D01*
X5885167Y3655060D01*
X5885167Y3629152D01*
X5880087Y3613657D01*
X5874753Y3603244D01*
X5864339Y3592829D01*
X5848845Y3587750D01*
X5812523Y3587750D01*
X5919457Y3696715D02*
G01*
X5919457Y3618737D01*
X5924537Y3603244D01*
X5934951Y3592829D01*
X5950699Y3587750D01*
X5961113Y3587750D01*
X5976607Y3592829D01*
X5987021Y3603244D01*
X5992101Y3618737D01*
X5992101Y3696715D01*
X6026391Y3696715D02*
G01*
X6026391Y3587750D01*
X6060681Y3696715D02*
G01*
X6060681Y3587750D01*
X6060681Y3696715D02*
G01*
X6133579Y3587750D01*
X6133579Y3696715D02*
G01*
X6133579Y3587750D01*
X6198857Y3696715D02*
G01*
X6188697Y3691636D01*
X6178283Y3681221D01*
X6172949Y3670807D01*
X6167869Y3655060D01*
X6167869Y3629152D01*
X6172949Y3613657D01*
X6178283Y3603244D01*
X6188697Y3592829D01*
X6198857Y3587750D01*
X6219685Y3587750D01*
X6230099Y3592829D01*
X6240513Y3603244D01*
X6245847Y3613657D01*
X6250927Y3629152D01*
X6250927Y3655060D01*
X6245847Y3670807D01*
X6240513Y3681221D01*
X6230099Y3691636D01*
X6219685Y3696715D01*
X6198857Y3696715D01*
X6285217Y3551173D02*
G01*
X6378689Y3551173D01*
X6412979Y3696715D02*
G01*
X6412979Y3587750D01*
X6412979Y3696715D02*
G01*
X6485877Y3587750D01*
X6485877Y3696715D02*
G01*
X6485877Y3587750D01*
X6561569Y3696715D02*
G01*
X6520167Y3587750D01*
X6561569Y3696715D02*
G01*
X6603225Y3587750D01*
X6535661Y3624071D02*
G01*
X6587477Y3624071D01*
X6637515Y3696715D02*
G01*
X6637515Y3587750D01*
X6637515Y3696715D02*
G01*
X6710159Y3587750D01*
X6710159Y3696715D02*
G01*
X6710159Y3587750D01*
X6775691Y3696715D02*
G01*
X6765277Y3691636D01*
X6754863Y3681221D01*
X6749783Y3670807D01*
X6744449Y3655060D01*
X6744449Y3629152D01*
X6749783Y3613657D01*
X6754863Y3603244D01*
X6765277Y3592829D01*
X6775691Y3587750D01*
X6796519Y3587750D01*
X6806933Y3592829D01*
X6817347Y3603244D01*
X6822427Y3613657D01*
X6827507Y3629152D01*
X6827507Y3655060D01*
X6822427Y3670807D01*
X6817347Y3681221D01*
X6806933Y3691636D01*
X6796519Y3696715D01*
X6775691Y3696715D01*
X6861797Y3675887D02*
G01*
X6872211Y3681221D01*
X6887959Y3696715D01*
X6887959Y3587750D01*
D13*
X5758929Y4259579D02*
G01*
X5681205Y4259579D01*
X5758929Y4259579D02*
G01*
X5758929Y4226305D01*
X5755119Y4215129D01*
X5751563Y4211573D01*
X5744197Y4207763D01*
X5736831Y4207763D01*
X5729465Y4211573D01*
X5725655Y4215129D01*
X5721845Y4226305D01*
X5721845Y4259579D01*
X5721845Y4233671D02*
G01*
X5681205Y4207763D01*
X5710923Y4183379D02*
G01*
X5710923Y4139184D01*
X5718289Y4139184D01*
X5725655Y4142739D01*
X5729465Y4146550D01*
X5733021Y4153915D01*
X5733021Y4165092D01*
X5729465Y4172457D01*
X5721845Y4179823D01*
X5710923Y4183379D01*
X5703557Y4183379D01*
X5692381Y4179823D01*
X5685015Y4172457D01*
X5681205Y4165092D01*
X5681205Y4153915D01*
X5685015Y4146550D01*
X5692381Y4139184D01*
X5721845Y4074160D02*
G01*
X5729465Y4077715D01*
X5733021Y4088892D01*
X5733021Y4100068D01*
X5729465Y4110989D01*
X5721845Y4114800D01*
X5714479Y4110989D01*
X5710923Y4103623D01*
X5707113Y4085081D01*
X5703557Y4077715D01*
X5696191Y4074160D01*
X5692381Y4074160D01*
X5685015Y4077715D01*
X5681205Y4088892D01*
X5681205Y4100068D01*
X5685015Y4110989D01*
X5692381Y4114800D01*
X5710923Y4049776D02*
G01*
X5710923Y4005326D01*
X5718289Y4005326D01*
X5725655Y4009136D01*
X5729465Y4012692D01*
X5733021Y4020057D01*
X5733021Y4031234D01*
X5729465Y4038600D01*
X5721845Y4045965D01*
X5710923Y4049776D01*
X5703557Y4049776D01*
X5692381Y4045965D01*
X5685015Y4038600D01*
X5681205Y4031234D01*
X5681205Y4020057D01*
X5685015Y4012692D01*
X5692381Y4005326D01*
X5758929Y3970020D02*
G01*
X5696191Y3970020D01*
X5685015Y3966210D01*
X5681205Y3958844D01*
X5681205Y3951478D01*
X5733021Y3980942D02*
G01*
X5733021Y3955034D01*
D14*
X7962887Y4576826D02*
G01*
X7953743Y4572254D01*
X7939773Y4558284D01*
X7939773Y4655312D01*
D15*
X8120875Y4351020D02*
G01*
X8062709Y4351020D01*
X8120875Y4351020D02*
G01*
X8062709Y4328921D01*
X8120875Y4306570D02*
G01*
X8062709Y4328921D01*
X8120875Y4306570D02*
G01*
X8062709Y4306570D01*
X8120875Y4288281D02*
G01*
X8118081Y4285742D01*
X8120875Y4282947D01*
X8123669Y4285742D01*
X8120875Y4288281D01*
X8101571Y4285742D02*
G01*
X8062709Y4285742D01*
X8101571Y4264660D02*
G01*
X8062709Y4264660D01*
X8090395Y4264660D02*
G01*
X8098777Y4256278D01*
X8101571Y4250689D01*
X8101571Y4242307D01*
X8098777Y4236973D01*
X8090395Y4234179D01*
X8062709Y4234179D01*
X8120875Y4215892D02*
G01*
X8118081Y4213097D01*
X8120875Y4210304D01*
X8123669Y4213097D01*
X8120875Y4215892D01*
X8101571Y4213097D02*
G01*
X8062709Y4213097D01*
X8087601Y4192015D02*
G01*
X8087601Y4141978D01*
X8120875Y4123689D02*
G01*
X8062709Y4123689D01*
X8120875Y4123689D02*
G01*
X8120875Y4098797D01*
X8118081Y4090670D01*
X8115287Y4087876D01*
X8109953Y4085081D01*
X8104365Y4085081D01*
X8098777Y4087876D01*
X8095983Y4090670D01*
X8093189Y4098797D01*
X8093189Y4123689D02*
G01*
X8093189Y4098797D01*
X8090395Y4090670D01*
X8087601Y4087876D01*
X8082013Y4085081D01*
X8073885Y4085081D01*
X8068297Y4087876D01*
X8065503Y4090670D01*
X8062709Y4098797D01*
X8062709Y4123689D01*
X8120875Y4066794D02*
G01*
X8054327Y4027931D01*
X8101571Y4009644D02*
G01*
X8062709Y4009644D01*
X8090395Y4009644D02*
G01*
X8098777Y4001262D01*
X8101571Y3995673D01*
X8101571Y3987545D01*
X8098777Y3981957D01*
X8090395Y3979163D01*
X8062709Y3979163D01*
X8120875Y3960876D02*
G01*
X8079473Y3960876D01*
X8071091Y3958081D01*
X8065503Y3952494D01*
X8062709Y3944365D01*
X8062709Y3938778D01*
X8065503Y3930395D01*
X8071091Y3924807D01*
X8079473Y3922013D01*
X8120875Y3922013D01*
X8112493Y3865118D02*
G01*
X8118081Y3870452D01*
X8120875Y3878834D01*
X8120875Y3890010D01*
X8118081Y3898137D01*
X8112493Y3903726D01*
X8107159Y3903726D01*
X8101571Y3900931D01*
X8098777Y3898137D01*
X8095983Y3892804D01*
X8090395Y3876039D01*
X8087601Y3870452D01*
X8084807Y3867657D01*
X8079473Y3865118D01*
X8071091Y3865118D01*
X8065503Y3870452D01*
X8062709Y3878834D01*
X8062709Y3890010D01*
X8065503Y3898137D01*
X8071091Y3903726D01*
X8120875Y3846829D02*
G01*
X8062709Y3846829D01*
X8120875Y3846829D02*
G01*
X8120875Y3821684D01*
X8118081Y3813555D01*
X8115287Y3810762D01*
X8109953Y3807968D01*
X8104365Y3807968D01*
X8098777Y3810762D01*
X8095983Y3813555D01*
X8093189Y3821684D01*
X8093189Y3846829D02*
G01*
X8093189Y3821684D01*
X8090395Y3813555D01*
X8087601Y3810762D01*
X8082013Y3807968D01*
X8073885Y3807968D01*
X8068297Y3810762D01*
X8065503Y3813555D01*
X8062709Y3821684D01*
X8062709Y3846829D01*
D13*
X4538205Y3949700D02*
G01*
X4615929Y3949700D01*
X4556747Y4029455D02*
G01*
X4549381Y4025900D01*
X4542015Y4018534D01*
X4538205Y4010913D01*
X4538205Y3996181D01*
X4542015Y3988815D01*
X4549381Y3981450D01*
X4556747Y3977894D01*
X4567669Y3974084D01*
X4586211Y3974084D01*
X4597387Y3977894D01*
X4604753Y3981450D01*
X4612119Y3988815D01*
X4615929Y3996181D01*
X4615929Y4010913D01*
X4612119Y4018534D01*
X4604753Y4025900D01*
X4597387Y4029455D01*
X4549381Y4105655D02*
G01*
X4542015Y4098289D01*
X4538205Y4087113D01*
X4538205Y4072381D01*
X4542015Y4061205D01*
X4549381Y4053839D01*
X4556747Y4053839D01*
X4564113Y4057650D01*
X4567669Y4061205D01*
X4571479Y4068571D01*
X4578845Y4090923D01*
X4582655Y4098289D01*
X4586211Y4101845D01*
X4593577Y4105655D01*
X4604753Y4105655D01*
X4612119Y4098289D01*
X4615929Y4087113D01*
X4615929Y4072381D01*
X4612119Y4061205D01*
X4604753Y4053839D01*
X4538205Y4130039D02*
G01*
X4615929Y4130039D01*
X4538205Y4130039D02*
G01*
X4538205Y4163313D01*
X4542015Y4174236D01*
X4545571Y4178045D01*
X4552937Y4181602D01*
X4564113Y4181602D01*
X4571479Y4178045D01*
X4575289Y4174236D01*
X4578845Y4163313D01*
X4578845Y4130039D01*
D14*
X4018013Y4521200D02*
G01*
X4013441Y4530344D01*
X3999471Y4544313D01*
X4096499Y4544313D01*
D16*
X8224507Y4202176D02*
G01*
X8219681Y4202176D01*
X8224507Y4203700D02*
G01*
X8224507Y4200397D01*
X8224507Y4198873D02*
G01*
X8219681Y4198873D01*
X8221967Y4198873D02*
G01*
X8222729Y4198365D01*
X8222983Y4197857D01*
X8222983Y4197095D01*
X8222729Y4196587D01*
X8221967Y4196334D01*
X8219681Y4196334D01*
X8224507Y4194810D02*
G01*
X8224253Y4194555D01*
X8224507Y4194302D01*
X8224761Y4194555D01*
X8224507Y4194810D01*
X8222983Y4194555D02*
G01*
X8219681Y4194555D01*
X8222221Y4190237D02*
G01*
X8222729Y4190492D01*
X8222983Y4191254D01*
X8222983Y4192015D01*
X8222729Y4192778D01*
X8222221Y4192778D01*
X8221713Y4192778D01*
X8221459Y4192270D01*
X8221205Y4191000D01*
X8221205Y4190492D01*
X8220697Y4190237D01*
X8220443Y4190237D01*
X8219935Y4190492D01*
X8219681Y4191254D01*
X8219681Y4192015D01*
X8219935Y4192778D01*
X8220443Y4192778D01*
X8224507Y4185157D02*
G01*
X8219681Y4185157D01*
X8224507Y4183634D02*
G01*
X8224253Y4183634D01*
X8224507Y4183379D01*
X8224761Y4183634D01*
X8224507Y4183634D01*
X8222983Y4183634D02*
G01*
X8219681Y4183634D01*
X8224507Y4181855D02*
G01*
X8219681Y4181855D01*
X8222221Y4181855D02*
G01*
X8222729Y4181347D01*
X8222983Y4180839D01*
X8222983Y4180078D01*
X8222729Y4179570D01*
X8222221Y4179315D01*
X8221459Y4179062D01*
X8221205Y4179062D01*
X8220443Y4179315D01*
X8219935Y4179570D01*
X8219681Y4180078D01*
X8219681Y4180839D01*
X8219935Y4181347D01*
X8220443Y4181855D01*
X8222983Y4177537D02*
G01*
X8219681Y4177537D01*
X8221459Y4177537D02*
G01*
X8222221Y4177284D01*
X8222729Y4176776D01*
X8222983Y4176268D01*
X8222983Y4175505D01*
X8222983Y4171442D02*
G01*
X8219681Y4171442D01*
X8222221Y4171442D02*
G01*
X8222729Y4171695D01*
X8222983Y4172204D01*
X8222983Y4172965D01*
X8222729Y4173473D01*
X8222221Y4173981D01*
X8221459Y4173981D01*
X8221205Y4173981D01*
X8220443Y4173981D01*
X8219935Y4173473D01*
X8219681Y4172965D01*
X8219681Y4172204D01*
X8219935Y4171695D01*
X8220443Y4171442D01*
X8222983Y4169918D02*
G01*
X8219681Y4169918D01*
X8221459Y4169918D02*
G01*
X8222221Y4169663D01*
X8222729Y4169155D01*
X8222983Y4168647D01*
X8222983Y4167886D01*
X8222983Y4166107D02*
G01*
X8219681Y4164837D01*
X8222983Y4163313D02*
G01*
X8219681Y4164837D01*
X8218665Y4165345D01*
X8218411Y4165854D01*
X8218157Y4166107D01*
X8218157Y4166362D01*
X8222983Y4158234D02*
G01*
X8219681Y4157471D01*
X8222983Y4156455D02*
G01*
X8219681Y4157471D01*
X8222983Y4156455D02*
G01*
X8219681Y4155694D01*
X8222983Y4154678D02*
G01*
X8219681Y4155694D01*
X8222983Y4150360D02*
G01*
X8219681Y4150360D01*
X8222221Y4150360D02*
G01*
X8222729Y4150868D01*
X8222983Y4151376D01*
X8222983Y4151884D01*
X8222729Y4152392D01*
X8222221Y4152900D01*
X8221459Y4153154D01*
X8221205Y4153154D01*
X8220443Y4152900D01*
X8219935Y4152392D01*
X8219681Y4151884D01*
X8219681Y4151376D01*
X8219935Y4150868D01*
X8220443Y4150360D01*
X8222221Y4146295D02*
G01*
X8222729Y4146550D01*
X8222983Y4147312D01*
X8222983Y4147820D01*
X8222729Y4148581D01*
X8222221Y4148836D01*
X8221713Y4148581D01*
X8221459Y4148073D01*
X8221205Y4147057D01*
X8221205Y4146550D01*
X8220697Y4146295D01*
X8220443Y4146295D01*
X8219935Y4146550D01*
X8219681Y4147312D01*
X8219681Y4147820D01*
X8219935Y4148581D01*
X8220443Y4148836D01*
X8222221Y4138421D02*
G01*
X8222729Y4138929D01*
X8222983Y4139437D01*
X8222983Y4139945D01*
X8222729Y4140454D01*
X8222221Y4140962D01*
X8221459Y4141215D01*
X8221205Y4141215D01*
X8220443Y4140962D01*
X8219935Y4140454D01*
X8219681Y4139945D01*
X8219681Y4139437D01*
X8219935Y4138929D01*
X8220443Y4138421D01*
X8222983Y4136897D02*
G01*
X8219681Y4136897D01*
X8221459Y4136897D02*
G01*
X8222221Y4136644D01*
X8222729Y4136136D01*
X8222983Y4135881D01*
X8222983Y4135120D01*
X8221459Y4133595D02*
G01*
X8221459Y4130802D01*
X8221967Y4130802D01*
X8222475Y4131055D01*
X8222729Y4131310D01*
X8222983Y4131818D01*
X8222983Y4132326D01*
X8222729Y4132834D01*
X8222221Y4133342D01*
X8221459Y4133595D01*
X8221205Y4133595D01*
X8220443Y4133342D01*
X8219935Y4132834D01*
X8219681Y4132326D01*
X8219681Y4131818D01*
X8219935Y4131310D01*
X8220443Y4130802D01*
X8222983Y4126484D02*
G01*
X8219681Y4126484D01*
X8222221Y4126484D02*
G01*
X8222729Y4126992D01*
X8222983Y4127500D01*
X8222983Y4128007D01*
X8222729Y4128515D01*
X8222221Y4129023D01*
X8221459Y4129278D01*
X8221205Y4129278D01*
X8220443Y4129023D01*
X8219935Y4128515D01*
X8219681Y4128007D01*
X8219681Y4127500D01*
X8219935Y4126992D01*
X8220443Y4126484D01*
X8224507Y4124197D02*
G01*
X8220697Y4124197D01*
X8219935Y4123944D01*
X8219681Y4123689D01*
X8219681Y4123181D01*
X8222983Y4124960D02*
G01*
X8222983Y4123436D01*
X8221459Y4121657D02*
G01*
X8221459Y4118863D01*
X8221967Y4118863D01*
X8222475Y4119118D01*
X8222729Y4119371D01*
X8222983Y4119626D01*
X8222983Y4120387D01*
X8222729Y4120895D01*
X8222221Y4121404D01*
X8221459Y4121657D01*
X8221205Y4121657D01*
X8220443Y4121404D01*
X8219935Y4120895D01*
X8219681Y4120387D01*
X8219681Y4119626D01*
X8219935Y4119371D01*
X8220443Y4118863D01*
X8224507Y4114545D02*
G01*
X8219681Y4114545D01*
X8222221Y4114545D02*
G01*
X8222729Y4115054D01*
X8222983Y4115562D01*
X8222983Y4116070D01*
X8222729Y4116578D01*
X8222221Y4117086D01*
X8221459Y4117339D01*
X8221205Y4117339D01*
X8220443Y4117086D01*
X8219935Y4116578D01*
X8219681Y4116070D01*
X8219681Y4115562D01*
X8219935Y4115054D01*
X8220443Y4114545D01*
X8224507Y4109465D02*
G01*
X8219681Y4109465D01*
X8222221Y4109465D02*
G01*
X8222729Y4108957D01*
X8222983Y4108450D01*
X8222983Y4107942D01*
X8222729Y4107434D01*
X8222221Y4106926D01*
X8221459Y4106671D01*
X8221205Y4106671D01*
X8220443Y4106926D01*
X8219935Y4107434D01*
X8219681Y4107942D01*
X8219681Y4108450D01*
X8219935Y4108957D01*
X8220443Y4109465D01*
X8222983Y4104894D02*
G01*
X8219681Y4103623D01*
X8222983Y4102100D02*
G01*
X8219681Y4103623D01*
X8218665Y4103878D01*
X8218411Y4104386D01*
X8218157Y4104894D01*
X8218157Y4105147D01*
X8224507Y4097020D02*
G01*
X8219681Y4097020D01*
X8224507Y4097020D02*
G01*
X8224507Y4093971D01*
X8222221Y4097020D02*
G01*
X8222221Y4095242D01*
X8219681Y4097020D02*
G01*
X8219681Y4093971D01*
X8222221Y4089907D02*
G01*
X8222729Y4090162D01*
X8222983Y4090923D01*
X8222983Y4091686D01*
X8222729Y4092194D01*
X8222221Y4092447D01*
X8221713Y4092194D01*
X8221459Y4091939D01*
X8221205Y4090670D01*
X8221205Y4090162D01*
X8220697Y4089907D01*
X8220443Y4089907D01*
X8219935Y4090162D01*
X8219681Y4090923D01*
X8219681Y4091686D01*
X8219935Y4092194D01*
X8220443Y4092447D01*
X8222983Y4088384D02*
G01*
X8218157Y4088384D01*
X8222221Y4088384D02*
G01*
X8222729Y4088129D01*
X8222983Y4087621D01*
X8222983Y4086860D01*
X8222729Y4086352D01*
X8222221Y4085844D01*
X8221459Y4085589D01*
X8221205Y4085589D01*
X8220443Y4085844D01*
X8219935Y4086352D01*
X8219681Y4086860D01*
X8219681Y4087621D01*
X8219935Y4088129D01*
X8220443Y4088384D01*
X8220951Y4084065D02*
G01*
X8220697Y4084065D01*
X8220443Y4084065D01*
X8220697Y4083812D01*
X8220951Y4084065D01*
X8224507Y4078731D02*
G01*
X8219681Y4078731D01*
X8224507Y4078731D02*
G01*
X8219681Y4076700D01*
X8224507Y4074921D02*
G01*
X8219681Y4076700D01*
X8224507Y4074921D02*
G01*
X8219681Y4074921D01*
X8222983Y4070604D02*
G01*
X8219681Y4070604D01*
X8222221Y4070604D02*
G01*
X8222729Y4071112D01*
X8222983Y4071620D01*
X8222983Y4072381D01*
X8222729Y4072636D01*
X8222221Y4073144D01*
X8221459Y4073397D01*
X8221205Y4073397D01*
X8220443Y4073144D01*
X8219935Y4072636D01*
X8219681Y4072381D01*
X8219681Y4071620D01*
X8219935Y4071112D01*
X8220443Y4070604D01*
X8222983Y4069079D02*
G01*
X8219681Y4069079D01*
X8221459Y4069079D02*
G01*
X8222221Y4068826D01*
X8222729Y4068318D01*
X8222983Y4068063D01*
X8222983Y4067302D01*
X8222221Y4062984D02*
G01*
X8222729Y4063492D01*
X8222983Y4064000D01*
X8222983Y4064507D01*
X8222729Y4065015D01*
X8222221Y4065523D01*
X8221459Y4065778D01*
X8221205Y4065778D01*
X8220443Y4065523D01*
X8219935Y4065015D01*
X8219681Y4064507D01*
X8219681Y4064000D01*
X8219935Y4063492D01*
X8220443Y4062984D01*
X8222983Y4060189D02*
G01*
X8222729Y4060697D01*
X8222221Y4061205D01*
X8221459Y4061460D01*
X8221205Y4061460D01*
X8220443Y4061205D01*
X8219935Y4060697D01*
X8219681Y4060189D01*
X8219681Y4059681D01*
X8219935Y4059173D01*
X8220443Y4058665D01*
X8221205Y4058412D01*
X8221459Y4058412D01*
X8222221Y4058665D01*
X8222729Y4059173D01*
X8222983Y4059681D01*
X8222983Y4060189D01*
X8221713Y4056887D02*
G01*
X8221713Y4052823D01*
X8224507Y4051300D02*
G01*
X8219681Y4051300D01*
X8219681Y4051300D02*
G01*
X8219681Y4048505D01*
X8222983Y4046981D02*
G01*
X8220697Y4046981D01*
X8219935Y4046728D01*
X8219681Y4046220D01*
X8219681Y4045457D01*
X8219935Y4045204D01*
X8220697Y4044442D01*
X8222983Y4044442D02*
G01*
X8219681Y4044442D01*
X8224507Y4042918D02*
G01*
X8224253Y4042663D01*
X8224507Y4042410D01*
X8224761Y4042663D01*
X8224507Y4042918D01*
X8222983Y4042663D02*
G01*
X8219681Y4042663D01*
X8222221Y4038345D02*
G01*
X8222729Y4038600D01*
X8222983Y4039362D01*
X8222983Y4039870D01*
X8222729Y4040631D01*
X8222221Y4040886D01*
X8221713Y4040631D01*
X8221459Y4040123D01*
X8221205Y4039107D01*
X8221205Y4038600D01*
X8220697Y4038345D01*
X8220443Y4038345D01*
X8219935Y4038600D01*
X8219681Y4039362D01*
X8219681Y4039870D01*
X8219935Y4040631D01*
X8220443Y4040886D01*
X8223745Y4029963D02*
G01*
X8224253Y4030471D01*
X8224507Y4031234D01*
X8224507Y4032250D01*
X8224253Y4032757D01*
X8223745Y4033265D01*
X8223491Y4033265D01*
X8222983Y4033012D01*
X8222729Y4032757D01*
X8222475Y4032250D01*
X8221967Y4030979D01*
X8221713Y4030471D01*
X8221459Y4030218D01*
X8221205Y4029963D01*
X8220443Y4029963D01*
X8219935Y4030471D01*
X8219681Y4031234D01*
X8219681Y4032250D01*
X8219935Y4032757D01*
X8220443Y4033265D01*
X8224507Y4026662D02*
G01*
X8219681Y4028439D01*
X8224507Y4026662D02*
G01*
X8219681Y4024884D01*
X8221205Y4027931D02*
G01*
X8221205Y4025645D01*
X8224507Y4023360D02*
G01*
X8219681Y4023360D01*
X8219681Y4023360D02*
G01*
X8219681Y4020565D01*
X8223491Y4015486D02*
G01*
X8223745Y4015739D01*
X8224253Y4016247D01*
X8224507Y4016755D01*
X8224507Y4017518D01*
X8224253Y4018026D01*
X8223745Y4018534D01*
X8223491Y4018787D01*
X8222729Y4019042D01*
X8221459Y4019042D01*
X8220951Y4018787D01*
X8220443Y4018534D01*
X8219935Y4018026D01*
X8219681Y4017518D01*
X8219681Y4016755D01*
X8219935Y4016247D01*
X8220443Y4015739D01*
X8220951Y4015486D01*
X8224507Y4013962D02*
G01*
X8219681Y4013962D01*
X8224507Y4013962D02*
G01*
X8224507Y4010913D01*
X8222221Y4013962D02*
G01*
X8222221Y4012184D01*
X8219681Y4013962D02*
G01*
X8219681Y4010913D01*
X8224507Y4009389D02*
G01*
X8219681Y4009389D01*
X8224507Y4009389D02*
G01*
X8224507Y4007865D01*
X8224253Y4007104D01*
X8223745Y4006850D01*
X8223491Y4006595D01*
X8222729Y4006342D01*
X8221459Y4006342D01*
X8220951Y4006595D01*
X8220443Y4006850D01*
X8219935Y4007104D01*
X8219681Y4007865D01*
X8219681Y4009389D01*
X8224507Y4003294D02*
G01*
X8224253Y4003802D01*
X8223745Y4004310D01*
X8223491Y4004563D01*
X8222729Y4004818D01*
X8221459Y4004818D01*
X8220951Y4004563D01*
X8220443Y4004310D01*
X8219935Y4003802D01*
X8219681Y4003294D01*
X8219681Y4002531D01*
X8219935Y4002023D01*
X8220443Y4001515D01*
X8220951Y4001262D01*
X8221459Y4001007D01*
X8222729Y4001007D01*
X8223491Y4001262D01*
X8223745Y4001515D01*
X8224253Y4002023D01*
X8224507Y4002531D01*
X8224507Y4003294D01*
X8224507Y3994404D02*
G01*
X8219681Y3994404D01*
X8224507Y3995928D02*
G01*
X8224507Y3992626D01*
X8224507Y3989831D02*
G01*
X8224253Y3990339D01*
X8223745Y3990847D01*
X8223491Y3991102D01*
X8222729Y3991102D01*
X8221459Y3991102D01*
X8220951Y3991102D01*
X8220443Y3990847D01*
X8219935Y3990339D01*
X8219681Y3989831D01*
X8219681Y3988815D01*
X8219935Y3988562D01*
X8220443Y3988054D01*
X8220951Y3987800D01*
X8221459Y3987545D01*
X8222729Y3987545D01*
X8223491Y3987800D01*
X8223745Y3988054D01*
X8224253Y3988562D01*
X8224507Y3988815D01*
X8224507Y3989831D01*
X8224507Y3986021D02*
G01*
X8219681Y3984244D01*
X8224507Y3982212D02*
G01*
X8219681Y3984244D01*
X8224507Y3978910D02*
G01*
X8219681Y3980687D01*
X8224507Y3978910D02*
G01*
X8219681Y3977131D01*
X8221205Y3980179D02*
G01*
X8221205Y3977894D01*
X8224507Y3975607D02*
G01*
X8219681Y3975607D01*
X8224507Y3975607D02*
G01*
X8224507Y3973576D01*
X8224253Y3972813D01*
X8223999Y3972560D01*
X8223745Y3972305D01*
X8223237Y3972305D01*
X8222729Y3972560D01*
X8222475Y3972813D01*
X8222221Y3973576D01*
X8222221Y3975607D01*
X8222221Y3973829D02*
G01*
X8219681Y3972305D01*
X8220951Y3970528D02*
G01*
X8220697Y3970781D01*
X8220443Y3970528D01*
X8220697Y3970273D01*
X8220951Y3970528D01*
X8224507Y3968750D02*
G01*
X8218919Y3965702D01*
X8222983Y3964178D02*
G01*
X8219681Y3964178D01*
X8221967Y3964178D02*
G01*
X8222729Y3963415D01*
X8222983Y3962907D01*
X8222983Y3962145D01*
X8222729Y3961637D01*
X8221967Y3961637D01*
X8219681Y3961637D01*
X8224507Y3960113D02*
G01*
X8219681Y3960113D01*
X8224507Y3960113D02*
G01*
X8224507Y3957828D01*
X8224253Y3957320D01*
X8223999Y3957065D01*
X8223745Y3956812D01*
X8222983Y3956812D01*
X8222475Y3957065D01*
X8222221Y3957320D01*
X8221967Y3957828D01*
X8221967Y3960113D01*
X8224507Y3955287D02*
G01*
X8219681Y3955287D01*
X8221459Y3953763D02*
G01*
X8221459Y3950970D01*
X8221967Y3950970D01*
X8222475Y3951223D01*
X8222729Y3951478D01*
X8222983Y3951986D01*
X8222983Y3952494D01*
X8222729Y3953002D01*
X8222221Y3953510D01*
X8221459Y3953763D01*
X8221205Y3953763D01*
X8220443Y3953510D01*
X8219935Y3953002D01*
X8219681Y3952494D01*
X8219681Y3951986D01*
X8219935Y3951478D01*
X8220443Y3950970D01*
X8222983Y3946652D02*
G01*
X8219681Y3946652D01*
X8222221Y3946652D02*
G01*
X8222729Y3947160D01*
X8222983Y3947668D01*
X8222983Y3948176D01*
X8222729Y3948684D01*
X8222221Y3949192D01*
X8221459Y3949445D01*
X8221205Y3949445D01*
X8220443Y3949192D01*
X8219935Y3948684D01*
X8219681Y3948176D01*
X8219681Y3947668D01*
X8219935Y3947160D01*
X8220443Y3946652D01*
X8222221Y3942587D02*
G01*
X8222729Y3942842D01*
X8222983Y3943604D01*
X8222983Y3944112D01*
X8222729Y3944873D01*
X8222221Y3945128D01*
X8221713Y3944873D01*
X8221459Y3944365D01*
X8221205Y3943350D01*
X8221205Y3942842D01*
X8220697Y3942587D01*
X8220443Y3942587D01*
X8219935Y3942842D01*
X8219681Y3943604D01*
X8219681Y3944112D01*
X8219935Y3944873D01*
X8220443Y3945128D01*
X8221459Y3941063D02*
G01*
X8221459Y3938270D01*
X8221967Y3938270D01*
X8222475Y3938523D01*
X8222729Y3938778D01*
X8222983Y3939286D01*
X8222983Y3939794D01*
X8222729Y3940302D01*
X8222221Y3940810D01*
X8221459Y3941063D01*
X8221205Y3941063D01*
X8220443Y3940810D01*
X8219935Y3940302D01*
X8219681Y3939794D01*
X8219681Y3939286D01*
X8219935Y3938778D01*
X8220443Y3938270D01*
X8222983Y3933189D02*
G01*
X8219681Y3933189D01*
X8221459Y3933189D02*
G01*
X8222221Y3932936D01*
X8222729Y3932428D01*
X8222983Y3932173D01*
X8222983Y3931412D01*
X8221459Y3929887D02*
G01*
X8221459Y3927094D01*
X8221967Y3927094D01*
X8222475Y3927347D01*
X8222729Y3927602D01*
X8222983Y3928110D01*
X8222983Y3928618D01*
X8222729Y3929126D01*
X8222221Y3929634D01*
X8221459Y3929887D01*
X8221205Y3929887D01*
X8220443Y3929634D01*
X8219935Y3929126D01*
X8219681Y3928618D01*
X8219681Y3928110D01*
X8219935Y3927602D01*
X8220443Y3927094D01*
X8222983Y3925570D02*
G01*
X8218157Y3925570D01*
X8222221Y3925570D02*
G01*
X8222729Y3925062D01*
X8222983Y3924554D01*
X8222983Y3924045D01*
X8222729Y3923537D01*
X8222221Y3923029D01*
X8221459Y3922776D01*
X8221205Y3922776D01*
X8220443Y3923029D01*
X8219935Y3923537D01*
X8219681Y3924045D01*
X8219681Y3924554D01*
X8219935Y3925062D01*
X8220443Y3925570D01*
X8222983Y3919981D02*
G01*
X8222729Y3920489D01*
X8222221Y3920997D01*
X8221459Y3921252D01*
X8221205Y3921252D01*
X8220443Y3920997D01*
X8219935Y3920489D01*
X8219681Y3919981D01*
X8219681Y3919473D01*
X8219935Y3918965D01*
X8220443Y3918457D01*
X8221205Y3918204D01*
X8221459Y3918204D01*
X8222221Y3918457D01*
X8222729Y3918965D01*
X8222983Y3919473D01*
X8222983Y3919981D01*
X8222983Y3916679D02*
G01*
X8219681Y3916679D01*
X8221459Y3916679D02*
G01*
X8222221Y3916426D01*
X8222729Y3915918D01*
X8222983Y3915663D01*
X8222983Y3914902D01*
X8224507Y3912615D02*
G01*
X8220697Y3912615D01*
X8219935Y3912362D01*
X8219681Y3911854D01*
X8219681Y3911600D01*
X8222983Y3913378D02*
G01*
X8222983Y3911854D01*
X8222983Y3903726D02*
G01*
X8219681Y3903726D01*
X8222221Y3903726D02*
G01*
X8222729Y3904234D01*
X8222983Y3904487D01*
X8222983Y3905250D01*
X8222729Y3905757D01*
X8222221Y3906265D01*
X8221459Y3906520D01*
X8221205Y3906520D01*
X8220443Y3906265D01*
X8219935Y3905757D01*
X8219681Y3905250D01*
X8219681Y3904487D01*
X8219935Y3904234D01*
X8220443Y3903726D01*
X8222983Y3902202D02*
G01*
X8219681Y3902202D01*
X8221967Y3902202D02*
G01*
X8222729Y3901439D01*
X8222983Y3900931D01*
X8222983Y3900170D01*
X8222729Y3899915D01*
X8221967Y3899662D01*
X8219681Y3899662D01*
X8222983Y3897884D02*
G01*
X8219681Y3896360D01*
X8222983Y3895089D02*
G01*
X8219681Y3896360D01*
X8218665Y3896868D01*
X8218411Y3897376D01*
X8218157Y3897884D01*
X8218157Y3898137D01*
X8221459Y3890010D02*
G01*
X8221459Y3887215D01*
X8221967Y3887215D01*
X8222475Y3887470D01*
X8222729Y3887723D01*
X8222983Y3888231D01*
X8222983Y3888739D01*
X8222729Y3889247D01*
X8222221Y3889755D01*
X8221459Y3890010D01*
X8221205Y3890010D01*
X8220443Y3889755D01*
X8219935Y3889247D01*
X8219681Y3888739D01*
X8219681Y3888231D01*
X8219935Y3887723D01*
X8220443Y3887215D01*
X8222983Y3885692D02*
G01*
X8219681Y3885692D01*
X8221459Y3885692D02*
G01*
X8222221Y3885437D01*
X8222729Y3884929D01*
X8222983Y3884421D01*
X8222983Y3883913D01*
X8222983Y3882389D02*
G01*
X8219681Y3882389D01*
X8221459Y3882389D02*
G01*
X8222221Y3882136D01*
X8222729Y3881628D01*
X8222983Y3881120D01*
X8222983Y3880357D01*
X8222983Y3877818D02*
G01*
X8222729Y3878326D01*
X8222221Y3878834D01*
X8221459Y3878834D01*
X8221205Y3878834D01*
X8220443Y3878834D01*
X8219935Y3878326D01*
X8219681Y3877818D01*
X8219681Y3877055D01*
X8219935Y3876547D01*
X8220443Y3876294D01*
X8221205Y3876039D01*
X8221459Y3876039D01*
X8222221Y3876294D01*
X8222729Y3876547D01*
X8222983Y3877055D01*
X8222983Y3877818D01*
X8222983Y3874515D02*
G01*
X8219681Y3874515D01*
X8221459Y3874515D02*
G01*
X8222221Y3874262D01*
X8222729Y3873754D01*
X8222983Y3873245D01*
X8222983Y3872484D01*
X8222221Y3868420D02*
G01*
X8222729Y3868673D01*
X8222983Y3869436D01*
X8222983Y3870197D01*
X8222729Y3870705D01*
X8222221Y3870960D01*
X8221713Y3870705D01*
X8221459Y3870452D01*
X8221205Y3869181D01*
X8221205Y3868673D01*
X8220697Y3868420D01*
X8220443Y3868420D01*
X8219935Y3868673D01*
X8219681Y3869436D01*
X8219681Y3870197D01*
X8219935Y3870705D01*
X8220443Y3870960D01*
X8222983Y3862323D02*
G01*
X8222729Y3862831D01*
X8222221Y3863086D01*
X8221459Y3863339D01*
X8221205Y3863339D01*
X8220443Y3863086D01*
X8219935Y3862831D01*
X8219681Y3862323D01*
X8219681Y3861562D01*
X8219935Y3861054D01*
X8220443Y3860545D01*
X8221205Y3860545D01*
X8221459Y3860545D01*
X8222221Y3860545D01*
X8222729Y3861054D01*
X8222983Y3861562D01*
X8222983Y3862323D01*
X8222983Y3859021D02*
G01*
X8219681Y3859021D01*
X8221459Y3859021D02*
G01*
X8222221Y3858768D01*
X8222729Y3858260D01*
X8222983Y3857752D01*
X8222983Y3856989D01*
X8222221Y3849370D02*
G01*
X8222729Y3849623D01*
X8222983Y3850386D01*
X8222983Y3851147D01*
X8222729Y3851655D01*
X8222221Y3851910D01*
X8221713Y3851655D01*
X8221459Y3851402D01*
X8221205Y3850131D01*
X8221205Y3849623D01*
X8220697Y3849370D01*
X8220443Y3849370D01*
X8219935Y3849623D01*
X8219681Y3850386D01*
X8219681Y3851147D01*
X8219935Y3851655D01*
X8220443Y3851910D01*
X8222983Y3847845D02*
G01*
X8220697Y3847845D01*
X8219935Y3847592D01*
X8219681Y3847337D01*
X8219681Y3846576D01*
X8219935Y3846068D01*
X8220697Y3845305D01*
X8222983Y3845305D02*
G01*
X8219681Y3845305D01*
X8222983Y3840987D02*
G01*
X8219173Y3840987D01*
X8218665Y3841242D01*
X8218411Y3841495D01*
X8218157Y3842004D01*
X8218157Y3842765D01*
X8218411Y3843273D01*
X8222221Y3840987D02*
G01*
X8222729Y3841495D01*
X8222983Y3842004D01*
X8222983Y3842765D01*
X8222729Y3843273D01*
X8222221Y3843528D01*
X8221459Y3843781D01*
X8221205Y3843781D01*
X8220443Y3843528D01*
X8219935Y3843273D01*
X8219681Y3842765D01*
X8219681Y3842004D01*
X8219935Y3841495D01*
X8220443Y3840987D01*
X8222983Y3836670D02*
G01*
X8219173Y3836670D01*
X8218665Y3836923D01*
X8218411Y3837178D01*
X8218157Y3837686D01*
X8218157Y3838447D01*
X8218411Y3838955D01*
X8222221Y3836670D02*
G01*
X8222729Y3837178D01*
X8222983Y3837686D01*
X8222983Y3838447D01*
X8222729Y3838955D01*
X8222221Y3839210D01*
X8221459Y3839463D01*
X8221205Y3839463D01*
X8220443Y3839210D01*
X8219935Y3838955D01*
X8219681Y3838447D01*
X8219681Y3837686D01*
X8219935Y3837178D01*
X8220443Y3836670D01*
X8221459Y3835145D02*
G01*
X8221459Y3832605D01*
X8221967Y3832605D01*
X8222475Y3832605D01*
X8222729Y3832860D01*
X8222983Y3833368D01*
X8222983Y3834129D01*
X8222729Y3834637D01*
X8222221Y3835145D01*
X8221459Y3835145D01*
X8221205Y3835145D01*
X8220443Y3835145D01*
X8219935Y3834637D01*
X8219681Y3834129D01*
X8219681Y3833368D01*
X8219935Y3832860D01*
X8220443Y3832605D01*
X8222221Y3828542D02*
G01*
X8222729Y3828542D01*
X8222983Y3829304D01*
X8222983Y3830065D01*
X8222729Y3830828D01*
X8222221Y3831081D01*
X8221713Y3830828D01*
X8221459Y3830320D01*
X8221205Y3829050D01*
X8221205Y3828542D01*
X8220697Y3828542D01*
X8220443Y3828542D01*
X8219935Y3828542D01*
X8219681Y3829304D01*
X8219681Y3830065D01*
X8219935Y3830828D01*
X8220443Y3831081D01*
X8224507Y3826255D02*
G01*
X8220697Y3826255D01*
X8219935Y3826002D01*
X8219681Y3825494D01*
X8219681Y3824986D01*
X8222983Y3827018D02*
G01*
X8222983Y3825239D01*
X8224507Y3823462D02*
G01*
X8224253Y3823207D01*
X8224507Y3822954D01*
X8224761Y3823207D01*
X8224507Y3823462D01*
X8222983Y3823207D02*
G01*
X8219681Y3823207D01*
X8222983Y3820413D02*
G01*
X8222729Y3820921D01*
X8222221Y3821429D01*
X8221459Y3821429D01*
X8221205Y3821429D01*
X8220443Y3821429D01*
X8219935Y3820921D01*
X8219681Y3820413D01*
X8219681Y3819652D01*
X8219935Y3819144D01*
X8220443Y3818889D01*
X8221205Y3818636D01*
X8221459Y3818636D01*
X8222221Y3818889D01*
X8222729Y3819144D01*
X8222983Y3819652D01*
X8222983Y3820413D01*
X8222983Y3817112D02*
G01*
X8219681Y3817112D01*
X8221967Y3817112D02*
G01*
X8222729Y3816350D01*
X8222983Y3815842D01*
X8222983Y3815079D01*
X8222729Y3814826D01*
X8221967Y3814571D01*
X8219681Y3814571D01*
X8222221Y3810507D02*
G01*
X8222729Y3810762D01*
X8222983Y3811270D01*
X8222983Y3812031D01*
X8222729Y3812794D01*
X8222221Y3813047D01*
X8221713Y3812794D01*
X8221459Y3812286D01*
X8221205Y3811015D01*
X8221205Y3810762D01*
X8220697Y3810507D01*
X8220443Y3810507D01*
X8219935Y3810762D01*
X8219681Y3811270D01*
X8219681Y3812031D01*
X8219935Y3812794D01*
X8220443Y3813047D01*
X8224507Y3804665D02*
G01*
X8220697Y3804665D01*
X8219935Y3804412D01*
X8219681Y3803904D01*
X8219681Y3803395D01*
X8222983Y3805428D02*
G01*
X8222983Y3803650D01*
X8222983Y3800855D02*
G01*
X8222729Y3801363D01*
X8222221Y3801618D01*
X8221459Y3801871D01*
X8221205Y3801871D01*
X8220443Y3801618D01*
X8219935Y3801363D01*
X8219681Y3800855D01*
X8219681Y3800094D01*
X8219935Y3799586D01*
X8220443Y3799078D01*
X8221205Y3799078D01*
X8221459Y3799078D01*
X8222221Y3799078D01*
X8222729Y3799586D01*
X8222983Y3800094D01*
X8222983Y3800855D01*
X8222475Y3797300D02*
G01*
X8222221Y3797554D01*
X8221967Y3797300D01*
X8222221Y3797045D01*
X8222475Y3797300D01*
X8220951Y3797300D02*
G01*
X8220697Y3797554D01*
X8220443Y3797300D01*
X8220697Y3797045D01*
X8220951Y3797300D01*
X8224507Y3791965D02*
G01*
X8222221Y3789934D01*
X8219681Y3789934D01*
X8224507Y3788155D02*
G01*
X8222221Y3789934D01*
X8224507Y3786631D02*
G01*
X8219681Y3784854D01*
X8224507Y3783076D02*
G01*
X8219681Y3784854D01*
X8223745Y3781552D02*
G01*
X8223745Y3781044D01*
X8224507Y3780281D01*
X8219681Y3780281D01*
X8224507Y3778757D02*
G01*
X8219681Y3778757D01*
X8224507Y3775455D02*
G01*
X8219681Y3775455D01*
X8222221Y3778757D02*
G01*
X8222221Y3775455D01*
X8224507Y3773931D02*
G01*
X8219681Y3770884D01*
X8224507Y3770884D02*
G01*
X8219681Y3773931D01*
X8222729Y3765804D02*
G01*
X8223237Y3766057D01*
X8223491Y3766565D01*
X8223491Y3767073D01*
X8223237Y3767581D01*
X8222983Y3767836D01*
X8222221Y3768089D01*
X8221459Y3768089D01*
X8221205Y3767836D01*
X8220951Y3767328D01*
X8220951Y3766820D01*
X8221205Y3766312D01*
X8221459Y3766057D01*
X8223491Y3767073D02*
G01*
X8222983Y3767581D01*
X8222221Y3767836D01*
X8221459Y3767836D01*
X8221205Y3767581D01*
X8220951Y3767328D01*
X8223491Y3765804D02*
G01*
X8221459Y3766057D01*
X8221205Y3766057D01*
X8220951Y3765550D01*
X8220951Y3765042D01*
X8221205Y3764534D01*
X8221967Y3764534D01*
X8222475Y3764534D01*
X8223237Y3764534D01*
X8223745Y3764787D01*
X8223999Y3765295D01*
X8224253Y3765804D01*
X8224507Y3766565D01*
X8224507Y3767073D01*
X8224253Y3767836D01*
X8223999Y3768344D01*
X8223745Y3768852D01*
X8223237Y3769105D01*
X8222475Y3769360D01*
X8221713Y3769360D01*
X8221205Y3769105D01*
X8220697Y3768852D01*
X8220189Y3768344D01*
X8219935Y3767836D01*
X8219681Y3767073D01*
X8219681Y3766565D01*
X8219935Y3765804D01*
X8220189Y3765295D01*
X8220443Y3765042D01*
X8223491Y3765550D02*
G01*
X8221459Y3765804D01*
X8221205Y3765804D01*
X8220951Y3765550D01*
X8223491Y3759454D02*
G01*
X8223745Y3759707D01*
X8224253Y3760215D01*
X8224507Y3760470D01*
X8224507Y3761486D01*
X8224253Y3761994D01*
X8223745Y3762502D01*
X8223491Y3762755D01*
X8222729Y3763010D01*
X8221459Y3763010D01*
X8220951Y3762755D01*
X8220443Y3762502D01*
X8219935Y3761994D01*
X8219681Y3761486D01*
X8219681Y3760470D01*
X8219935Y3760215D01*
X8220443Y3759707D01*
X8220951Y3759454D01*
X8224507Y3756152D02*
G01*
X8219681Y3757929D01*
X8224507Y3756152D02*
G01*
X8219681Y3754120D01*
X8221205Y3757168D02*
G01*
X8221205Y3754881D01*
X8224507Y3752595D02*
G01*
X8219681Y3752595D01*
X8224507Y3752595D02*
G01*
X8219681Y3749547D01*
X8224507Y3749547D02*
G01*
X8219681Y3749547D01*
X8224507Y3746245D02*
G01*
X8219681Y3746245D01*
X8224507Y3748023D02*
G01*
X8224507Y3744721D01*
X8224507Y3743197D02*
G01*
X8219681Y3741420D01*
X8224507Y3739387D02*
G01*
X8219681Y3741420D01*
X8220951Y3737610D02*
G01*
X8220697Y3737863D01*
X8220443Y3737610D01*
X8220697Y3737610D01*
X8220951Y3737610D01*
X8224507Y3736086D02*
G01*
X8219681Y3736086D01*
X8224507Y3736086D02*
G01*
X8219681Y3732784D01*
X8224507Y3732784D02*
G01*
X8219681Y3732784D01*
X8224507Y3731260D02*
G01*
X8219681Y3731260D01*
X8224507Y3731260D02*
G01*
X8224507Y3728212D01*
X8222221Y3731260D02*
G01*
X8222221Y3729481D01*
X8219681Y3731260D02*
G01*
X8219681Y3728212D01*
X8224507Y3725163D02*
G01*
X8219681Y3725163D01*
X8224507Y3726687D02*
G01*
X8224507Y3723386D01*
X8224507Y3721862D02*
G01*
X8218919Y3718813D01*
X8222983Y3717289D02*
G01*
X8219681Y3717289D01*
X8221967Y3717289D02*
G01*
X8222729Y3716528D01*
X8222983Y3716020D01*
X8222983Y3715257D01*
X8222729Y3714750D01*
X8221967Y3714750D01*
X8219681Y3714750D01*
X8224507Y3711447D02*
G01*
X8219681Y3711447D01*
X8224507Y3713226D02*
G01*
X8224507Y3709923D01*
X8224507Y3708400D02*
G01*
X8219681Y3708400D01*
X8221967Y3708400D02*
G01*
X8222729Y3707637D01*
X8222983Y3707129D01*
X8222983Y3706621D01*
X8222729Y3706113D01*
X8221967Y3705860D01*
X8219681Y3705860D01*
X8222983Y3701542D02*
G01*
X8219681Y3701542D01*
X8222221Y3701542D02*
G01*
X8222729Y3702050D01*
X8222983Y3702557D01*
X8222983Y3703065D01*
X8222729Y3703573D01*
X8222221Y3704081D01*
X8221459Y3704336D01*
X8221205Y3704336D01*
X8220443Y3704081D01*
X8219935Y3703573D01*
X8219681Y3703065D01*
X8219681Y3702557D01*
X8219935Y3702050D01*
X8220443Y3701542D01*
X8222983Y3700018D02*
G01*
X8219681Y3700018D01*
X8221967Y3700018D02*
G01*
X8222729Y3699255D01*
X8222983Y3698747D01*
X8222983Y3698239D01*
X8222729Y3697731D01*
X8221967Y3697478D01*
X8219681Y3697478D01*
X8224507Y3695954D02*
G01*
X8219681Y3695954D01*
X8222983Y3693668D02*
G01*
X8220697Y3695954D01*
X8221459Y3694937D02*
G01*
X8219681Y3693413D01*
X8222221Y3689350D02*
G01*
X8222729Y3689604D01*
X8222983Y3690365D01*
X8222983Y3690873D01*
X8222729Y3691636D01*
X8222221Y3691889D01*
X8221713Y3691636D01*
X8221459Y3691128D01*
X8221205Y3690112D01*
X8221205Y3689604D01*
X8220697Y3689350D01*
X8220443Y3689350D01*
X8219935Y3689604D01*
X8219681Y3690365D01*
X8219681Y3690873D01*
X8219935Y3691636D01*
X8220443Y3691889D01*
X8222983Y3684015D02*
G01*
X8219681Y3682745D01*
X8222983Y3681221D02*
G01*
X8219681Y3682745D01*
X8218665Y3683000D01*
X8218411Y3683507D01*
X8218157Y3684015D01*
X8218157Y3684270D01*
X8222983Y3678681D02*
G01*
X8222729Y3678936D01*
X8222221Y3679444D01*
X8221459Y3679697D01*
X8221205Y3679697D01*
X8220443Y3679444D01*
X8219935Y3678936D01*
X8219681Y3678681D01*
X8219681Y3677920D01*
X8219935Y3677412D01*
X8220443Y3676904D01*
X8221205Y3676650D01*
X8221459Y3676650D01*
X8222221Y3676904D01*
X8222729Y3677412D01*
X8222983Y3677920D01*
X8222983Y3678681D01*
X8222983Y3675126D02*
G01*
X8220697Y3675126D01*
X8219935Y3674871D01*
X8219681Y3674618D01*
X8219681Y3673855D01*
X8219935Y3673347D01*
X8220697Y3672586D01*
X8222983Y3672586D02*
G01*
X8219681Y3672586D01*
X8224507Y3670807D02*
G01*
X8221205Y3670807D01*
X8220189Y3670807D02*
G01*
X8219935Y3671062D01*
X8219681Y3670807D01*
X8219935Y3670554D01*
X8220189Y3670807D01*
X8224507Y3669029D02*
G01*
X8221205Y3669029D01*
X8220189Y3669029D02*
G01*
X8219935Y3669029D01*
X8219681Y3669029D01*
X8219935Y3668776D01*
X8220189Y3669029D01*
X8224507Y3666997D02*
G01*
X8221205Y3666997D01*
X8220189Y3666997D02*
G01*
X8219935Y3667252D01*
X8219681Y3666997D01*
X8219935Y3666744D01*
X8220189Y3666997D01*
D12*
X5918200Y7201915D02*
G01*
X5918200Y7092950D01*
X5918200Y7201915D02*
G01*
X5959856Y7092950D01*
X6001258Y7201915D02*
G01*
X5959856Y7092950D01*
X6001258Y7201915D02*
G01*
X6001258Y7092950D01*
X6035547Y7181087D02*
G01*
X6045961Y7186421D01*
X6061709Y7201915D01*
X6061709Y7092950D01*
D17*
X6869175Y5803900D02*
G01*
X7038847Y5739129D01*
X6869175Y5803900D02*
G01*
X7038847Y5868415D01*
X6982206Y5763260D02*
G01*
X6982206Y5844286D01*
X6869175Y5921755D02*
G01*
X7038847Y5921755D01*
X6869175Y5921755D02*
G01*
X7038847Y6035039D01*
X6869175Y6035039D02*
G01*
X7038847Y6035039D01*
X6869175Y6144768D02*
G01*
X7038847Y6144768D01*
X6869175Y6088379D02*
G01*
X6869175Y6201410D01*
X6869175Y6254750D02*
G01*
X7038847Y6254750D01*
X6869175Y6254750D02*
G01*
X6869175Y6359905D01*
X6949947Y6254750D02*
G01*
X6949947Y6319520D01*
X7038847Y6254750D02*
G01*
X7038847Y6359905D01*
X6869175Y6413245D02*
G01*
X7038847Y6413245D01*
X6869175Y6413245D02*
G01*
X7038847Y6526276D01*
X6869175Y6526276D02*
G01*
X7038847Y6526276D01*
X6869175Y6579615D02*
G01*
X7038847Y6579615D01*
X6869175Y6579615D02*
G01*
X7038847Y6692900D01*
X6869175Y6692900D02*
G01*
X7038847Y6692900D01*
X6869175Y6810755D02*
G01*
X7038847Y6746239D01*
X6869175Y6810755D02*
G01*
X7038847Y6875526D01*
X6982206Y6770370D02*
G01*
X6982206Y6851142D01*
G36*
X4279900Y3568700D02*
G01*
X4406900Y3441700D01*
X4533900Y3568700D01*
G37*
G36*
X4660900Y3568700D02*
G01*
X4533900Y3441700D01*
X4787900Y3441700D01*
G37*
D18*
X1435102Y5943600D02*
G01*
X1435102Y5689600D01*
X3213097Y5689600D01*
X3213097Y5943600D01*
X1435102Y5943600D01*
X1519100Y3186605D02*
G01*
X2919102Y3186605D01*
X2919102Y3186602D01*
X1502140Y3186605D02*
G01*
X1519100Y3186605D01*
X2919102Y3186602D02*
G01*
X3689098Y3186602D01*
X3689098Y5966599D01*
X959104Y5966599D01*
X959104Y3186605D01*
X1519100Y3186605D01*
X1519100Y3186602D01*
X1519100Y3186602D02*
G01*
X1519102Y3475601D01*
X2919102Y3475601D01*
X2919102Y3186602D01*
X989101Y5539587D02*
G01*
X3659098Y5539587D01*
X3659098Y3613581D01*
X989101Y3613581D01*
X989101Y5539587D01*
X1237106Y5329605D02*
G01*
X3411093Y5329605D01*
X3411093Y4243095D01*
X1237106Y4243095D01*
X1237106Y5329605D01*
D10*
X5410200Y2755900D02*
G01*
X4978400Y2755900D01*
X4978400Y2146300D02*
G01*
X5410200Y2146300D01*
X5499100Y2550896D02*
G01*
X5499100Y2349500D01*
X4889500Y2553893D02*
G01*
X4889500Y2349500D01*
X3822700Y2743200D02*
G01*
X3390900Y2743200D01*
X3390900Y2133600D02*
G01*
X3822700Y2133600D01*
X3911600Y2538196D02*
G01*
X3911600Y2336800D01*
X3302000Y2541193D02*
G01*
X3302000Y2336800D01*
X2476500Y2755900D02*
G01*
X2044700Y2755900D01*
X2044700Y2146300D02*
G01*
X2476500Y2146300D01*
X2565400Y2550896D02*
G01*
X2565400Y2349500D01*
X1955800Y2553893D02*
G01*
X1955800Y2349500D01*
D20*
X8343887Y3187700D02*
G01*
X8216887Y3187700D01*
X4025887Y3187700D01*
X4025887Y3314700D01*
X4025887Y3695700D01*
X4025887Y4457700D01*
X4025887Y4965700D01*
X4152887Y4965700D01*
X8343887Y4965700D01*
X8343887Y4838700D01*
X8343887Y3822700D01*
X8343887Y3187700D01*
X7835887Y3822700D02*
G01*
X8343887Y3822700D01*
X8470887Y3822700D01*
X8470887Y4330700D01*
X7835887Y4330700D01*
X7835887Y3822700D01*
X4025887Y3695700D02*
G01*
X4533887Y3695700D01*
X4533887Y4457700D01*
X4025887Y4457700D01*
D21*
X8216887Y3187700D02*
G01*
X8216887Y3441700D01*
X8343887Y4838700D02*
G01*
X8089887Y4838700D01*
X4152887Y4965700D02*
G01*
X4152887Y4711700D01*
X4279887Y3314700D02*
G01*
X4025887Y3314700D01*
D20*
X4406887Y3441700D02*
G01*
X4533887Y3568700D01*
X4279887Y3568700D01*
X4406887Y3441700D01*
X4660887Y3568700D02*
G01*
X4533887Y3441700D01*
X4787887Y3441700D01*
X4660887Y3568700D01*
X4480559Y7048500D02*
G01*
X6731000Y7048500D01*
X7381240Y7048500D01*
X7381240Y5549900D01*
X6731000Y5549900D01*
X4480559Y5549900D01*
X4480559Y7048500D01*
X4521200Y6946900D02*
G01*
X4584700Y7010400D01*
X4965700Y7010400D01*
X5029200Y6946900D01*
X5029200Y6819900D01*
X4965700Y6756400D01*
X5029200Y6692900D01*
X5029200Y6565900D01*
X4965700Y6502400D01*
X5029200Y6438900D01*
X5029200Y6311900D01*
X4965700Y6248400D01*
X5029200Y6184900D01*
X5029200Y6057900D01*
X4965700Y5994400D01*
X4838700Y5994400D01*
X4775200Y6057900D01*
X4711700Y5994400D01*
X4584700Y5994400D01*
X4521200Y6057900D01*
X4521200Y6184900D01*
X4584700Y6248400D01*
X4521200Y6311900D01*
X4521200Y6438900D01*
X4584700Y6502400D01*
X4521200Y6565900D01*
X4521200Y6692900D01*
X4584700Y6756400D01*
X4521200Y6819900D01*
X4521200Y6946900D01*
X6731000Y7048500D02*
G01*
X6731000Y5549900D01*
D10*
G75*
G01*
X5372100Y2451100D02*
G03*
X5372100Y2450668I-177800J-216D01*
G75*
G01*
X3784600Y2438400D02*
G03*
X3784600Y2437968I-177800J-216D01*
G75*
G01*
X2438400Y2451100D02*
G03*
X2438400Y2450668I-177800J-216D01*
D20*
G75*
G01*
X5751284Y4076700D02*
G03*
X5751284Y4077132I179603J216D01*
G75*
G01*
X4072903Y4330700D02*
G03*
X4072903Y4331106I80009J203D01*
G75*
G01*
X4072903Y4076700D02*
G03*
X4072903Y4077106I80009J203D01*
G75*
G01*
X4072903Y3822700D02*
G03*
X4072903Y3823132I80009J216D01*
G75*
G01*
X4326903Y3822700D02*
G03*
X4326903Y3823132I80009J216D01*
G75*
G01*
X4072903Y4076700D02*
G03*
X4072903Y4077106I80009J203D01*
G75*
G01*
X4326903Y4076700D02*
G03*
X4326903Y4077106I80009J203D01*
G75*
G01*
X4326903Y4330700D02*
G03*
X4326903Y4331106I80009J203D01*
M02*
