G04 Layer: BottomLayer*
G04 EasyEDA v6.5.54, 2026-02-13 05:53:55*
G04 70323f53a5ba4409a2e903c6c44e9b96,20cc673dbd184c8ca6733993ffc9aab1,10*
G04 Gerber Generator version 0.2*
G04 Scale: 100 percent, Rotated: No, Reflected: No *
G04 Dimensions in millimeters *
G04 leading zeros omitted , absolute positions ,4 integer and 5 decimal *
%FSLAX45Y45*%
%MOMM*%

%ADD10C,0.7000*%
%ADD11C,0.6000*%
%ADD12C,0.8000*%
%ADD13C,1.8000*%
%ADD14C,1.9000*%
%ADD15C,2.2000*%
%ADD16C,2.5000*%
%ADD17R,1.8000X1.3081*%
%ADD18R,1.8000X1.5080*%
%ADD19R,0.0124X1.5080*%
%ADD20C,1.7000*%
%ADD21C,1.4000*%

%LPD*%
D10*
X5168900Y3314700D02*
G01*
X5168900Y4051300D01*
X4686300Y4533900D01*
X4686300Y4813300D01*
X4660900Y4838700D01*
D11*
X3886200Y5651500D02*
G01*
X3886200Y6489700D01*
X4279900Y6883400D01*
X4279900Y6883400D01*
X4648200Y6883400D01*
D10*
X2206091Y5816600D02*
G01*
X2206091Y6651091D01*
X2336800Y6781800D01*
X4045798Y6781800D01*
X4099349Y6728249D01*
X1943100Y6870700D02*
G01*
X1943100Y5825591D01*
X1952091Y5816600D01*
D11*
X7708900Y3314700D02*
G01*
X7708900Y3695700D01*
X7543800Y3860800D01*
X5537200Y3860800D01*
X4902200Y6883400D02*
G01*
X6972300Y6883400D01*
X8140700Y5715000D01*
X8140700Y5702300D01*
X8293100Y5549900D01*
X8293100Y4673600D01*
X8128000Y4508500D01*
X7759700Y4508500D01*
X7708900Y4559300D01*
X7708900Y4838700D01*
X7962900Y4838700D02*
G01*
X7962900Y5334000D01*
X7569200Y5727700D01*
X4406900Y5727700D01*
X4254500Y5880100D01*
X4254500Y6311900D01*
X4330700Y6388100D01*
X4635500Y6388100D01*
X4648200Y6375400D01*
D12*
X6184900Y3314700D02*
G01*
X6184900Y2984500D01*
X4724400Y2984500D01*
X4178300Y2438400D01*
X2174242Y2438400D01*
X1935485Y2677157D01*
X1935479Y2225039D02*
G01*
X1935479Y2153920D01*
X2108200Y1981200D01*
X3175000Y1981200D01*
X3289300Y2095500D01*
X3289300Y2204720D01*
X3281679Y2212339D01*
X3281679Y2212339D02*
G01*
X3281679Y2128520D01*
X3403600Y2006600D01*
X4737100Y2006600D01*
X4851400Y2120900D01*
X4851400Y2207260D01*
X4869179Y2225039D01*
X4869185Y2677157D02*
G01*
X4879342Y2677157D01*
X5105400Y2451100D01*
X6108700Y2451100D01*
X6438900Y2781300D01*
X6438900Y3314700D01*
X2460091Y5816600D02*
G01*
X2460091Y5744108D01*
X2997200Y5207000D01*
X5676900Y5207000D01*
X5930900Y4953000D01*
X5930900Y4838700D01*
X6184900Y4838700D02*
G01*
X6184900Y5143500D01*
X5956300Y5372100D01*
X3158591Y5372100D01*
X2714091Y5816600D01*
D11*
X7962900Y3314700D02*
G01*
X7962900Y3822700D01*
X7696200Y4089400D01*
X5664200Y4089400D01*
X5537200Y4216400D01*
X4533900Y4216400D02*
G01*
X4533900Y4203700D01*
X4406900Y4076700D01*
X1181100Y4076700D01*
X4648200Y6629400D02*
G01*
X4279900Y6629400D01*
X4076700Y6426200D01*
X4076700Y5803900D01*
X4330700Y5549900D01*
X7137400Y5549900D01*
X7327900Y5359400D01*
D13*
G01*
X2206091Y5816600D03*
D14*
G01*
X1952091Y5816600D03*
D13*
G01*
X2460091Y5816600D03*
G01*
X2714091Y5816600D03*
D15*
G01*
X4869179Y2677160D03*
G01*
X5519420Y2677160D03*
G01*
X4869179Y2225039D03*
G01*
X5519420Y2225039D03*
D16*
G01*
X3281679Y2664460D03*
G01*
X3931920Y2664460D03*
G01*
X3281679Y2212339D03*
G01*
X3931920Y2212339D03*
G01*
X1935479Y2677160D03*
G01*
X2585720Y2677160D03*
G01*
X1935479Y2225039D03*
G01*
X2585720Y2225039D03*
D17*
G01*
X7962900Y4838700D03*
D13*
G01*
X7708900Y4838700D03*
G01*
X7454900Y4838700D03*
G01*
X7200900Y4838700D03*
G01*
X6946900Y4838700D03*
G01*
X6692900Y4838700D03*
G01*
X6438900Y4838700D03*
G01*
X6184900Y4838700D03*
G01*
X5930900Y4838700D03*
G01*
X5676900Y4838700D03*
G01*
X5422900Y4838700D03*
G01*
X5168900Y4838700D03*
G01*
X4914900Y4838700D03*
G01*
X4660900Y4838700D03*
G01*
X4406900Y4838700D03*
G01*
X4406900Y3314700D03*
G01*
X4660900Y3314700D03*
G01*
X4914900Y3314700D03*
G01*
X5168900Y3314700D03*
G01*
X5422900Y3314700D03*
G01*
X5676900Y3314700D03*
G01*
X5930900Y3314700D03*
G01*
X6184900Y3314700D03*
G01*
X6438900Y3314700D03*
G01*
X6692900Y3314700D03*
G01*
X6946900Y3314700D03*
G01*
X7200900Y3314700D03*
G01*
X7454900Y3314700D03*
G01*
X7708900Y3314700D03*
G01*
X7962900Y3314700D03*
D18*
G01*
X4648200Y6883400D03*
D13*
G01*
X4902200Y6121400D03*
G01*
X4902200Y6375400D03*
G01*
X4902200Y6629400D03*
G01*
X4902200Y6883400D03*
G01*
X4648200Y6629400D03*
G01*
X4648200Y6375400D03*
G01*
X4648200Y6121400D03*
D20*
G01*
X3886200Y5651500D03*
G01*
X7327900Y5359400D03*
D21*
G01*
X5537200Y3860800D03*
D20*
G01*
X1181100Y4076700D03*
D21*
G01*
X5537200Y4216400D03*
G01*
X4533900Y4216400D03*
D20*
G01*
X1943100Y6870700D03*
M02*
