G04 Layer: TopLayer*
G04 EasyEDA v6.5.54, 2026-02-13 05:53:55*
G04 70323f53a5ba4409a2e903c6c44e9b96,20cc673dbd184c8ca6733993ffc9aab1,10*
G04 Gerber Generator version 0.2*
G04 Scale: 100 percent, Rotated: No, Reflected: No *
G04 Dimensions in millimeters *
G04 leading zeros omitted , absolute positions ,4 integer and 5 decimal *
%FSLAX45Y45*%
%MOMM*%

%ADD10C,0.7000*%
%ADD11C,0.6000*%
%ADD12C,0.8000*%
%ADD13C,1.8000*%
%ADD14C,1.9000*%
%ADD15C,2.2000*%
%ADD16C,0.0179*%
%ADD17C,2.5000*%
%ADD18R,1.8000X1.3081*%
%ADD19R,1.8000X1.5080*%
%ADD20C,1.7000*%
%ADD21C,1.4000*%

%LPD*%
D10*
X4902200Y6883400D02*
G01*
X4902200Y7048500D01*
X4838700Y7112000D01*
X2184400Y7112000D01*
X1943100Y6870700D01*
D11*
X4648200Y6121400D02*
G01*
X4178300Y6121400D01*
X3886200Y6413500D01*
X1155700Y6413500D01*
X876300Y6134100D01*
X876300Y4381500D01*
X1181100Y4076700D01*
X5537200Y3860800D02*
G01*
X3505200Y3860800D01*
X3048000Y4318000D01*
X3048000Y5842000D01*
X3352800Y6146800D01*
X3886200Y6146800D01*
X4406900Y5626100D01*
X5232400Y5626100D01*
X5562600Y5956300D01*
X5562600Y6121400D01*
X5321300Y6362700D01*
X4914900Y6362700D01*
X4902200Y6375400D01*
X7327900Y5359400D02*
G01*
X7899400Y5359400D01*
X8191500Y5067300D01*
X8191500Y4406900D01*
X7962900Y4178300D01*
X7442200Y4178300D01*
X7200900Y3937000D01*
X7200900Y3314700D01*
X4902200Y6629400D02*
G01*
X7277100Y6629400D01*
X8343900Y5562600D01*
X8343900Y4165600D01*
X8039100Y3860800D01*
X7620000Y3860800D01*
X7442200Y3683000D01*
X7442200Y3327400D01*
X7454900Y3314700D01*
X4660900Y4838700D02*
G01*
X4660900Y5156200D01*
X4419600Y5397500D01*
X4140200Y5397500D01*
X3886200Y5651500D01*
D12*
X4869185Y2225042D02*
G01*
X4993642Y2225042D01*
X5168900Y2400300D01*
X5168900Y3314700D01*
X3281685Y2664457D02*
G01*
X3329942Y2664457D01*
X3581400Y2413000D01*
X3581400Y2146300D01*
X3759200Y1968500D01*
X5880100Y1968500D01*
X6692900Y2781300D01*
X6692900Y3314700D01*
D11*
X5537200Y4216400D02*
G01*
X4533900Y4216400D01*
D13*
G01*
X2206091Y5816600D03*
D14*
G01*
X1952091Y5816600D03*
D13*
G01*
X2460091Y5816600D03*
G01*
X2714091Y5816600D03*
D15*
G01*
X4869179Y2677160D03*
G01*
X5519420Y2677160D03*
G01*
X4869179Y2225039D03*
G01*
X5519420Y2225039D03*
D17*
G01*
X3281679Y2664460D03*
G01*
X3931920Y2664460D03*
G01*
X3281679Y2212339D03*
G01*
X3931920Y2212339D03*
G01*
X1935479Y2677160D03*
G01*
X2585720Y2677160D03*
G01*
X1935479Y2225039D03*
G01*
X2585720Y2225039D03*
D18*
G01*
X7962900Y4838700D03*
D13*
G01*
X7708900Y4838700D03*
G01*
X7454900Y4838700D03*
G01*
X7200900Y4838700D03*
G01*
X6946900Y4838700D03*
G01*
X6692900Y4838700D03*
G01*
X6438900Y4838700D03*
G01*
X6184900Y4838700D03*
G01*
X5930900Y4838700D03*
G01*
X5676900Y4838700D03*
G01*
X5422900Y4838700D03*
G01*
X5168900Y4838700D03*
G01*
X4914900Y4838700D03*
G01*
X4660900Y4838700D03*
G01*
X4406900Y4838700D03*
G01*
X4406900Y3314700D03*
G01*
X4660900Y3314700D03*
G01*
X4914900Y3314700D03*
G01*
X5168900Y3314700D03*
G01*
X5422900Y3314700D03*
G01*
X5676900Y3314700D03*
G01*
X5930900Y3314700D03*
G01*
X6184900Y3314700D03*
G01*
X6438900Y3314700D03*
G01*
X6692900Y3314700D03*
G01*
X6946900Y3314700D03*
G01*
X7200900Y3314700D03*
G01*
X7454900Y3314700D03*
G01*
X7708900Y3314700D03*
G01*
X7962900Y3314700D03*
D19*
G01*
X4648200Y6883400D03*
D13*
G01*
X4902200Y6121400D03*
G01*
X4902200Y6375400D03*
G01*
X4902200Y6629400D03*
G01*
X4902200Y6883400D03*
G01*
X4648200Y6629400D03*
G01*
X4648200Y6375400D03*
G01*
X4648200Y6121400D03*
D20*
G01*
X3886200Y5651500D03*
G01*
X7327900Y5359400D03*
D21*
G01*
X5537200Y3860800D03*
D20*
G01*
X1181100Y4076700D03*
D21*
G01*
X5537200Y4216400D03*
G01*
X4533900Y4216400D03*
D20*
G01*
X1943100Y6870700D03*
M02*
